<?xml version="1.0" encoding="UTF-8"?>
<svg width="72px" height="72px" viewBox="0 0 72 72" version="1.1" xmlns="http://www.w3.org/2000/svg" xmlns:xlink="http://www.w3.org/1999/xlink">
    <title>applause</title>
    <g id="applause" stroke="none" stroke-width="1" fill="none" fill-rule="evenodd">
        <g id="noun_clap_1471176" transform="translate(3.000000, 1.000000)" fill="#000000" fill-rule="nonzero">
            <path d="M58.3472408,38.1129003 C60.02884,35.9635403 59.9487639,32.7793032 57.9468601,30.789155 C57.3062509,30.1523076 56.4254132,29.674672 55.5445755,29.4358543 C55.8648801,28.7194009 56.0250324,27.9233416 56.0250324,27.1272824 C56.0250324,25.6147698 55.4644994,24.261469 54.4235094,23.2265919 C52.4216056,21.2364438 49.3787118,21.0772319 47.2166558,22.6693505 C46.9764273,22.032503 46.6561227,21.3956556 46.1756658,20.8384141 C45.1346758,19.7239312 43.6933051,19.0074778 42.1718582,19.0074778 C40.7304875,18.9278719 39.2891167,19.4851134 38.2481268,20.5199904 C38.0879745,20.2811726 37.9278222,19.9627489 37.6875937,19.8035371 C36.6466037,18.6890541 35.205233,17.9726008 33.6837861,17.9726008 C32.0822631,17.8929948 30.6408924,18.5298423 29.5999024,19.5647193 L21.5922872,27.4457061 C20.7114496,24.1022571 17.5084035,21.7936853 13.9850528,22.1917149 C13.024139,22.2713208 12.1433014,22.7489564 11.5026921,23.3858038 C10.0613214,21.7936853 7.81918916,20.8384141 5.49698077,21.0772319 C3.33492467,21.3160497 1.65332549,23.146986 1.65332549,25.375952 L1.73340164,36.9188114 C1.73340164,39.9438366 1.33302088,43.0484678 0.61233552,45.7550693 L0.61233552,45.8346752 L0.61233552,45.8346752 C-0.989187512,51.4070901 0.61233552,57.3775347 4.69621925,61.4374369 C8.94025529,65.6565511 14.625662,67.9651229 20.5512973,67.9651229 C21.0317542,67.9651229 21.5922872,67.9651229 22.0727441,67.885517 C24.3148764,68.6019704 26.7171609,69 29.0393693,69 C34.8048523,69 40.5703352,66.85064 44.8944474,62.472314 L60.3491446,47.0287641 C61.3901346,45.9938871 61.9506676,44.5609804 61.9506676,43.1280737 C61.9506676,41.6155611 61.3901346,40.2622603 60.3491446,39.2273833 C59.7886116,38.7497477 59.0679262,38.3517181 58.3472408,38.1129003 Z M31.9221108,21.8732912 C32.4025677,21.3956556 33.0431769,21.2364438 33.60371,21.2364438 C34.2443192,21.2364438 34.8048523,21.5548675 35.205233,21.9528971 C35.4454615,22.2713208 35.6056138,22.6693505 35.6056138,23.0673801 L22.3930488,36.5207818 L21.992668,31.6648202 L31.9221108,21.8732912 Z M7.01842765,59.208471 C3.73530543,55.944628 2.53416316,51.2478783 3.73530543,46.8695523 L3.73530543,46.8695523 C4.6161431,43.6853152 5.01652386,40.3418663 5.01652386,36.9984173 L4.93644771,25.4555579 C4.93644771,24.9779223 5.33682846,24.5002868 5.81728537,24.5002868 C7.89926532,24.261469 9.7410168,25.7739816 9.98124526,27.7641298 L10.1413976,29.674672 L10.2214737,38.0332944 C10.2214737,41.0583196 9.82109295,44.0833448 9.18048374,46.7899464 C9.18048374,46.8695523 9.10040759,46.8695523 9.10040759,46.9491582 C7.49888456,52.5215731 9.10040759,58.4920176 13.1842913,62.5519199 C13.5846721,62.9499495 14.065129,63.3479792 14.4655097,63.7460088 C11.6628444,62.7907377 9.10040759,61.2782251 7.01842765,59.208471 Z M58.0269362,44.7997982 L42.572239,60.243348 C35.1251569,67.6466992 22.9535818,67.6466992 15.5064997,60.243348 C12.3034537,57.0591109 11.0222352,52.3623612 12.2233775,47.9840353 C12.2233775,47.9840353 12.2233775,47.9044293 12.2233775,47.9044293 C13.1042152,44.6405863 13.5045959,41.3767433 13.5045959,38.0332944 L13.5045959,38.0332944 C13.5045959,38.0332944 13.5045959,38.0332944 13.5045959,38.0332944 L13.5045959,29.674672 L13.5045959,29.674672 L13.5045959,29.4358543 L13.5045959,26.490435 C13.5045959,26.0127994 13.9049767,25.5351638 14.3854336,25.5351638 C16.4674135,25.296346 18.309165,26.8088587 18.5493935,28.7990068 L19.1099265,36.8392055 C19.2700788,38.0332944 20.0708404,39.0681714 21.1919065,39.4662011 C22.3930488,39.8642307 23.594191,39.545807 24.4750287,38.7497477 L40.3301067,22.9877742 C40.8105636,22.5101386 41.2109444,22.2713208 42.0117059,22.3509267 C42.6523151,22.3509267 43.2128482,22.6693505 43.6132289,23.0673801 C44.3339143,23.8634394 44.2538381,25.4555579 43.3730005,26.3312231 L43.3730005,26.3312231 C43.3730005,26.3312231 43.3730005,26.3312231 43.3730005,26.3312231 L31.6018062,38.1129003 C30.961197,38.7497477 30.961197,39.7846248 31.6018062,40.4214722 C31.9221108,40.7398959 32.3224916,40.8991078 32.8029485,40.8991078 C33.2033292,40.8991078 33.6837861,40.7398959 34.0040907,40.4214722 L45.8553612,28.639795 C45.8553612,28.639795 45.8553612,28.639795 45.8553612,28.639795 L48.9783311,25.5351638 C49.8591688,24.6594986 51.3005395,24.6594986 52.1813771,25.5351638 C52.5817579,25.9331935 52.8219864,26.490435 52.8219864,27.1272824 C52.8219864,27.7641298 52.5817579,28.3213713 52.1813771,28.7194009 L37.1270606,43.6057093 C36.4864514,44.2425567 36.4864514,45.2774337 37.1270606,45.9142812 C37.4473653,46.2327049 37.847746,46.3919167 38.3282029,46.3919167 C38.8086598,46.3919167 39.2090406,46.2327049 39.5293452,45.9142812 L47.9373411,37.5556588 L52.4216056,33.0977269 C53.3024433,32.2220617 54.743814,32.2220617 55.6246517,33.0977269 C56.5054893,33.9733921 56.5054893,35.4062988 55.6246517,36.281964 L52.5817579,39.3069892 C52.5817579,39.3069892 52.5817579,39.3069892 52.5817579,39.3069892 L50.3396257,41.4563492 L42.6523151,49.0985182 C42.0117059,49.7353657 42.0117059,50.7702427 42.6523151,51.4070901 C42.9726197,51.7255138 43.3730005,51.8847257 43.8534574,51.8847257 C44.3339143,51.8847257 44.7342951,51.7255138 45.0545997,51.4070901 L54.9039663,41.6155611 C55.784804,40.7398959 57.2261747,40.7398959 58.1070124,41.6155611 C58.5073931,42.0135907 58.7476216,42.5708322 58.7476216,43.2076796 C58.7476216,43.8445271 58.5073931,44.4017685 58.0269362,44.7997982 Z M47.6971127,10.8876733 L51.7809964,2.21062721 C52.1813771,1.41456793 53.142291,1.0165383 53.9430525,1.41456793 C54.743814,1.81259757 55.1441948,2.76786869 54.743814,3.56392796 L50.7400064,12.3205799 C50.4197018,12.9574274 49.8591688,13.2758511 49.2185595,13.2758511 C48.9783311,13.2758511 48.7381026,13.1962451 48.4978742,13.1166392 C47.6971127,12.7186096 47.3768081,11.6837325 47.6971127,10.8876733 Z M39.1289644,2.05141535 C38.888736,1.17575015 39.449269,0.300084956 40.3301067,0.0612671747 C41.2109444,-0.177550606 42.091782,0.300084956 42.3320105,1.17575015 L44.8143712,10.4100377 C45.0545997,11.2857029 44.4940666,12.1613681 43.6132289,12.4001859 C43.4530766,12.4001859 43.2929243,12.4797918 43.2128482,12.4797918 C42.4921628,12.4797918 41.8515536,12.0021562 41.6113251,11.2857029 L39.1289644,2.05141535 Z M63.0717338,13.1962451 L54.3434332,17.2561474 C54.1032048,17.3357533 53.8629763,17.4153593 53.6227479,17.4153593 C52.9821387,17.4153593 52.4216056,17.0969356 52.101301,16.4600881 C51.7009202,15.6640289 52.101301,14.6291518 52.9020625,14.3107281 L61.630363,10.2508258 C62.4311246,9.8527962 63.4721145,10.2508258 63.7924191,11.0468851 C64.272876,11.8429444 63.8724953,12.7982155 63.0717338,13.1962451 Z" id="Shape"></path>
        </g>
    </g>
</svg>