<?xml version="1.0" encoding="UTF-8"?>
<svg width="72px" height="72px" viewBox="0 0 72 72" version="1.1" xmlns="http://www.w3.org/2000/svg" xmlns:xlink="http://www.w3.org/1999/xlink">
    <title>comment</title>
    <g id="comment" stroke="none" stroke-width="1" fill="none" fill-rule="evenodd">
        <g id="noun_comment_3363331" transform="translate(3.000000, 5.000000)" fill="#000000" fill-rule="nonzero">
            <g id="Group">
                <path d="M30.4,15.9450172 L43.8,15.9450172 L43.8,10.5635739 C43.8,6.57731959 40.6,3.38831615 36.6,3.38831615 L10.6,3.38831615 C6.6,3.38831615 3.4,6.57731959 3.4,10.5635739 L3.4,23.7182131 C3.4,27.1065292 5.8,30.0962199 9.2,30.6941581 L10.6,32.4879725 L10.6,36.6735395 L15.6,31.4914089 L16.8,30.8934708 L20,30.8934708 L20,26.5085911 C20,20.7285223 24.6,15.9450172 30.4,15.9450172 Z M47.2,15.9450172 L56.4,15.9450172 C62.2,15.9450172 67,20.7285223 67,26.5085911 L67,39.6632302 C67,44.2474227 64,48.233677 59.8,49.628866 L59.8,56.8041237 L56.8,58 L49.4,50.2268041 L30.4,50.2268041 C24.6,50.2268041 20,45.443299 20,39.6632302 L20,34.2817869 L17.6,34.2817869 L10.2,42.0549828 L7.2,40.8591065 L7.2,33.6838488 C3,32.2886598 0,28.3024055 0,23.7182131 L0,10.5635739 C0,4.78350515 4.8,0 10.6,0 L36.6,0 C42.4,0 47.2,4.78350515 47.2,10.5635739 L47.2,15.9450172 Z M56.4,19.3333333 C47.8,19.3333333 39.2,19.3333333 30.4,19.3333333 C26.6,19.3333333 23.4,22.5223368 23.4,26.5085911 C23.4,30.8934708 23.4,35.2783505 23.4,39.6632302 C23.4,43.6494845 26.6,46.838488 30.4,46.838488 L50.2,46.838488 L51.4,47.4364261 L56.4,52.6185567 L56.4,48.4329897 L57.8,46.6391753 C61.2,46.0412371 63.6,43.2508591 63.6,39.6632302 L63.6,26.5085911 C63.6,22.5223368 60.4,19.3333333 56.4,19.3333333 Z" id="Shape"></path>
                <polygon id="Path" points="31.0064516 31.2013643 56.9419355 31.2013643 56.9419355 34.5896805 31.0064516 34.5896805"></polygon>
                <polygon id="Path-Copy-3" points="31.0064516 25.1416628 56.9419355 25.1416628 56.9419355 28.529979 31.0064516 28.529979"></polygon>
                <polygon id="Path" points="31.0064516 37.2238806 56.9419355 37.2238806 56.9419355 40.6121967 31.0064516 40.6121967"></polygon>
            </g>
        </g>
    </g>
</svg>