<?xml version="1.0" encoding="UTF-8"?>
<svg width="800px" height="77px" viewBox="0 0 800 77" version="1.1" xmlns="http://www.w3.org/2000/svg" xmlns:xlink="http://www.w3.org/1999/xlink">
    <title>hr</title>
    <g id="hr" stroke="none" stroke-width="1" fill="none" fill-rule="evenodd">
        <g id="Group" transform="translate(396.894020, 11.152620)" fill="#96C6A7">
            <path d="M46.4746193,44.0996822 C44.8317563,38.5201565 44.2168929,27.3443574 46.6888633,27.2749554 C46.708823,23.228403 46.5685779,19.7234105 46.5092773,16.4315134 C43.0872527,18.4050471 43.0180614,29.6019479 42.9645495,37.1051438 C41.2221114,32.0030932 39.3226493,17.0312581 46.5092773,12.8681771 C46.6121436,11.38126 46.5922232,10.556416 46.641999,9.01884271 C42.285337,8.88744622 38.2750861,8.94849814 35.1101817,9.05780451 C33.090625,17.0242588 34.9631432,30.416151 41.7276818,37.9525945 C36.0337795,30.7073497 30.4293766,23.8537057 31.5519678,9.09692044 C27.0000575,9.07358673 22.1634041,9.01096155 17.4215659,9.09692044 C17.5434271,15.8364471 29.8110338,30.9356657 38.9021105,38.2820319 C34.7799719,35.1842455 19.2011314,26.8013497 13.4339991,9.09692044 C11.5530865,9.2337047 9.3057494,8.84304699 6.75399638,9.04353709 C6.57314759,14.1233682 6.88675416,15.9506102 6.91955286,21.8951876 C13.1814532,26.7025619 28.6125614,34.4973498 37.7590292,39.3561379 C29.9070175,36.6846578 19.7058659,33.2109234 7.14500337,26.1143996 C6.34651159,30.3926456 6.76789186,36.990895 7.14500337,39.8659516 C13.737104,38.6725654 31.111442,37.0452534 37.3162924,40.664915 C32.1924537,40.0767997 18.5528627,37.1469909 8.98943511,44.0591036 C14.8286106,44.0684262 26.5100413,44.2205125 31.5519678,44.4372701 C35.2251752,41.6235341 38.3942551,42.2681095 46.4746193,44.0996822 Z" id="Path-Copy" transform="translate(26.690791, 26.690791) scale(-1, 1) rotate(135.000000) translate(-26.690791, -26.690791) "></path>
            <path d="M46.8711526,24.568223 C71.3974401,25.8673137 213.797906,26.2601812 240.946606,26.4962563 C208.435163,28.4154128 59.105581,29.0199589 48.7278038,30.9213274 C48.3257703,28.9384925 46.6305504,26.2076598 46.8711526,24.568223 Z" id="Path-10"></path>
        </g>
        <g id="Group-Copy" transform="translate(271.247270, 37.843412) scale(-1, 1) translate(-271.247270, -37.843412) translate(150.773967, 11.152620)" fill="#96C6A7">
            <path d="M46.4746193,44.0996822 C44.8317563,38.5201565 44.2168929,27.3443574 46.6888633,27.2749554 C46.708823,23.228403 46.5685779,19.7234105 46.5092773,16.4315134 C43.0872527,18.4050471 43.0180614,29.6019479 42.9645495,37.1051438 C41.2221114,32.0030932 39.3226493,17.0312581 46.5092773,12.8681771 C46.6121436,11.38126 46.5922232,10.556416 46.641999,9.01884271 C42.285337,8.88744622 38.2750861,8.94849814 35.1101817,9.05780451 C33.090625,17.0242588 34.9631432,30.416151 41.7276818,37.9525945 C36.0337795,30.7073497 30.4293766,23.8537057 31.5519678,9.09692044 C27.0000575,9.07358673 22.1634041,9.01096155 17.4215659,9.09692044 C17.5434271,15.8364471 29.8110338,30.9356657 38.9021105,38.2820319 C34.7799719,35.1842455 19.2011314,26.8013497 13.4339991,9.09692044 C11.5530865,9.2337047 9.3057494,8.84304699 6.75399638,9.04353709 C6.57314759,14.1233682 6.88675416,15.9506102 6.91955286,21.8951876 C13.1814532,26.7025619 28.6125614,34.4973498 37.7590292,39.3561379 C29.9070175,36.6846578 19.7058659,33.2109234 7.14500337,26.1143996 C6.34651159,30.3926456 6.76789186,36.990895 7.14500337,39.8659516 C13.737104,38.6725654 31.111442,37.0452534 37.3162924,40.664915 C32.1924537,40.0767997 18.5528627,37.1469909 8.98943511,44.0591036 C14.8286106,44.0684262 26.5100413,44.2205125 31.5519678,44.4372701 C35.2251752,41.6235341 38.3942551,42.2681095 46.4746193,44.0996822 Z" id="Path-Copy" transform="translate(26.690791, 26.690791) scale(-1, 1) rotate(135.000000) translate(-26.690791, -26.690791) "></path>
            <path d="M46.8711526,24.568223 C71.3974401,25.8673137 213.797906,26.2601812 240.946606,26.4962563 C208.435163,28.4154128 59.105581,29.0199589 48.7278038,30.9213274 C48.3257703,28.9384925 46.6305504,26.2076598 46.8711526,24.568223 Z" id="Path-10"></path>
        </g>
    </g>
</svg>