<?xml version="1.0" encoding="UTF-8"?>
<svg width="547px" height="73px" viewBox="0 0 547 73" version="1.1" xmlns="http://www.w3.org/2000/svg" xmlns:xlink="http://www.w3.org/1999/xlink">
    <title>imagine</title>
    <g id="imagine" stroke="none" stroke-width="1" fill="none" fill-rule="evenodd">
        <path d="M20.944,73 C18.128,69.032 15.856,64.712 14.128,60.04 C12.4,55.368 11.056,50.536 10.096,45.544 C9.136,40.552 8.464,35.528 8.08,30.472 C7.696,25.416 7.44,20.488 7.312,15.688 C7.312,14.152 7.392,12.856 7.552,11.8 C7.712,10.744 8.064,9.912 8.608,9.304 C9.152,8.696 9.888,8.248 10.816,7.96 C11.744,7.672 12.976,7.528 14.512,7.528 C15.6,7.528 16.448,7.688 17.056,8.008 C17.664,8.328 18.16,9 18.544,10.024 L18.544,10.024 L19.408,-0.056 C18.704,-0.12 18.064,-0.152 17.488,-0.152 L17.488,-0.152 L15.76,-0.152 C11.984,-0.152 9.04,0.312 6.928,1.24 C4.816,2.168 3.216,3.464 2.128,5.128 C1.04,6.792 0.368,8.776 0.112,11.08 C-0.144,13.384 -0.272,15.912 -0.272,18.664 C-0.272,23.08 -0.064,27.656 0.352,32.392 C0.768,37.128 1.456,41.848 2.416,46.552 C3.376,51.256 4.624,55.864 6.16,60.376 C7.696,64.888 9.584,69.096 11.824,73 L11.824,73 L20.944,73 Z M30.12,73 L30.12,55.912 C30.12,54.696 30.152,53.384 30.216,51.976 C30.28,50.568 30.312,49.064 30.312,47.464 C31.016,47.656 31.88,48.024 32.904,48.568 C33.928,49.112 34.968,49.736 36.024,50.44 C37.08,51.144 38.072,51.88 39,52.648 C39.928,53.416 40.68,54.184 41.256,54.952 L41.256,54.952 L41.256,73 L49.032,73 L49.032,55.912 C49.032,53.224 48.888,49.992 48.6,46.216 C48.312,42.44 47.88,38.456 47.304,34.264 C46.728,30.072 46.04,25.864 45.24,21.64 C44.44,17.416 43.528,13.576 42.504,10.12 C42.056,8.712 41.576,7.432 41.064,6.28 C40.552,5.128 40.296,4.2 40.296,3.496 C40.296,2.408 40.712,1.256 41.544,0.04 L41.544,0.04 L29.832,0.04 C30.664,1.32 31.08,2.504 31.08,3.592 C31.08,4.296 30.808,5.224 30.264,6.376 C29.72,7.528 29.256,8.776 28.872,10.12 C27.848,13.64 26.936,17.496 26.136,21.688 C25.336,25.88 24.648,30.072 24.072,34.264 C23.496,38.456 23.064,42.44 22.776,46.216 C22.488,49.992 22.344,53.224 22.344,55.912 L22.344,55.912 L22.344,73 L30.12,73 Z M40.872,45.832 C38.952,44.168 37.192,42.904 35.592,42.04 C33.992,41.176 32.488,40.456 31.08,39.88 C31.528,35.656 32.152,31.368 32.952,27.016 C33.752,22.664 34.696,18.472 35.784,14.44 C36.424,16.936 37.016,19.512 37.56,22.168 C38.104,24.824 38.6,27.512 39.048,30.232 C39.496,32.952 39.864,35.64 40.152,38.296 C40.44,40.952 40.68,43.464 40.872,45.832 Z M41.256,51.688 C38.952,49.768 36.92,48.312 35.16,47.32 C33.4,46.328 31.88,45.672 30.6,45.352 C30.664,44.84 30.712,44.328 30.744,43.816 C30.776,43.304 30.792,42.728 30.792,42.088 C33.224,43.112 35.224,44.2 36.792,45.352 C38.36,46.504 39.816,47.72 41.16,49 L41.16,49 L41.16,50.584 C41.16,51 41.192,51.368 41.256,51.688 Z M62.72,73 C61.248,72.04 60.512,70.376 60.512,68.008 L60.512,68.008 L60.512,60.424 C60.512,58.12 60.8,56.072 61.376,54.28 C61.952,52.488 62.56,51.112 63.2,50.152 C63.904,49.256 64.56,48.28 65.168,47.224 C65.776,46.168 66.336,45 66.848,43.72 C67.36,46.984 67.664,50.248 67.76,53.512 C67.856,56.776 67.904,60.04 67.904,63.304 C67.904,63.88 67.888,64.712 67.856,65.8 C67.824,66.888 67.856,67.96 67.952,69.016 C68.048,70.072 68.208,71 68.432,71.8 C68.656,72.6 69.056,73 69.632,73 L69.632,73 L77.6,73 C77.024,72.808 76.608,72.44 76.352,71.896 C76.096,71.352 75.904,70.744 75.776,70.072 C75.648,69.4 75.584,68.76 75.584,68.152 L75.584,68.152 L75.584,63.4 C75.584,60.52 75.552,57.656 75.488,54.808 C75.424,51.96 75.248,49.128 74.96,46.312 C74.672,43.496 74.208,40.68 73.568,37.864 C72.928,35.048 72.032,32.2 70.88,29.32 C71.52,25.672 72.08,21.96 72.56,18.184 C73.04,14.408 73.28,11.048 73.28,8.104 C73.28,6.184 72.832,4.68 71.936,3.592 C71.04,2.504 69.904,1.704 68.528,1.192 C67.152,0.68 65.68,0.36 64.112,0.232 C62.544,0.104 61.088,0.04 59.744,0.04 L59.744,0.04 L50.432,0.04 C51.584,1.064 52.256,2.92 52.448,5.608 L52.448,5.608 L52.832,68.008 C52.832,70.376 52.064,72.04 50.528,73 L50.528,73 L62.72,73 Z M60.32,39.304 L60.128,7.72 C61.92,7.72 63.264,7.8 64.16,7.96 C65.056,8.12 65.504,8.456 65.504,8.968 C65.504,11.912 65.344,15 65.024,18.232 C64.704,21.464 64.288,24.52 63.776,27.4 C63.264,30.28 62.704,32.792 62.096,34.936 C61.488,37.08 60.896,38.536 60.32,39.304 L60.32,39.304 Z M86.104,73 C88.856,73 91.192,71.896 93.112,69.688 C95.032,67.48 96.648,64.68 97.96,61.288 C99.272,57.896 100.28,54.216 100.984,50.248 C101.688,46.28 102.168,42.504 102.424,38.92 C102.68,35.784 102.904,33.208 103.096,31.192 C103.288,29.176 103.448,27.336 103.576,25.672 C103.704,24.008 103.8,22.312 103.864,20.584 C103.928,18.856 103.96,16.712 103.96,14.152 C103.96,4.744 99.032,0.04 89.176,0.04 L89.176,0.04 L78.136,0.04 C79.416,1.704 80.056,3.272 80.056,4.744 L80.056,4.744 L80.056,68.008 C80.056,70.376 79.32,72.04 77.848,73 L77.848,73 L86.104,73 Z M87.736,65.032 L87.736,7.912 C89.848,7.976 91.48,8.136 92.632,8.392 C93.784,8.648 94.648,9.048 95.224,9.592 C95.8,10.136 96.136,10.872 96.232,11.8 C96.328,12.728 96.376,13.896 96.376,15.304 C96.376,18.056 96.28,20.44 96.088,22.456 C95.896,24.472 95.736,25.928 95.608,26.824 C95.416,28.296 95.24,30.168 95.08,32.44 C94.92,34.712 94.712,37.144 94.456,39.736 C94.2,42.328 93.896,44.968 93.544,47.656 C93.192,50.344 92.76,52.856 92.248,55.192 C91.736,57.528 91.112,59.576 90.376,61.336 C89.64,63.096 88.76,64.328 87.736,65.032 L87.736,65.032 Z M113.712,73 L113.712,55.912 C113.712,54.696 113.744,53.384 113.808,51.976 C113.872,50.568 113.904,49.064 113.904,47.464 C114.608,47.656 115.472,48.024 116.496,48.568 C117.52,49.112 118.56,49.736 119.616,50.44 C120.672,51.144 121.664,51.88 122.592,52.648 C123.52,53.416 124.272,54.184 124.848,54.952 L124.848,54.952 L124.848,73 L132.624,73 L132.624,55.912 C132.624,53.224 132.48,49.992 132.192,46.216 C131.904,42.44 131.472,38.456 130.896,34.264 C130.32,30.072 129.632,25.864 128.832,21.64 C128.032,17.416 127.12,13.576 126.096,10.12 C125.648,8.712 125.168,7.432 124.656,6.28 C124.144,5.128 123.888,4.2 123.888,3.496 C123.888,2.408 124.304,1.256 125.136,0.04 L125.136,0.04 L113.424,0.04 C114.256,1.32 114.672,2.504 114.672,3.592 C114.672,4.296 114.4,5.224 113.856,6.376 C113.312,7.528 112.848,8.776 112.464,10.12 C111.44,13.64 110.528,17.496 109.728,21.688 C108.928,25.88 108.24,30.072 107.664,34.264 C107.088,38.456 106.656,42.44 106.368,46.216 C106.08,49.992 105.936,53.224 105.936,55.912 L105.936,55.912 L105.936,73 L113.712,73 Z M124.464,45.832 C122.544,44.168 120.784,42.904 119.184,42.04 C117.584,41.176 116.08,40.456 114.672,39.88 C115.12,35.656 115.744,31.368 116.544,27.016 C117.344,22.664 118.288,18.472 119.376,14.44 C120.016,16.936 120.608,19.512 121.152,22.168 C121.696,24.824 122.192,27.512 122.64,30.232 C123.088,32.952 123.456,35.64 123.744,38.296 C124.032,40.952 124.272,43.464 124.464,45.832 Z M124.848,51.688 C122.544,49.768 120.512,48.312 118.752,47.32 C116.992,46.328 115.472,45.672 114.192,45.352 C114.256,44.84 114.304,44.328 114.336,43.816 C114.368,43.304 114.384,42.728 114.384,42.088 C116.816,43.112 118.816,44.2 120.384,45.352 C121.952,46.504 123.408,47.72 124.752,49 L124.752,49 L124.752,50.584 C124.752,51 124.784,51.368 124.848,51.688 Z M146.312,73 C144.776,72.04 144.008,70.376 144.008,68.008 L144.008,68.008 L144.008,12.52 C144.904,15.016 145.72,17.832 146.456,20.968 C147.192,24.104 147.8,27.208 148.28,30.28 C148.76,33.352 149.128,36.232 149.384,38.92 C149.64,41.608 149.768,43.752 149.768,45.352 L149.768,45.352 L157.448,45.352 C157.448,43.432 157.544,41.224 157.736,38.728 C157.928,36.232 158.248,33.56 158.696,30.712 C159.144,27.864 159.736,24.888 160.472,21.784 C161.208,18.68 162.12,15.56 163.208,12.424 L163.208,12.424 L163.208,68.008 C163.208,70.376 162.472,72.04 161,73 L161,73 L173.192,73 C171.656,72.04 170.888,70.376 170.888,68.008 L170.888,68.008 L170.888,4.744 C170.888,3.272 171.528,1.704 172.808,0.04 L172.808,0.04 L166.76,0.04 C165.16,0.04 163.688,0.504 162.344,1.432 C161,2.36 159.784,3.624 158.696,5.224 C157.608,6.824 156.632,8.664 155.768,10.744 C154.904,12.824 154.184,15.016 153.608,17.32 C153.288,16.04 152.792,14.424 152.12,12.472 C151.448,10.52 150.584,8.616 149.528,6.76 C148.472,4.904 147.192,3.32 145.688,2.008 C144.184,0.696 142.44,0.04 140.456,0.04 L140.456,0.04 L134.408,0.04 C135.688,1.704 136.328,3.272 136.328,4.744 L136.328,4.744 L136.328,68.008 C136.328,70.376 135.592,72.04 134.12,73 L134.12,73 L146.312,73 Z M190.816,57.064 C195.936,57.064 200.032,52.36 203.104,42.952 C203.488,41.736 203.904,40.264 204.352,38.536 C204.8,36.808 205.216,34.968 205.6,33.016 C205.984,31.064 206.304,29 206.56,26.824 C206.816,24.648 206.944,22.504 206.944,20.392 C206.944,17.128 206.592,14.056 205.888,11.176 C205.184,8.296 203.936,5.928 202.144,4.072 C199.584,1.32 195.808,-0.056 190.816,-0.056 C187.68,-0.056 185.088,0.472 183.04,1.528 C180.992,2.584 179.344,4.024 178.096,5.848 C176.848,7.672 175.968,9.8 175.456,12.232 C174.944,14.664 174.688,17.224 174.688,19.912 C174.688,22.152 174.8,24.344 175.024,26.488 C175.248,28.632 175.552,30.696 175.936,32.68 C176.32,34.664 176.736,36.536 177.184,38.296 C177.632,40.056 178.08,41.608 178.528,42.952 C181.472,52.36 185.568,57.064 190.816,57.064 Z M190.816,49.384 C189.472,49.384 187.84,46.44 185.92,40.552 C185.664,39.784 185.328,38.616 184.912,37.048 C184.496,35.48 184.096,33.704 183.712,31.72 C183.328,29.736 182.992,27.64 182.704,25.432 C182.416,23.224 182.272,21.128 182.272,19.144 C182.272,17.416 182.384,15.848 182.608,14.44 C182.832,13.032 183.264,11.832 183.904,10.84 C184.544,9.848 185.424,9.08 186.544,8.536 C187.664,7.992 189.088,7.72 190.816,7.72 C193.568,7.72 195.488,8.296 196.576,9.448 C197.536,10.472 198.208,11.768 198.592,13.336 C198.976,14.904 199.168,16.904 199.168,19.336 C199.168,20.36 199.152,21.368 199.12,22.36 C199.088,23.352 199.008,24.36 198.88,25.384 C198.304,29.992 197.616,33.832 196.816,36.904 C196.016,39.976 195.232,42.44 194.464,44.296 C193.696,46.152 192.976,47.464 192.304,48.232 C191.632,49 191.136,49.384 190.816,49.384 Z M190.816,73 C194.464,73 196.288,71.24 196.288,67.72 C196.288,64.2 194.464,62.44 190.816,62.44 C187.232,62.44 185.44,64.2 185.44,67.72 C185.44,71.24 187.232,73 190.816,73 Z M220.536,73 C219,72.04 218.232,70.376 218.232,68.008 L218.232,68.008 L218.232,8.968 C220.216,10.504 221.96,12.792 223.464,15.832 C224.968,18.872 226.216,22.28 227.208,26.056 C228.2,29.832 228.936,33.752 229.416,37.816 C229.896,41.88 230.136,45.672 230.136,49.192 L230.136,49.192 L230.136,68.008 C230.136,70.312 229.336,71.976 227.736,73 L227.736,73 L240.024,73 C238.488,72.04 237.72,70.376 237.72,68.008 L237.72,68.008 L237.72,4.744 C237.72,3.464 238.36,1.896 239.64,0.04 L239.64,0.04 L228.12,0.04 C229.464,1.768 230.136,3.336 230.136,4.744 L230.136,4.744 L230.136,12.232 C228.664,9.48 227.24,7.288 225.864,5.656 C224.488,4.024 223.032,2.792 221.496,1.96 C219.96,1.128 218.296,0.6 216.504,0.376 C214.712,0.152 212.696,0.04 210.456,0.04 L210.456,0.04 L208.632,0.04 C209.912,1.704 210.552,3.272 210.552,4.744 L210.552,4.744 L210.552,68.008 C210.552,70.376 209.816,72.04 208.344,73 L208.344,73 L220.536,73 Z M262.448,73 C259.632,69.032 257.36,64.712 255.632,60.04 C253.904,55.368 252.56,50.536 251.6,45.544 C250.64,40.552 249.968,35.528 249.584,30.472 C249.2,25.416 248.944,20.488 248.816,15.688 C248.816,14.152 248.896,12.856 249.056,11.8 C249.216,10.744 249.568,9.912 250.112,9.304 C250.656,8.696 251.392,8.248 252.32,7.96 C253.248,7.672 254.48,7.528 256.016,7.528 C257.104,7.528 257.952,7.688 258.56,8.008 C259.168,8.328 259.664,9 260.048,10.024 L260.048,10.024 L260.912,-0.056 C260.208,-0.12 259.568,-0.152 258.992,-0.152 L258.992,-0.152 L257.264,-0.152 C253.488,-0.152 250.544,0.312 248.432,1.24 C246.32,2.168 244.72,3.464 243.632,5.128 C242.544,6.792 241.872,8.776 241.616,11.08 C241.36,13.384 241.232,15.912 241.232,18.664 C241.232,23.08 241.44,27.656 241.856,32.392 C242.272,37.128 242.96,41.848 243.92,46.552 C244.88,51.256 246.128,55.864 247.664,60.376 C249.2,64.888 251.088,69.096 253.328,73 L253.328,73 L262.448,73 Z M274.312,73 C272.776,72.04 272.008,70.376 272.008,68.008 L272.008,68.008 L272.008,19.912 C273.544,19.336 275.144,19.048 276.808,19.048 C278.536,19.048 280.232,19.368 281.896,20.008 L281.896,20.008 L281.896,68.008 C281.896,70.312 281.128,71.976 279.592,73 L279.592,73 L291.688,73 C290.216,71.912 289.48,70.248 289.48,68.008 L289.48,68.008 L289.48,4.744 C289.48,3.336 290.152,1.768 291.496,0.04 L291.496,0.04 L279.88,0.04 C281.224,1.768 281.896,3.336 281.896,4.744 L281.896,4.744 L281.896,12.808 C280.36,12.36 278.728,12.136 277,12.136 C275.208,12.136 273.544,12.36 272.008,12.808 L272.008,12.808 L272.008,4.744 C272.008,3.272 272.648,1.704 273.928,0.04 L273.928,0.04 L262.408,0.04 C263.688,1.704 264.328,3.272 264.328,4.744 L264.328,4.744 L264.328,68.008 C264.328,70.376 263.592,72.04 262.12,73 L262.12,73 L274.312,73 Z M281.896,17.704 C281,17.384 280.152,17.176 279.352,17.08 C278.552,16.984 277.736,16.936 276.904,16.936 C275.176,16.936 273.544,17.16 272.008,17.608 L272.008,17.608 L272.008,15.112 C273.608,14.536 275.272,14.248 277,14.248 C278.6,14.248 280.232,14.536 281.896,15.112 L281.896,15.112 L281.896,17.704 Z M300.864,73 L300.864,55.912 C300.864,54.696 300.896,53.384 300.96,51.976 C301.024,50.568 301.056,49.064 301.056,47.464 C301.76,47.656 302.624,48.024 303.648,48.568 C304.672,49.112 305.712,49.736 306.768,50.44 C307.824,51.144 308.816,51.88 309.744,52.648 C310.672,53.416 311.424,54.184 312,54.952 L312,54.952 L312,73 L319.776,73 L319.776,55.912 C319.776,53.224 319.632,49.992 319.344,46.216 C319.056,42.44 318.624,38.456 318.048,34.264 C317.472,30.072 316.784,25.864 315.984,21.64 C315.184,17.416 314.272,13.576 313.248,10.12 C312.8,8.712 312.32,7.432 311.808,6.28 C311.296,5.128 311.04,4.2 311.04,3.496 C311.04,2.408 311.456,1.256 312.288,0.04 L312.288,0.04 L300.576,0.04 C301.408,1.32 301.824,2.504 301.824,3.592 C301.824,4.296 301.552,5.224 301.008,6.376 C300.464,7.528 300,8.776 299.616,10.12 C298.592,13.64 297.68,17.496 296.88,21.688 C296.08,25.88 295.392,30.072 294.816,34.264 C294.24,38.456 293.808,42.44 293.52,46.216 C293.232,49.992 293.088,53.224 293.088,55.912 L293.088,55.912 L293.088,73 L300.864,73 Z M311.616,45.832 C309.696,44.168 307.936,42.904 306.336,42.04 C304.736,41.176 303.232,40.456 301.824,39.88 C302.272,35.656 302.896,31.368 303.696,27.016 C304.496,22.664 305.44,18.472 306.528,14.44 C307.168,16.936 307.76,19.512 308.304,22.168 C308.848,24.824 309.344,27.512 309.792,30.232 C310.24,32.952 310.608,35.64 310.896,38.296 C311.184,40.952 311.424,43.464 311.616,45.832 Z M312,51.688 C309.696,49.768 307.664,48.312 305.904,47.32 C304.144,46.328 302.624,45.672 301.344,45.352 C301.408,44.84 301.456,44.328 301.488,43.816 C301.52,43.304 301.536,42.728 301.536,42.088 C303.968,43.112 305.968,44.2 307.536,45.352 C309.104,46.504 310.56,47.72 311.904,49 L311.904,49 L311.904,50.584 C311.904,51 311.936,51.368 312,51.688 Z M333.56,73 C332.024,72.04 331.256,70.376 331.256,68.008 L331.256,68.008 L331.256,4.744 C331.256,3.272 331.896,1.704 333.176,0.04 L333.176,0.04 L321.656,0.04 C322.936,1.704 323.576,3.272 323.576,4.744 L323.576,4.744 L323.576,68.008 C323.576,70.376 322.84,72.04 321.368,73 L321.368,73 L333.56,73 Z" id="Cardamonchai" fill="#96C6A7" fill-rule="nonzero"></path>
        <g id="IMAGINE" transform="translate(349.100000, 32.008000)" fill="#FFFFFF" fill-rule="nonzero">
            <polygon id="I" points="0 40.992 0 0.732 1.952 0.732 1.952 40.992"></polygon>
            <path d="M10.8673846,40.992 L10.8673846,0.732 L14.0393846,0.732 L22.7013846,25.132 L25.9953846,34.282 L26.2393846,34.282 C26.8087179,32.7366667 27.3373846,31.2116667 27.8253846,29.707 C28.3133846,28.2023333 28.8420513,26.6773333 29.4113846,25.132 L38.0733846,0.732 L41.2453846,0.732 L41.2453846,40.992 L39.2933846,40.992 L39.2933846,12.932 C39.2933846,11.346 39.3137179,9.61766667 39.3543846,7.747 C39.3950513,5.87633333 39.4560513,4.10733333 39.5373846,2.44 L39.2933846,2.44 L36.1823846,11.346 L27.0933846,36.478 L25.0193846,36.478 L15.8693846,11.346 L12.6973846,2.44 L12.4533846,2.44 C12.5347179,4.10733333 12.5957179,5.87633333 12.6363846,7.747 C12.6770513,9.61766667 12.6973846,11.346 12.6973846,12.932 L12.6973846,40.992 L10.8673846,40.992 Z" id="M"></path>
            <path d="M55.1627692,16.836 L52.2957692,24.888 L67.4847692,24.888 L64.6787692,16.836 C63.8247692,14.396 63.0216026,12.078 62.2692692,9.882 C61.5169359,7.686 60.7747692,5.32733333 60.0427692,2.806 L59.7987692,2.806 C59.0667692,5.32733333 58.3246026,7.686 57.5722692,9.882 C56.8199359,12.078 56.0167692,14.396 55.1627692,16.836 Z M44.6707692,40.992 L59.0667692,0.732 L60.7747692,0.732 L75.1707692,40.992 L73.0967692,40.992 L68.0947692,26.596 L51.6857692,26.596 L46.6227692,40.992 L44.6707692,40.992 Z" id="A"></path>
            <path d="M92.2601538,41.724 C89.6981538,41.724 87.3699872,41.2258333 85.2756538,40.2295 C83.1813205,39.2331667 81.4021538,37.82 79.9381538,35.99 C78.4741538,34.16 77.3354872,31.9538333 76.5221538,29.3715 C75.7088205,26.7891667 75.3021538,23.912 75.3021538,20.74 C75.3021538,17.568 75.7189872,14.701 76.5526538,12.139 C77.3863205,9.577 78.5656538,7.40133333 80.0906538,5.612 C81.6156538,3.82266667 83.4659872,2.44 85.6416538,1.464 C87.8173205,0.488 90.2268205,0 92.8701538,0 C94.2121538,0 95.4321538,0.142333333 96.5301538,0.427 C97.6281538,0.711666667 98.6143205,1.08783333 99.4886538,1.5555 C100.362987,2.02316667 101.135654,2.54166667 101.806654,3.111 C102.477654,3.68033333 103.077487,4.22933333 103.606154,4.758 L102.386154,6.1 C101.328821,4.92066667 100.047821,3.91416667 98.5431538,3.0805 C97.0384872,2.24683333 95.1474872,1.83 92.8701538,1.83 C90.4708205,1.83 88.3154872,2.26716667 86.4041538,3.1415 C84.4928205,4.01583333 82.8661538,5.2765 81.5241538,6.9235 C80.1821538,8.5705 79.1553205,10.5631667 78.4436538,12.9015 C77.7319872,15.2398333 77.3761538,17.8526667 77.3761538,20.74 C77.3761538,23.6273333 77.7218205,26.2503333 78.4131538,28.609 C79.1044872,30.9676667 80.0906538,32.9806667 81.3716538,34.648 C82.6526538,36.3153333 84.2183205,37.6065 86.0686538,38.5215 C87.9189872,39.4365 90.0234872,39.894 92.3821538,39.894 C94.3341538,39.894 96.1641538,39.6093333 97.8721538,39.04 C99.5801538,38.4706667 100.962821,37.6573333 102.020154,36.6 L102.020154,23.302 L92.0161538,23.302 L92.0161538,21.594 L103.972154,21.594 L103.972154,37.21 C102.752154,38.552 101.155987,39.6398333 99.1836538,40.4735 C97.2113205,41.3071667 94.9034872,41.724 92.2601538,41.724 Z" id="G"></path>
            <polygon id="I" points="111.301538 40.992 111.301538 0.732 113.253538 0.732 113.253538 40.992"></polygon>
            <path d="M122.168923,40.992 L122.168923,0.732 L124.242923,0.732 L142.054923,30.256 L146.690923,38.186 L146.934923,38.186 C146.85359,36.234 146.79259,34.3328333 146.751923,32.4825 C146.711256,30.6321667 146.690923,28.7513333 146.690923,26.84 L146.690923,0.732 L148.520923,0.732 L148.520923,40.992 L146.446923,40.992 L128.634923,11.468 L123.998923,3.538 L123.754923,3.538 C123.836256,5.44933333 123.897256,7.27933333 123.937923,9.028 C123.97859,10.7766667 123.998923,12.6066667 123.998923,14.518 L123.998923,40.992 L122.168923,40.992 Z" id="N"></path>
            <polygon id="E" points="157.436308 40.992 157.436308 0.732 179.030308 0.732 179.030308 2.44 159.388308 2.44 159.388308 18.666 175.858308 18.666 175.858308 20.374 159.388308 20.374 159.388308 39.284 179.640308 39.284 179.640308 40.992"></polygon>
        </g>
    </g>
</svg>