<svg width="32" height="32" viewBox="0 0 32 32" fill="none" xmlns="http://www.w3.org/2000/svg">
<rect width="32" height="32" fill="white"/>
<g clip-path="url(#clip0_2_4)">
<path d="M2 4.0055C2 2.89775 2.9205 2 4.05625 2H27.9437C29.0795 2 30 2.89775 30 4.0055V27.9945C30 29.1023 29.0795 30 27.9437 30H4.05625C2.9205 30 2 29.1023 2 27.9945V4.0055ZM10.6502 25.4395V12.7958H6.4485V25.4395H10.6502ZM8.55025 11.0685C10.015 11.0685 10.9267 10.099 10.9267 8.8845C10.9005 7.64375 10.0168 6.7005 8.57825 6.7005C7.13975 6.7005 6.2 7.6455 6.2 8.8845C6.2 10.099 7.11175 11.0685 8.52225 11.0685H8.55025ZM17.1393 25.4395V18.3783C17.1393 18.0003 17.1672 17.6222 17.2792 17.3527C17.582 16.5985 18.2733 15.8162 19.4353 15.8162C20.956 15.8162 21.5632 16.9748 21.5632 18.6758V25.4395H25.765V18.1875C25.765 14.3025 23.693 12.4965 20.928 12.4965C18.6985 12.4965 17.6993 13.7215 17.1393 14.5842V14.628H17.1113C17.1205 14.6134 17.1299 14.5988 17.1393 14.5842V12.7958H12.9392C12.9917 13.9823 12.9392 25.4395 12.9392 25.4395H17.1393Z" fill="black"/>
</g>
<defs>
<clipPath id="clip0_2_4">
<rect width="28" height="28" fill="white" transform="translate(2 2)"/>
</clipPath>
</defs>
</svg>
