<?xml version="1.0" encoding="UTF-8"?>
<svg width="500px" height="500px" viewBox="0 0 500 500" version="1.1" xmlns="http://www.w3.org/2000/svg" xmlns:xlink="http://www.w3.org/1999/xlink">
    <title>Artboard Copy 4</title>
    <g id="Artboard-Copy-4" stroke="none" stroke-width="1" fill="none" fill-rule="evenodd">
        <rect fill="#1A1A1A" x="0" y="0" width="500" height="500"></rect>
        <path d="M263.117814,66.7830151 C272.182023,46.3073838 286.4716,44.2925079 299.269146,44.6164276 C312.066692,44.9403473 341.064757,46.4193983 359.598268,54.9626347 C378.131779,63.505871 424.607286,102.15632 415.462655,132.54154 C406.318024,162.926761 383.896764,242.997305 376.764025,260.170116 C372.008865,271.618657 341.503093,281.204164 285.24671,288.926638 C274.498576,279.757595 265.682541,273.653513 258.798607,270.61439 C248.472705,266.055705 205.737028,251.416175 220.124025,212.285949 C234.511023,173.155724 254.053606,87.2586464 263.117814,66.7830151 Z" id="Path-7" fill="#FFFFFF"></path>
        <g id="logo-carda" transform="translate(55.000000, 44.000000)" fill-rule="nonzero">
            <path d="M195.033058,392 C189.806493,352.969695 191.310979,335.343456 174.142017,322.047156 C156.973055,308.750855 107.466352,307.27711 82.6227755,271.283414 C57.7791985,235.289717 45.6280869,145.426113 39.005742,108.299937 C32.3833971,71.1737612 13.033801,24.7834309 0,13 C52.9200584,15.734469 100.894012,42.0249312 125.635406,66.2460656 C142.129668,82.3934884 159.976572,105.444143 175.82005,128.844358 C167.443922,153.780627 163.227952,168.956621 162.08147,175.293575 C160.361748,184.799007 160.902413,196.322468 169.692348,205.043207 C178.482282,213.763946 194.289603,224.00325 201.562007,226.033451 C206.410277,227.38692 199.881328,253.116657 195.033058,291.93974 C204.322314,349.950476 204.322314,383.303896 195.033058,392 Z M51.204684,49.7262216 C91.8975369,94.7536647 101.367968,123.100413 108.262077,151.118938 C118.070372,190.98108 127.223906,209.642164 138.258299,231.959664 C151.401358,258.542023 175.580257,289.086789 195.296126,324.77293 C189.305062,301.679992 164.870267,262.308161 148.574461,223.430208 C138.82666,200.174255 130.086303,173.837626 122.13726,144.441443 C108.262077,93.1299383 85.5143443,81.1334879 51.204684,49.7262216 Z" id="Combined-Shape" fill="#96C6A7"></path>
            <path d="M173.987194,209.122289 C178.137899,212.220887 186.795753,217.833684 179.447472,212.777732 C170.381265,206.539769 168.116751,197.095041 166.553444,194.485956 C164.990135,191.876869 166.553444,186.847809 166.553444,182.701991 C166.553444,178.556173 163.58555,179.145723 163.58555,181.18585 C163.58555,183.225976 163.085465,189.747336 163.58555,192.609473 C164.041421,195.218565 169.777257,204.236601 171.649749,206.934684 C170.255078,205.533959 169.078493,204.14377 168.226009,202.805769 C163.116449,194.786149 158.006889,182.836916 163.116449,170.23961 C163.52465,169.233218 164.085053,167.618718 164.773492,165.491539 C176.389325,170.102478 182.853382,172.479544 184.165661,172.622738 C186.509536,172.878499 187.19226,162.757522 185.678961,162.232996 C184.655247,161.878165 175.205376,158.448504 167.792283,155.686435 C168.497091,153.323551 169.254827,150.747863 170.056014,147.996793 C182.267564,152.064598 189.097951,154.0985 190.547176,154.0985 C193.053034,154.0985 193.145441,145.877307 191.846308,145.445981 C190.860329,145.118626 180.183895,142.328653 172.383245,139.942348 C173.13818,137.311843 173.919026,134.576182 174.719663,131.759524 C187.638216,134.474636 194.511788,135.832191 195.340377,135.832191 C196.729743,135.832191 199.199726,128.58744 197.987564,128.172371 C196.972786,127.82489 184.181847,124.98692 177.116655,123.296787 C178.019616,120.098821 178.938792,116.833487 179.866403,113.531509 C194.499478,115.956341 201.836099,116.81273 201.876265,116.100676 C201.941494,114.944333 200.195546,109.248236 197.796227,107.771109 C196.148776,106.756864 188.502457,105.049783 182.517438,104.079495 C183.180028,101.713955 183.843151,99.3446347 184.504055,96.9824114 C193.640474,97.5641087 198.780013,97.8549573 199.922674,97.8549573 C202.071951,97.8549573 207.829446,91.0664573 207.695728,89.752974 C207.620655,89.0155498 200.756682,88.3273145 187.103809,87.6882688 C187.907687,84.8145032 188.702614,81.9735337 189.483383,79.1859132 C203.405967,79.9255872 210.817555,79.835138 211.718147,78.9145663 C213.216227,77.3832523 212.940093,70.3173174 211.718147,70.3173174 C210.790652,70.3173174 199.20233,70.3173174 191.970824,70.3173174 C192.764507,67.4925646 193.535637,64.7539601 194.277893,62.1264679 C207.084129,62.1264679 214.160442,62.1264679 215.506831,62.1264679 C217.730034,62.1264679 218.105097,59.781271 219.223765,58.5891654 C220.342432,57.3970598 219.223765,53.1477451 218.105097,53.1477451 C217.285015,53.1477451 205.027651,53.1477451 196.826593,53.1477451 C197.957814,49.1863715 198.982904,45.6356261 199.870516,42.619285 C213.008472,42.619285 220.186489,42.619285 221.404568,42.619285 C223.464699,42.619285 225.274788,35.2536978 223.339678,34.6115863 C221.813795,34.1052654 211.830386,34.397438 202.12915,35.173288 C202.297876,34.6456747 202.45193,34.1752589 202.590517,33.7651914 C207.583994,18.989842 218.377174,4.20340278 232.74764,0.870566065 C232.289439,1.18066407 231.895367,1.53363165 231.565423,1.92946883 C229.006295,4.99968268 222.460182,10.5993279 222.599336,12.2292614 C222.73849,13.8591949 225.936857,14.6904176 228.478591,12.2292614 C230.10722,10.6522622 234.281018,6.58746253 240.999985,0.0348624501 C242.891987,-0.0130954134 244.972891,-0.0114541982 247.198992,0.0390446972 C243.400915,3.91805005 237.539342,9.32314294 237.311606,10.5700671 C237.020253,12.1653212 235.230819,19.6257349 240.166437,15.097901 C243.0529,12.4499194 248.111172,7.55159235 255.341256,0.402920171 C258.259954,0.591137321 261.308319,0.844736895 264.416894,1.16254062 C263.245054,1.94404621 262.233736,2.63311467 261.513526,2.9991127 C259.734964,3.9029455 254.721072,7.62881741 254.407976,10.6307561 C254.09488,13.6326949 254.406889,16.6346336 259.063111,13.6326949 C263.719334,10.6307561 266.861169,5.24568993 270.208474,4.7363357 C271.989406,4.46533402 275.019165,3.72005133 277.937601,2.91931494 C281.975762,3.56168027 285.948942,4.30753536 289.709208,5.15437066 C285.838487,5.78747219 282.194287,6.60778813 280.746126,7.4337456 C277.702133,9.16988491 272.503427,12.3311323 272.364274,14.1322955 C272.22512,15.9334587 271.944638,20.5577448 278.366376,18.1897895 C284.788114,15.8218343 285.440398,11.4183029 289.407374,11.4183029 C291.442935,11.4183029 296.610925,10.854881 304.911344,9.72803716 C306.74142,10.4884216 308.379443,11.2913383 309.782559,12.1360604 C324.845976,21.2047331 347.825949,41.0500405 357.114477,53.7492165 C365.315901,64.9621164 363.299142,84.1694876 360.831846,92.2822263 C357.302726,89.2167056 352.533673,85.3140271 350.580763,83.7317564 C347.700928,81.3984807 334.119284,73.5761008 329.069516,70.7291356 C324.01975,67.8821705 324.379593,76.5075963 325.606975,77.9099463 C326.834356,79.3122963 340.837811,87.9745693 342.975129,88.4925932 C345.112447,89.0106171 354.852138,95.7438467 357.023157,98.0435267 C357.371716,98.4127422 357.85795,98.6634019 358.41989,98.8145401 C357.727157,100.899354 356.835549,103.699066 355.790585,107.051808 C353.811309,105.85727 350.735904,104.124522 346.961673,101.289305 C341.169389,96.9381198 326.970248,90.5538521 323.671864,88.3983085 C320.37348,86.2427649 316.162986,92.9163884 320.136484,95.3482839 C323.383348,97.3354587 344.783865,110.17026 353.390846,114.835262 C352.706314,117.07446 351.984566,119.448361 351.233312,121.929539 C349.718848,121.545212 348.282495,121.1735 347.665053,121.054417 C346.265903,120.784567 322.55211,107.66707 318.767774,105.955857 C314.983439,104.244643 314.29093,112.427906 316.998996,113.512723 C319.707063,114.597539 344.028568,127.372576 345.735379,127.915526 C346.575886,128.182898 347.657616,129.115957 348.790249,130.028274 C348.023689,132.57755 347.237661,135.198203 346.438836,137.866504 C345.492937,137.847669 344.556871,137.822876 343.783962,137.798082 C341.554237,137.726555 315.270443,124.953686 311.645917,123.005135 C308.021392,121.056584 308.120321,130.243383 309.540126,130.955396 C310.959932,131.667408 338.224326,143.653487 340.158348,144.076144 C341.135986,144.289794 342.40447,145.739892 343.671163,147.12825 C342.938014,149.585495 342.2007,152.05927 341.464001,154.532574 C339.993534,154.560537 338.564569,154.542693 337.889487,154.388941 C336.362054,154.041063 313.559285,142.440791 308.655194,140.034905 C303.751104,137.62902 302.423706,146.849415 306.290664,148.631071 C310.157622,150.412727 333.639855,159.774007 336.058742,160.193411 C337.068432,160.368479 338.154458,161.252407 339.174577,162.222907 C338.51448,164.441112 337.858943,166.644496 337.211501,168.820504 C335.088365,168.623662 333.003508,168.878683 329.478281,167.920424 C324.889462,166.673047 309.103096,161.227292 304.425131,159.101009 C299.747166,156.974726 298.640457,165.212176 301.836649,166.50832 C305.032842,167.804464 325.874411,175.444778 328.359614,176.002899 C329.818973,176.33064 332.252258,177.72492 334.302123,178.594991 C333.578401,181.024829 332.873429,183.38994 332.192982,185.669792 C331.093176,185.669792 330.165083,185.669792 329.408704,185.669792 C325.860278,185.669792 309.319437,179.117546 300.952805,176.932742 C292.586172,174.747937 294.072293,183.075337 296.778185,184.41483 C299.484078,185.754323 315.991217,190.406787 323.10329,192.220955 C326.034714,192.968711 327.980986,193.820491 329.505056,194.654497 C328.501372,197.999113 327.588597,201.025905 326.793645,203.639159 C326.759461,203.639159 326.726624,203.639159 326.695202,203.639159 C325.358019,203.639159 299.279695,194.875015 295.211616,193.047843 C291.143537,191.22067 283.833605,197.11509 290.596706,199.640187 C295.768633,201.571197 314.966882,207.780824 324.544169,210.916696 C324.092164,212.336843 323.769501,213.301774 323.597939,213.734126 C321.230147,219.701156 318.079367,232.356171 301.637703,235.387099 C287.555611,250.845458 274.304819,277.734303 261.885327,316.053635 L261.885327,379.172377 L223.446218,413 L193.336777,392.350563 L193.336777,292.870432 C199.505937,255.774995 202.590517,234.942769 202.590517,230.373753 C202.590517,223.520229 201.225069,226.320594 195.656735,223.520229 C191.500475,221.430009 181.113013,215.387458 173.987194,209.122289 Z M235.784174,35.5089168 C231.72153,35.6129551 231.171438,44.5364075 235.784174,44.4345367 C240.396911,44.3326659 265.064126,48.4920308 272.053352,50.2010767 C279.042577,51.9101227 308.838921,67.7477878 312.202533,68.1021684 C315.566146,68.456549 314.589894,62.2738555 313.396214,60.9126876 C312.202533,59.5515197 281.932196,44.0368069 274.463542,41.1768371 C266.994888,38.3168674 239.846818,35.4048785 235.784174,35.5089168 Z M233.493569,53.5595634 C227.813261,53.5595634 227.234902,62.5935566 230.185401,62.9663605 C233.1359,63.3391644 256.676838,67.3034575 263.729118,68.2929051 C270.781397,69.2823526 301.483329,85.6022786 305.452479,85.8136064 C309.421628,86.0249342 312.729796,81.175232 309.091138,79.2396857 C305.452479,77.30414 272.531694,61.3320921 267.286241,59.3824575 C262.040789,57.4328229 239.173878,53.5595634 233.493569,53.5595634 Z M229.300469,73.3875314 C222.337335,73.3875314 223.885423,82.7368902 229.300469,82.8029979 C234.715515,82.8691057 261.915768,89.2627779 266.570401,90.7662635 C271.225034,92.269749 297.17173,104.436464 300.095051,105.093206 C303.018372,105.749948 305.306802,98.9972114 302.700927,97.4117106 C300.095051,95.8262098 272.121842,83.1422061 267.992882,81.1058734 C263.863923,79.0695401 236.263603,73.3875314 229.300469,73.3875314 Z M222.579767,91.4641873 C214.183782,91.4641873 224.15612,102.611458 226.256476,102.839042 C228.356831,103.066626 242.221132,106.036053 250.307283,108.024298 C258.393432,110.012544 288.643114,121.750173 293.33956,124.165812 C298.036007,126.581451 301.901878,117.850904 297.62072,115.612996 C293.33956,113.375089 259.254448,99.8620294 252.281529,97.5818568 C245.308611,95.3016837 230.975752,91.4641873 222.579767,91.4641873 Z M225.432423,112.238253 C220.421793,110.970287 209.043782,117.638492 212.095385,118.908626 C215.146988,120.178761 240.403434,125.564911 245.636927,127.161861 C250.870421,128.758811 285.606731,141.580308 288.121286,142.061485 C290.635843,142.542662 295.811718,135.643622 291.966502,133.922655 C288.121286,132.201688 267.251453,124.032513 262.227777,122.153321 C257.204101,120.274129 230.443053,113.50622 225.432423,112.238253 Z M213.077073,129.868412 C207.398939,129.868412 205.249662,137.834929 207.695728,138.19256 C210.141794,138.550192 232.894555,143.423736 239.617431,145.348533 C246.340307,147.273329 276.815027,158.49737 282.055043,160.534787 C287.29506,162.572204 288.438731,153.365897 286.792801,152.857627 C285.14687,152.349356 259.038107,142.098332 256.094131,141.170657 C253.150154,140.242982 218.755207,129.868412 213.077073,129.868412 Z M205.260533,148.283192 C198.9736,148.283192 200.913059,156.645272 202.249154,157.990183 C203.58525,159.335095 231.684568,163.485168 237.383358,166.277485 C243.082148,169.069802 272.29361,176.749591 277.688,178.475976 C283.082391,180.202362 283.597695,170.796649 280.642848,170.103061 C277.688,169.409472 249.33864,159.756667 243.436555,157.990183 C237.53447,156.2237 211.547466,148.283192 205.260533,148.283192 Z M200.749988,167.547619 C193.27481,164.991095 195.501274,175.038377 197.83319,175.930289 C200.165106,176.822201 228.423146,184.493943 234.248045,186.54003 C240.072943,188.586116 268.330983,194.875015 272.596922,196.124559 C276.862861,197.374102 278.215263,190.562844 276.682396,189.2667 C275.149528,187.970556 249.710443,182.052293 243.112587,180.291228 C236.514733,178.530163 208.225165,170.104144 200.749988,167.547619 Z M176.579052,185.300239 C176.579052,181.201564 171.515152,180.846099 171.145524,186.27018 C170.775897,191.694261 171.145524,198.260053 174.909205,205.47446 C178.672884,212.688866 188.419098,218.224029 183.45141,214.08092 C178.483722,209.937811 178.456,204.956977 176.579052,200.78244 C174.702104,196.607903 176.579052,189.398915 176.579052,185.300239 Z M189.862277,190.89555 C189.862277,182.976175 183.714498,184.521036 182.937193,188.930201 C182.159887,193.339366 182.200655,196.335887 182.200655,200.972635 C182.200655,205.609385 186.662279,216.899166 189.862277,219.706034 C193.062275,222.5129 206.739588,227.034774 202.987323,224.888442 C199.235058,222.74211 194.769629,219.25791 191.4919,213.52334 C188.214172,207.78877 189.862277,198.814924 189.862277,190.89555 Z M204.6251,194.701618 C204.6251,187.841592 197.638048,189.850832 197.217869,194.701618 C196.797689,199.552404 195.870902,203.928284 198.475146,213.241183 C201.079391,222.554082 212.460121,228.926428 217.872449,232.853333 C223.284777,236.780237 227.603986,236.468122 223.79682,234.205289 C219.989655,231.942456 209.566696,220.565433 206.266139,215.150564 C202.96558,209.735695 204.6251,201.561644 204.6251,194.701618 Z M222.59553,202.255233 C222.59553,195.370281 213.558132,195.003979 213.558132,202.255233 C213.558132,209.506486 215.890592,217.534775 220.699014,223.566288 C225.507436,229.597801 228.485113,232.607326 237.920405,237.428309 C247.355696,242.249293 248.690161,239.03711 241.345984,235.801085 C234.001807,232.56506 227.949153,223.844807 225.059534,219.185842 C222.169915,214.526876 222.59553,209.140185 222.59553,202.255233 Z" id="Combined-Shape" fill="#707070"></path>
        </g>
    </g>
</svg>