<?xml version="1.0" encoding="UTF-8"?>
<svg width="80px" height="80px" viewBox="0 0 80 80" version="1.1" xmlns="http://www.w3.org/2000/svg" xmlns:xlink="http://www.w3.org/1999/xlink">
    <title>F</title>
    <defs>
        <linearGradient x1="35.6175073%" y1="0%" x2="64.3824927%" y2="85.4228423%" id="linearGradient-1">
            <stop stop-color="#5A8069" offset="0%"></stop>
            <stop stop-color="#B5D9C2" offset="40%"></stop>
            <stop stop-color="#5C8B6D" offset="100%"></stop>
        </linearGradient>
        <linearGradient x1="38.8373616%" y1="35.7394971%" x2="58.1763095%" y2="46.4037627%" id="linearGradient-2">
            <stop stop-color="#AAAAAA" offset="0%"></stop>
            <stop stop-color="#FFFFFF" offset="30%"></stop>
            <stop stop-color="#888888" offset="50%"></stop>
            <stop stop-color="#FFFFFF" offset="70%"></stop>
            <stop stop-color="#AAAAAA" offset="100%"></stop>
        </linearGradient>
    </defs>
    <g id="F" stroke="none" stroke-width="1" fill="none" fill-rule="evenodd">
        <g id="logo-carda" transform="translate(8.800000, 7.040000)" fill-rule="nonzero">
            <path d="M31.2052893,62.72 C30.3690389,56.4751512 30.6097566,53.654953 27.8627227,51.5275449 C25.1156888,49.4001367 17.1946164,49.1643377 13.2196441,43.4053462 C9.24467176,37.6463547 7.30049391,23.2681781 6.24091873,17.3279899 C5.18134353,11.3878018 2.08540816,3.96534894 0,2.08 C8.46720934,2.51751503 16.1430419,6.723989 20.1016649,10.5993705 C22.7407469,13.1829581 25.5962515,16.8710629 28.1312081,20.6150973 C26.7910275,24.6049003 26.1164723,27.0330594 25.9330353,28.046972 C25.6578797,29.5678411 25.7443861,31.4115949 27.1507756,32.8069131 C28.5571652,34.2022313 31.0863364,35.84052 32.2499211,36.1653522 C33.0256443,36.3819071 31.9810125,40.4986651 31.2052893,46.7103583 C32.6915702,55.9920762 32.6915702,61.3286234 31.2052893,62.72 Z M8.19274944,7.95619546 C14.7036059,15.1605864 16.2188749,19.6960661 17.3219324,24.1790301 C18.8912596,30.5569729 20.355825,33.5427463 22.1213279,37.1135463 C24.2242173,41.3667237 28.0928411,46.2538862 31.2473802,51.9636687 C30.2888099,48.2687987 26.3792427,41.9693057 23.7719138,35.7488332 C22.2122656,32.0278807 20.8138085,27.8140202 19.5419615,23.1106309 C17.3219324,14.9007901 13.6822951,12.9813581 8.19274944,7.95619546 Z" id="Combined-Shape" fill="url(#linearGradient-1)"></path>
            <path d="M27.837951,33.4595662 C28.5020639,33.9553419 29.8873205,34.8533895 28.7115955,34.0444372 C27.2610024,33.046363 26.8986802,31.5352066 26.648551,31.1177529 C26.3984217,30.7002991 26.648551,29.8956495 26.648551,29.2323186 C26.648551,28.5689877 26.173688,28.6633157 26.173688,28.9897359 C26.173688,29.3161561 26.0936745,30.3595737 26.173688,30.8175156 C26.2466274,31.2349704 27.1643612,32.6778562 27.4639598,33.1095495 C27.2408125,32.8854335 27.0525589,32.6630032 26.9161615,32.448923 C26.0986318,31.1657839 25.2811023,29.2539066 26.0986318,27.2383377 C26.1639439,27.0773148 26.2536085,26.8189949 26.3637587,26.4786463 C28.2222919,27.2163964 29.256541,27.596727 29.4665058,27.6196381 C29.8415258,27.6605598 29.9507616,26.0412036 29.7086337,25.9572793 C29.5448395,25.9005064 28.0328602,25.3517607 26.8467654,24.9098296 C26.9595346,24.5317681 27.0807723,24.119658 27.2089623,23.6794869 C29.1628102,24.3303357 30.2556721,24.65576 30.4875481,24.65576 C30.8884855,24.65576 30.9032705,23.3403691 30.6954093,23.271357 C30.5376527,23.2189802 28.8294231,22.7725845 27.5813193,22.3907756 C27.7021088,21.9698949 27.8270442,21.5321891 27.9551461,21.0815239 C30.0221146,21.5159417 31.121886,21.7331506 31.2544604,21.7331506 C31.4767589,21.7331506 31.8719561,20.5739904 31.6780102,20.5075793 C31.5156458,20.4519823 29.4690955,19.9979072 28.3386648,19.7274859 C28.4831385,19.2158113 28.6302067,18.6933579 28.7786245,18.1650414 C31.1199165,18.5530145 32.2937758,18.6900368 32.3002024,18.5761081 C32.310639,18.3910933 32.0312874,17.4797178 31.6473964,17.2433774 C31.3838041,17.0810983 30.1603932,16.8079653 29.2027902,16.6527191 C29.3088044,16.2742328 29.4149042,15.8951416 29.5206488,15.5171858 C30.9824758,15.6102574 31.8048021,15.6567932 31.9876279,15.6567932 C32.3315121,15.6567932 33.2527114,14.5706332 33.2313164,14.3604758 C33.2193048,14.242488 32.1210691,14.1323703 29.9366094,14.030123 C30.06523,13.5703205 30.1924182,13.1157654 30.3173413,12.6697461 C32.5449547,12.788094 33.7308088,12.7736221 33.8749035,12.6263306 C34.1145963,12.3813204 34.0704149,11.2507708 33.8749035,11.2507708 C33.7265042,11.2507708 31.8723728,11.2507708 30.7153318,11.2507708 C30.8423211,10.7988103 30.965702,10.3606336 31.0844628,9.94023486 C33.1334606,9.94023486 34.2656707,9.94023486 34.481093,9.94023486 C34.8368054,9.94023486 34.8968155,9.56500336 35.0758024,9.37426646 C35.2547892,9.18352957 35.0758024,8.50363921 34.8968155,8.50363921 C34.7656023,8.50363921 32.8044242,8.50363921 31.492255,8.50363921 C31.6732503,7.86981944 31.8372647,7.30170018 31.9792826,6.81908559 C34.0813555,6.81908559 35.2298382,6.81908559 35.4247309,6.81908559 C35.7543519,6.81908559 36.0439661,5.64059165 35.7343485,5.53785381 C35.4902073,5.45684246 33.8928618,5.50359007 32.340664,5.62772608 C32.3676601,5.54330795 32.3923088,5.46804143 32.4144827,5.40243062 C33.213439,3.03837472 34.9403478,0.672544445 37.2396224,0.13929057 C37.1663102,0.188906251 37.1032587,0.245381065 37.0504677,0.308715013 C36.6410072,0.799949228 35.5936291,1.69589247 35.6158937,1.95668182 C35.6381583,2.21747118 36.149897,2.35046682 36.5565745,1.95668182 C36.8171553,1.70436195 37.4849629,1.05399401 38.5599976,0.00557799202 C38.8627179,-0.00209526614 39.1956626,-0.00183267171 39.5518387,0.00624715156 C38.9441463,0.626888008 38.0062947,1.49170287 37.969857,1.69121074 C37.9232405,1.94645139 37.6369311,3.14011759 38.4266299,2.41566416 C38.888464,1.9919871 39.6977876,1.20825478 40.8546009,0.0644672274 C41.3215926,0.0945819713 41.8093311,0.135157903 42.306703,0.186006499 C42.1192087,0.311047393 41.9573978,0.421298347 41.8421641,0.479858031 C41.5575942,0.62447128 40.7553716,1.22061079 40.7052762,1.70092098 C40.6551808,2.18123118 40.7051022,2.66154137 41.4500978,2.18123118 C42.1950934,1.70092098 42.6977871,0.839310388 43.2333559,0.757813713 C43.518305,0.714453443 44.0030664,0.595208213 44.4700162,0.467090391 C45.1161219,0.569868843 45.7518308,0.689205657 46.3534733,0.824699305 C45.7341579,0.925995551 45.1510859,1.0572461 44.9193802,1.1893993 C44.4323413,1.46718159 43.6005484,1.97298117 43.5782839,2.26116727 C43.5560192,2.54935339 43.511142,3.28923917 44.5386201,2.91036632 C45.5660983,2.53149349 45.6704638,1.82692847 46.3051798,1.82692847 C46.6308695,1.82692847 47.457748,1.73678097 48.7858151,1.55648595 C49.0786272,1.67814746 49.3407108,1.80661413 49.5652094,1.94176967 C51.9753562,3.39275729 55.6521519,6.56800647 57.1383163,8.59987464 C58.4505441,10.3939386 58.1278628,13.467118 57.7330954,14.7651562 C57.1684362,14.2746729 56.4053877,13.6502443 56.0929221,13.397081 C55.6321486,13.0237569 53.4590854,11.7721761 52.6511226,11.3166617 C51.8431599,10.8611473 51.9007348,12.2412154 52.0971159,12.4655914 C52.2934969,12.6899674 54.5340498,14.0759311 54.8760207,14.1588149 C55.2179915,14.2416987 56.7763421,15.3190155 57.1237051,15.6869643 C57.1794746,15.7460388 57.257272,15.7861443 57.3471825,15.8103264 C57.2363452,16.1438966 57.0936878,16.5918505 56.9264935,17.1282892 C56.6098095,16.9371632 56.1177446,16.6599235 55.5138676,16.2062888 C54.5871022,15.5100992 52.3152397,14.4886163 51.7874983,14.1437294 C51.2597569,13.7988424 50.5860777,14.8666221 51.2218375,15.2557254 C51.7413356,15.5736734 55.1654184,17.6272416 56.5425354,18.3736419 C56.4330103,18.7319136 56.3175305,19.1117377 56.19733,19.5087262 C55.9550157,19.4472339 55.7251992,19.38776 55.6264085,19.3687066 C55.4025445,19.3255307 51.6083375,17.2267312 51.0028439,16.9529371 C50.3973502,16.6791429 50.2865488,17.988465 50.7198394,18.1620357 C51.1531301,18.3356062 55.0445709,20.3796121 55.3176606,20.4664841 C55.4521417,20.5092637 55.6252186,20.6585531 55.8064398,20.8045239 C55.6837903,21.212408 55.5580258,21.6317124 55.4302137,22.0586407 C55.2788699,22.0556271 55.1290993,22.0516601 55.0054339,22.0476931 C54.6486779,22.0362488 50.443271,19.9925897 49.8633468,19.6808215 C49.2834227,19.3690534 49.2992513,20.8389413 49.5264202,20.9528633 C49.7535891,21.0667852 54.1158921,22.984558 54.4253358,23.052183 C54.5817577,23.086367 54.7847153,23.3183827 54.9873862,23.54052 C54.8700823,23.9336792 54.752112,24.3294832 54.6342401,24.7252118 C54.3989655,24.729686 54.170331,24.7268309 54.0623179,24.7022305 C53.8179286,24.64657 50.1694855,22.7905266 49.384831,22.4055849 C48.6001766,22.0206432 48.3877929,23.4959063 49.0065062,23.7809713 C49.6252195,24.0660363 53.3823768,25.5638411 53.7693987,25.6309458 C53.9309491,25.6589566 54.1047133,25.8003851 54.2679324,25.9556652 C54.1623167,26.3105779 54.057431,26.6631194 53.9538401,27.0112807 C53.6141384,26.979786 53.2805613,27.0205893 52.716525,26.8672678 C51.9823139,26.6676876 49.4564954,25.7963667 48.708021,25.4561614 C47.9595465,25.1159562 47.7824732,26.4339482 48.2938639,26.6413312 C48.8052548,26.8487143 52.1399058,28.0711644 52.5375382,28.1604639 C52.7710357,28.2129023 53.1603613,28.4359872 53.4883398,28.5751985 C53.3725441,28.9639726 53.2597486,29.3423904 53.150877,29.7071668 C52.9749081,29.7071668 52.8264133,29.7071668 52.7053927,29.7071668 C52.1376445,29.7071668 49.49111,28.6588074 48.1524488,28.3092387 C46.8137876,27.95967 47.0515669,29.2920539 47.4845096,29.5063728 C47.9174525,29.7206917 50.5585948,30.4650859 51.6965264,30.7553528 C52.1655543,30.8749938 52.4769578,31.0112786 52.720809,31.1447196 C52.5602196,31.6798581 52.4141755,32.1641448 52.2869832,32.5822654 C52.2815137,32.5822654 52.2762599,32.5822654 52.2712323,32.5822654 C52.0572831,32.5822654 47.8847512,31.1800025 47.2338586,30.8876548 C46.5829659,30.5953072 45.4133767,31.5384144 46.4954729,31.9424299 C47.3229813,32.2513915 50.3947011,33.2449319 51.9270671,33.7466714 C51.8547462,33.9738948 51.8031202,34.1282839 51.7756702,34.1974602 C51.3968235,35.152185 50.8926987,37.1769874 48.2620325,37.6619358 C46.0088978,40.1352733 43.8887711,44.4374885 41.9016524,50.5685817 L41.9016524,60.6675804 L35.7513949,66.08 L30.9338844,62.7760901 L30.9338844,46.8592692 C31.9209499,40.9239992 32.4144827,37.590843 32.4144827,36.8598005 C32.4144827,35.7632367 32.196011,36.2112951 31.3050776,35.7632367 C30.6400759,35.4288014 28.9780821,34.4619933 27.837951,33.4595662 Z M37.7254679,5.68142668 C37.0754448,5.69807282 36.98743,7.1258252 37.7254679,7.10952587 C38.4635057,7.09322654 42.4102602,7.75872492 43.5285363,8.03217228 C44.6468123,8.30561963 49.4142273,10.839646 49.9524053,10.8963469 C50.4905833,10.9530478 50.334383,9.96381688 50.1433942,9.74603002 C49.9524053,9.52824315 45.1091514,7.04588911 43.9141667,6.58829394 C42.719182,6.13069878 38.3754908,5.66478056 37.7254679,5.68142668 Z M37.358971,8.56953014 C36.4501217,8.56953014 36.3575843,10.0149691 36.8296642,10.0746177 C37.301744,10.1342663 41.0682941,10.7685532 42.1966588,10.9268648 C43.3250235,11.0851764 48.2373327,13.6963646 48.8723966,13.730177 C49.5074605,13.7639895 50.0367674,12.9880371 49.454582,12.6783497 C48.8723966,12.3686624 43.605071,9.81313473 42.7657986,9.5011932 C41.9265262,9.18925167 38.2678204,8.56953014 37.358971,8.56953014 Z M36.688075,11.742005 C35.5739736,11.742005 35.8216676,13.2379024 36.688075,13.2484797 C37.5544824,13.2590569 41.9065228,14.2820445 42.6512641,14.5226022 C43.3960054,14.7631598 47.5474769,16.7098342 48.0152082,16.8149129 C48.4829395,16.9199917 48.8490883,15.8395538 48.4321483,15.5858737 C48.0152082,15.3321936 43.5394946,13.302753 42.8788612,12.9769397 C42.2182277,12.6511264 37.8021765,11.742005 36.688075,11.742005 Z M35.6127627,14.63427 C34.2694051,14.63427 35.8649793,16.4178333 36.2010361,16.4542467 C36.5370929,16.4906602 38.7553811,16.9657685 40.0491652,17.2838877 C41.3429492,17.602007 46.1828982,19.4800276 46.9343297,19.8665299 C47.6857611,20.2530322 48.3043005,18.8561446 47.6193151,18.4980794 C46.9343297,18.1400142 41.4807117,15.9779247 40.3650447,15.6130971 C39.2493777,15.2482694 36.9561203,14.63427 35.6127627,14.63427 Z M36.0691877,17.9581205 C35.2674869,17.7552459 33.4470051,18.8221587 33.9352616,19.0253802 C34.4235181,19.2286017 38.4645494,20.0903857 39.3019083,20.3458977 C40.1392674,20.6014098 45.697077,22.6528492 46.0994058,22.7298376 C46.5017348,22.8068259 47.3298749,21.7029795 46.7146403,21.4276247 C46.0994058,21.15227 42.7602324,19.8452021 41.9564443,19.5445314 C41.1526562,19.2438606 36.8708886,18.1609952 36.0691877,17.9581205 Z M34.0923316,20.7789459 C33.1838302,20.7789459 32.8399459,22.0535886 33.2313164,22.1108096 C33.622687,22.1680307 37.2631288,22.9477978 38.338789,23.2557652 C39.4144492,23.5637327 44.2904043,25.3595793 45.1288069,25.685566 C45.9672096,26.0115526 46.150197,24.5385435 45.8868482,24.4572203 C45.6234993,24.375897 41.4460971,22.735733 40.975061,22.5873051 C40.5040247,22.4388771 35.0008332,20.7789459 34.0923316,20.7789459 Z M32.8416853,23.7253108 C31.835776,23.7253108 32.1460895,25.0632434 32.3598647,25.2784293 C32.57364,25.4936152 37.0695309,26.1576269 37.9813372,26.6043976 C38.8931436,27.0511682 43.5669776,28.2799346 44.43008,28.5561562 C45.2931826,28.832378 45.3756313,27.3274639 44.9028557,27.2164897 C44.43008,27.1055155 39.8941825,25.5610667 38.9498488,25.2784293 C38.0055152,24.9957919 33.8475946,23.7253108 32.8416853,23.7253108 Z M32.119998,26.8076191 C30.9239697,26.3985751 31.2802039,28.0061404 31.6533105,28.1488463 C32.026417,28.2915522 36.5477034,29.5190308 37.4796872,29.8464047 C38.4116709,30.1737786 42.9329572,31.1800025 43.6155075,31.3799294 C44.2980577,31.5798564 44.5144422,30.490055 44.2691833,30.282672 C44.0239244,30.075289 39.9536708,29.1283669 38.898014,28.8465965 C37.8423572,28.5648261 33.3160264,27.2166631 32.119998,26.8076191 Z M28.2526484,29.6480383 C28.2526484,28.9922502 27.4424244,28.9353759 27.3832839,29.8032288 C27.3241435,30.6710817 27.3832839,31.7216086 27.9854727,32.8759136 C28.5876615,34.0302186 30.1470557,34.9158447 29.3522256,34.2529472 C28.5573956,33.5900498 28.55296,32.7931164 28.2526484,32.1251904 C27.9523367,31.4572646 28.2526484,30.3038264 28.2526484,29.6480383 Z M30.3779643,30.543288 C30.3779643,29.276188 29.3943197,29.5233658 29.2699509,30.2288322 C29.145582,30.9342986 29.1521048,31.4137419 29.1521048,32.1556216 C29.1521048,32.8975015 29.8659647,34.7038666 30.3779643,35.1529654 C30.889964,35.602064 33.0783341,36.3255638 32.4779717,35.9821507 C31.8776093,35.6387375 31.1631406,35.0812657 30.638704,34.1637344 C30.1142675,33.2462032 30.3779643,31.8103879 30.3779643,30.543288 Z M32.7400159,31.1522588 C32.7400159,30.0546547 31.6220878,30.3761331 31.554859,31.1522588 C31.4876302,31.9283847 31.3393443,32.6285254 31.7560234,34.1185892 C32.1727026,35.6086532 33.9936193,36.6282285 34.8595918,37.2565333 C35.7255644,37.884838 36.4166378,37.8348995 35.8074913,37.4728463 C35.1983448,37.1107929 33.5306714,35.2904694 33.0025822,34.4240903 C32.4744928,33.5577112 32.7400159,32.2498631 32.7400159,31.1522588 Z M35.6152848,32.3608373 C35.6152848,31.259245 34.1693012,31.2006367 34.1693012,32.3608373 C34.1693012,33.5210378 34.5424947,34.8055641 35.3118423,35.7706061 C36.0811898,36.7356482 36.5576181,37.2171721 38.0672648,37.9885294 C39.5769114,38.7598868 39.7904258,38.2459376 38.6153575,37.7281736 C37.4402892,37.2104096 36.4718645,35.8151692 36.0095254,35.0697347 C35.5471864,34.3243002 35.6152848,33.4624296 35.6152848,32.3608373 Z" id="Combined-Shape" fill="url(#linearGradient-2)"></path>
        </g>
    </g>
</svg>