<svg width="32" height="32" viewBox="0 0 32 32" fill="none" xmlns="http://www.w3.org/2000/svg">
<rect width="32" height="32" fill="white"/>
<path d="M29.0625 11.1944C29.0625 5.11938 25.0807 3.33812 25.0807 3.33812C21.1732 1.54437 10.7957 1.56312 6.92567 3.33812C6.92567 3.33812 2.94317 5.11938 2.94317 11.1944C2.94317 18.4256 2.53067 27.4069 9.54504 29.2631C12.0769 29.9319 14.2525 30.0756 16.0032 29.9756C19.1788 29.8006 20.9607 28.8444 20.9607 28.8444L20.8544 26.5381C20.8544 26.5381 18.585 27.2506 16.0344 27.1694C13.5088 27.0819 10.8469 26.8944 10.4325 23.7944C10.3941 23.5064 10.3753 23.2161 10.3763 22.9256C15.7282 24.2319 20.2919 23.4944 21.5482 23.3444C25.0557 22.9256 28.1107 20.7631 28.5 18.7881C29.1125 15.6756 29.0625 11.1944 29.0625 11.1944ZM24.3675 19.0194H21.4532V11.8819C21.4532 8.77562 17.4532 8.65687 17.4532 12.3131V16.2194H14.5575V12.3125C14.5575 8.65625 10.5575 8.775 10.5575 11.8813V19.0187H7.63692C7.63692 11.3875 7.31192 9.775 8.78754 8.08125C10.4063 6.275 13.7763 6.15625 15.2769 8.4625L16.0019 9.68125L16.7269 8.4625C18.2338 6.14375 21.6094 6.2875 23.2163 8.08125C24.6982 9.7875 24.3663 11.3937 24.3663 19.0187L24.3675 19.0194Z" fill="black"/>
</svg>
