<?xml version="1.0" encoding="UTF-8"?>
<svg width="72px" height="72px" viewBox="0 0 72 72" version="1.1" xmlns="http://www.w3.org/2000/svg" xmlns:xlink="http://www.w3.org/1999/xlink">
    <title>newsletter</title>
    <g id="newsletter" stroke="none" stroke-width="1" fill="none" fill-rule="evenodd">
        <g id="noun_newsletter_1545627" transform="translate(4.000000, 4.000000)" fill="#000000" fill-rule="nonzero">
            <g id="Group">
                <path d="M31.1150933,3.53450667 C31.37536,3.35146667 31.68768,3.26016 32,3.26016 C32.31232,3.26016 32.62464,3.35189333 32.8853333,3.53450667 L33.7796267,4.16170667 L38.9312,4.16170667 L34.5847467,1.11232 C33.0389333,0.02816 30.9614933,0.0273066667 29.41568,1.11232 L25.0688,4.16170667 L30.2208,4.16170667 L31.1150933,3.53450667 Z" id="Path"></path>
                <path d="M58.09536,17.6068267 L62.15168,20.45312 L64,23.9744 L64,59.3664 C64,61.75616 62.0117333,63.7009067 59.56736,63.7009067 L59.56736,63.7009067 L4.43264,63.7009067 C1.98826667,63.7009067 0,61.75616 0,59.3664 L0,59.3664 L0,23.9744 C0,22.5813333 0.690773333,21.26464 1.84832,20.4526933 L1.84832,20.4526933 L5.90464,17.6068267 L5.90464,21.22112 L4.05504,22.51904 L32,42.1248 L59.94496,22.51904 L58.09536,21.2215467 L58.09536,17.6068267 Z M60.9554573,25.3636267 L32.0002133,45.769171 L2.80936331,25.3636267 L2.80936331,59.3664 C2.80936331,60.12544 3.47069664,60.7424 4.28349664,60.7424 L59.3814798,60.7424 L59.3814798,60.7424 C60.4221258,60.7424 60.9554573,60.2697843 60.9554573,59.3664 L60.9554573,25.3636267 L60.9554573,25.3636267 Z" id="Shape"></path>
                <path d="M10.3428267,8.59989333 L53.6571733,8.59989333 L53.6571733,25.1234133 L56.6161067,23.04768 L56.6161067,7.12064 C56.6161067,6.30357333 55.9534933,5.64138667 55.1368533,5.64138667 L8.86357333,5.64138667 C8.04650667,5.64138667 7.38432,6.304 7.38432,7.12064 L7.38432,23.04768 L10.3432533,25.1234133 L10.3432533,8.59989333 L10.3428267,8.59989333 Z" id="Path"></path>
                <path d="M18.63936,30.9448533 L21.6529067,33.0581333 L29.4638933,33.0581333 C30.0471467,33.0581333 30.5207467,32.58496 30.5207467,32.00128 L30.5207467,20.0861867 C30.5207467,19.5029333 30.0471467,19.0293333 29.4638933,19.0293333 L14.9111467,19.0293333 C14.3278933,19.0293333 13.8542933,19.5029333 13.8542933,20.0861867 L13.8542933,27.5886933 L15.9675733,29.0679467 L15.9675733,21.14304 L28.40704,21.14304 L28.40704,30.9448533 L18.63936,30.9448533 Z" id="Path"></path>
                <path d="M49.2189867,19.02848 L34.5361067,19.02848 C33.9524267,19.02848 33.4792533,19.5016533 33.4792533,20.0853333 C33.4792533,20.6690133 33.9524267,21.1421867 34.5361067,21.1421867 L49.2189867,21.1421867 C49.8026667,21.1421867 50.27584,20.6690133 50.27584,20.0853333 C50.27584,19.5016533 49.8026667,19.02848 49.2189867,19.02848 Z" id="Path"></path>
                <path d="M49.2189867,12.9108329 L14.9156687,12.9108329 C14.3319887,12.9108329 13.8588154,13.3840063 13.8588154,13.9676863 C13.8588154,14.5513663 14.3319887,15.0245396 14.9156687,15.0245396 L49.2189867,15.0245396 C49.8026667,15.0245396 50.27584,14.5513663 50.27584,13.9676863 C50.27584,13.3840063 49.8026667,12.9108329 49.2189867,12.9108329 Z" id="Path-Copy"></path>
                <path d="M49.2189867,22.9998933 L34.5361067,22.9998933 C33.9524267,22.9998933 33.4792533,23.4730667 33.4792533,24.0567467 C33.4792533,24.6404267 33.9524267,25.1136 34.5361067,25.1136 L49.2189867,25.1136 C49.8026667,25.1136 50.27584,24.6404267 50.27584,24.0567467 C50.27584,23.4730667 49.8026667,22.9998933 49.2189867,22.9998933 Z" id="Path"></path>
                <path d="M50.1678933,27.5716267 C50.1162667,27.46496 50.05056,27.3664 49.9682133,27.2832 C49.7770667,27.0907733 49.5121067,26.9717333 49.2194133,26.9717333 L34.5361067,26.9717333 C34.16704,26.9717333 33.8432,27.1616 33.6541867,27.44832 C33.5445333,27.6151467 33.47968,27.8139733 33.47968,28.0285867 C33.47968,28.6122667 33.9528533,29.08544 34.5365333,29.08544 L48.0106667,29.08544 L50.1678933,27.5716267 Z" id="Path"></path>
                <path d="M45.3610667,30.9435733 L34.5361067,30.9435733 C33.9524267,30.9435733 33.4792533,31.4167467 33.4792533,32.0004267 C33.4792533,32.5841067 33.9524267,33.05728 34.5361067,33.05728 L42.3492267,33.05728 L45.3610667,30.9435733 Z" id="Path"></path>
            </g>
        </g>
    </g>
</svg>