<?xml version="1.0" encoding="UTF-8"?>
<svg width="549px" height="140px" viewBox="0 0 549 140" version="1.1" xmlns="http://www.w3.org/2000/svg" xmlns:xlink="http://www.w3.org/1999/xlink">
    <title>schriftzug</title>
    <g id="schriftzug" stroke="none" stroke-width="1" fill="none" fill-rule="evenodd">
        <path d="M129.944,106 C127.128,102.032 124.856,97.712 123.128,93.04 C121.4,88.368 120.056,83.536 119.096,78.544 C118.136,73.552 117.464,68.528 117.08,63.472 C116.696,58.416 116.44,53.488 116.312,48.688 C116.312,47.152 116.392,45.856 116.552,44.8 C116.712,43.744 117.064,42.912 117.608,42.304 C118.152,41.696 118.888,41.248 119.816,40.96 C120.744,40.672 121.976,40.528 123.512,40.528 C124.6,40.528 125.448,40.688 126.056,41.008 C126.664,41.328 127.16,42 127.544,43.024 L127.544,43.024 L128.408,32.944 C127.704,32.88 127.064,32.848 126.488,32.848 L126.488,32.848 L124.76,32.848 C120.984,32.848 118.04,33.312 115.928,34.24 C113.816,35.168 112.216,36.464 111.128,38.128 C110.04,39.792 109.368,41.776 109.112,44.08 C108.856,46.384 108.728,48.912 108.728,51.664 C108.728,56.08 108.936,60.656 109.352,65.392 C109.768,70.128 110.456,74.848 111.416,79.552 C112.376,84.256 113.624,88.864 115.16,93.376 C116.696,97.888 118.584,102.096 120.824,106 L120.824,106 L129.944,106 Z M139.12,106 L139.12,88.912 C139.12,87.696 139.152,86.384 139.216,84.976 C139.28,83.568 139.312,82.064 139.312,80.464 C140.016,80.656 140.88,81.024 141.904,81.568 C142.928,82.112 143.968,82.736 145.024,83.44 C146.08,84.144 147.072,84.88 148,85.648 C148.928,86.416 149.68,87.184 150.256,87.952 L150.256,87.952 L150.256,106 L158.032,106 L158.032,88.912 C158.032,86.224 157.888,82.992 157.6,79.216 C157.312,75.44 156.88,71.456 156.304,67.264 C155.728,63.072 155.04,58.864 154.24,54.64 C153.44,50.416 152.528,46.576 151.504,43.12 C151.056,41.712 150.576,40.432 150.064,39.28 C149.552,38.128 149.296,37.2 149.296,36.496 C149.296,35.408 149.712,34.256 150.544,33.04 L150.544,33.04 L138.832,33.04 C139.664,34.32 140.08,35.504 140.08,36.592 C140.08,37.296 139.808,38.224 139.264,39.376 C138.72,40.528 138.256,41.776 137.872,43.12 C136.848,46.64 135.936,50.496 135.136,54.688 C134.336,58.88 133.648,63.072 133.072,67.264 C132.496,71.456 132.064,75.44 131.776,79.216 C131.488,82.992 131.344,86.224 131.344,88.912 L131.344,88.912 L131.344,106 L139.12,106 Z M149.872,78.832 C147.952,77.168 146.192,75.904 144.592,75.04 C142.992,74.176 141.488,73.456 140.08,72.88 C140.528,68.656 141.152,64.368 141.952,60.016 C142.752,55.664 143.696,51.472 144.784,47.44 C145.424,49.936 146.016,52.512 146.56,55.168 C147.104,57.824 147.6,60.512 148.048,63.232 C148.496,65.952 148.864,68.64 149.152,71.296 C149.44,73.952 149.68,76.464 149.872,78.832 Z M150.256,84.688 C147.952,82.768 145.92,81.312 144.16,80.32 C142.4,79.328 140.88,78.672 139.6,78.352 C139.664,77.84 139.712,77.328 139.744,76.816 C139.776,76.304 139.792,75.728 139.792,75.088 C142.224,76.112 144.224,77.2 145.792,78.352 C147.36,79.504 148.816,80.72 150.16,82 L150.16,82 L150.16,83.584 C150.16,84 150.192,84.368 150.256,84.688 Z M171.72,106 C170.248,105.04 169.512,103.376 169.512,101.008 L169.512,101.008 L169.512,93.424 C169.512,91.12 169.8,89.072 170.376,87.28 C170.952,85.488 171.56,84.112 172.2,83.152 C172.904,82.256 173.56,81.28 174.168,80.224 C174.776,79.168 175.336,78 175.848,76.72 C176.36,79.984 176.664,83.248 176.76,86.512 C176.856,89.776 176.904,93.04 176.904,96.304 C176.904,96.88 176.888,97.712 176.856,98.8 C176.824,99.888 176.856,100.96 176.952,102.016 C177.048,103.072 177.208,104 177.432,104.8 C177.656,105.6 178.056,106 178.632,106 L178.632,106 L186.6,106 C186.024,105.808 185.608,105.44 185.352,104.896 C185.096,104.352 184.904,103.744 184.776,103.072 C184.648,102.4 184.584,101.76 184.584,101.152 L184.584,101.152 L184.584,96.4 C184.584,93.52 184.552,90.656 184.488,87.808 C184.424,84.96 184.248,82.128 183.96,79.312 C183.672,76.496 183.208,73.68 182.568,70.864 C181.928,68.048 181.032,65.2 179.88,62.32 C180.52,58.672 181.08,54.96 181.56,51.184 C182.04,47.408 182.28,44.048 182.28,41.104 C182.28,39.184 181.832,37.68 180.936,36.592 C180.04,35.504 178.904,34.704 177.528,34.192 C176.152,33.68 174.68,33.36 173.112,33.232 C171.544,33.104 170.088,33.04 168.744,33.04 L168.744,33.04 L159.432,33.04 C160.584,34.064 161.256,35.92 161.448,38.608 L161.448,38.608 L161.832,101.008 C161.832,103.376 161.064,105.04 159.528,106 L159.528,106 L171.72,106 Z M169.32,72.304 L169.128,40.72 C170.92,40.72 172.264,40.8 173.16,40.96 C174.056,41.12 174.504,41.456 174.504,41.968 C174.504,44.912 174.344,48 174.024,51.232 C173.704,54.464 173.288,57.52 172.776,60.4 C172.264,63.28 171.704,65.792 171.096,67.936 C170.488,70.08 169.896,71.536 169.32,72.304 L169.32,72.304 Z M195.104,106 C197.856,106 200.192,104.896 202.112,102.688 C204.032,100.48 205.648,97.68 206.96,94.288 C208.272,90.896 209.28,87.216 209.984,83.248 C210.688,79.28 211.168,75.504 211.424,71.92 C211.68,68.784 211.904,66.208 212.096,64.192 C212.288,62.176 212.448,60.336 212.576,58.672 C212.704,57.008 212.8,55.312 212.864,53.584 C212.928,51.856 212.96,49.712 212.96,47.152 C212.96,37.744 208.032,33.04 198.176,33.04 L198.176,33.04 L187.136,33.04 C188.416,34.704 189.056,36.272 189.056,37.744 L189.056,37.744 L189.056,101.008 C189.056,103.376 188.32,105.04 186.848,106 L186.848,106 L195.104,106 Z M196.736,98.032 L196.736,40.912 C198.848,40.976 200.48,41.136 201.632,41.392 C202.784,41.648 203.648,42.048 204.224,42.592 C204.8,43.136 205.136,43.872 205.232,44.8 C205.328,45.728 205.376,46.896 205.376,48.304 C205.376,51.056 205.28,53.44 205.088,55.456 C204.896,57.472 204.736,58.928 204.608,59.824 C204.416,61.296 204.24,63.168 204.08,65.44 C203.92,67.712 203.712,70.144 203.456,72.736 C203.2,75.328 202.896,77.968 202.544,80.656 C202.192,83.344 201.76,85.856 201.248,88.192 C200.736,90.528 200.112,92.576 199.376,94.336 C198.64,96.096 197.76,97.328 196.736,98.032 L196.736,98.032 Z M222.712,106 L222.712,88.912 C222.712,87.696 222.744,86.384 222.808,84.976 C222.872,83.568 222.904,82.064 222.904,80.464 C223.608,80.656 224.472,81.024 225.496,81.568 C226.52,82.112 227.56,82.736 228.616,83.44 C229.672,84.144 230.664,84.88 231.592,85.648 C232.52,86.416 233.272,87.184 233.848,87.952 L233.848,87.952 L233.848,106 L241.624,106 L241.624,88.912 C241.624,86.224 241.48,82.992 241.192,79.216 C240.904,75.44 240.472,71.456 239.896,67.264 C239.32,63.072 238.632,58.864 237.832,54.64 C237.032,50.416 236.12,46.576 235.096,43.12 C234.648,41.712 234.168,40.432 233.656,39.28 C233.144,38.128 232.888,37.2 232.888,36.496 C232.888,35.408 233.304,34.256 234.136,33.04 L234.136,33.04 L222.424,33.04 C223.256,34.32 223.672,35.504 223.672,36.592 C223.672,37.296 223.4,38.224 222.856,39.376 C222.312,40.528 221.848,41.776 221.464,43.12 C220.44,46.64 219.528,50.496 218.728,54.688 C217.928,58.88 217.24,63.072 216.664,67.264 C216.088,71.456 215.656,75.44 215.368,79.216 C215.08,82.992 214.936,86.224 214.936,88.912 L214.936,88.912 L214.936,106 L222.712,106 Z M233.464,78.832 C231.544,77.168 229.784,75.904 228.184,75.04 C226.584,74.176 225.08,73.456 223.672,72.88 C224.12,68.656 224.744,64.368 225.544,60.016 C226.344,55.664 227.288,51.472 228.376,47.44 C229.016,49.936 229.608,52.512 230.152,55.168 C230.696,57.824 231.192,60.512 231.64,63.232 C232.088,65.952 232.456,68.64 232.744,71.296 C233.032,73.952 233.272,76.464 233.464,78.832 Z M233.848,84.688 C231.544,82.768 229.512,81.312 227.752,80.32 C225.992,79.328 224.472,78.672 223.192,78.352 C223.256,77.84 223.304,77.328 223.336,76.816 C223.368,76.304 223.384,75.728 223.384,75.088 C225.816,76.112 227.816,77.2 229.384,78.352 C230.952,79.504 232.408,80.72 233.752,82 L233.752,82 L233.752,83.584 C233.752,84 233.784,84.368 233.848,84.688 Z M255.312,106 C253.776,105.04 253.008,103.376 253.008,101.008 L253.008,101.008 L253.008,45.52 C253.904,48.016 254.72,50.832 255.456,53.968 C256.192,57.104 256.8,60.208 257.28,63.28 C257.76,66.352 258.128,69.232 258.384,71.92 C258.64,74.608 258.768,76.752 258.768,78.352 L258.768,78.352 L266.448,78.352 C266.448,76.432 266.544,74.224 266.736,71.728 C266.928,69.232 267.248,66.56 267.696,63.712 C268.144,60.864 268.736,57.888 269.472,54.784 C270.208,51.68 271.12,48.56 272.208,45.424 L272.208,45.424 L272.208,101.008 C272.208,103.376 271.472,105.04 270,106 L270,106 L282.192,106 C280.656,105.04 279.888,103.376 279.888,101.008 L279.888,101.008 L279.888,37.744 C279.888,36.272 280.528,34.704 281.808,33.04 L281.808,33.04 L275.76,33.04 C274.16,33.04 272.688,33.504 271.344,34.432 C270,35.36 268.784,36.624 267.696,38.224 C266.608,39.824 265.632,41.664 264.768,43.744 C263.904,45.824 263.184,48.016 262.608,50.32 C262.288,49.04 261.792,47.424 261.12,45.472 C260.448,43.52 259.584,41.616 258.528,39.76 C257.472,37.904 256.192,36.32 254.688,35.008 C253.184,33.696 251.44,33.04 249.456,33.04 L249.456,33.04 L243.408,33.04 C244.688,34.704 245.328,36.272 245.328,37.744 L245.328,37.744 L245.328,101.008 C245.328,103.376 244.592,105.04 243.12,106 L243.12,106 L255.312,106 Z M299.816,90.064 C304.936,90.064 309.032,85.36 312.104,75.952 C312.488,74.736 312.904,73.264 313.352,71.536 C313.8,69.808 314.216,67.968 314.6,66.016 C314.984,64.064 315.304,62 315.56,59.824 C315.816,57.648 315.944,55.504 315.944,53.392 C315.944,50.128 315.592,47.056 314.888,44.176 C314.184,41.296 312.936,38.928 311.144,37.072 C308.584,34.32 304.808,32.944 299.816,32.944 C296.68,32.944 294.088,33.472 292.04,34.528 C289.992,35.584 288.344,37.024 287.096,38.848 C285.848,40.672 284.968,42.8 284.456,45.232 C283.944,47.664 283.688,50.224 283.688,52.912 C283.688,55.152 283.8,57.344 284.024,59.488 C284.248,61.632 284.552,63.696 284.936,65.68 C285.32,67.664 285.736,69.536 286.184,71.296 C286.632,73.056 287.08,74.608 287.528,75.952 C290.472,85.36 294.568,90.064 299.816,90.064 Z M299.816,82.384 C298.472,82.384 296.84,79.44 294.92,73.552 C294.664,72.784 294.328,71.616 293.912,70.048 C293.496,68.48 293.096,66.704 292.712,64.72 C292.328,62.736 291.992,60.64 291.704,58.432 C291.416,56.224 291.272,54.128 291.272,52.144 C291.272,50.416 291.384,48.848 291.608,47.44 C291.832,46.032 292.264,44.832 292.904,43.84 C293.544,42.848 294.424,42.08 295.544,41.536 C296.664,40.992 298.088,40.72 299.816,40.72 C302.568,40.72 304.488,41.296 305.576,42.448 C306.536,43.472 307.208,44.768 307.592,46.336 C307.976,47.904 308.168,49.904 308.168,52.336 C308.168,53.36 308.152,54.368 308.12,55.36 C308.088,56.352 308.008,57.36 307.88,58.384 C307.304,62.992 306.616,66.832 305.816,69.904 C305.016,72.976 304.232,75.44 303.464,77.296 C302.696,79.152 301.976,80.464 301.304,81.232 C300.632,82 300.136,82.384 299.816,82.384 Z M299.816,106 C303.464,106 305.288,104.24 305.288,100.72 C305.288,97.2 303.464,95.44 299.816,95.44 C296.232,95.44 294.44,97.2 294.44,100.72 C294.44,104.24 296.232,106 299.816,106 Z M329.536,106 C328,105.04 327.232,103.376 327.232,101.008 L327.232,101.008 L327.232,41.968 C329.216,43.504 330.96,45.792 332.464,48.832 C333.968,51.872 335.216,55.28 336.208,59.056 C337.2,62.832 337.936,66.752 338.416,70.816 C338.896,74.88 339.136,78.672 339.136,82.192 L339.136,82.192 L339.136,101.008 C339.136,103.312 338.336,104.976 336.736,106 L336.736,106 L349.024,106 C347.488,105.04 346.72,103.376 346.72,101.008 L346.72,101.008 L346.72,37.744 C346.72,36.464 347.36,34.896 348.64,33.04 L348.64,33.04 L337.12,33.04 C338.464,34.768 339.136,36.336 339.136,37.744 L339.136,37.744 L339.136,45.232 C337.664,42.48 336.24,40.288 334.864,38.656 C333.488,37.024 332.032,35.792 330.496,34.96 C328.96,34.128 327.296,33.6 325.504,33.376 C323.712,33.152 321.696,33.04 319.456,33.04 L319.456,33.04 L317.632,33.04 C318.912,34.704 319.552,36.272 319.552,37.744 L319.552,37.744 L319.552,101.008 C319.552,103.376 318.816,105.04 317.344,106 L317.344,106 L329.536,106 Z M371.448,106 C368.632,102.032 366.36,97.712 364.632,93.04 C362.904,88.368 361.56,83.536 360.6,78.544 C359.64,73.552 358.968,68.528 358.584,63.472 C358.2,58.416 357.944,53.488 357.816,48.688 C357.816,47.152 357.896,45.856 358.056,44.8 C358.216,43.744 358.568,42.912 359.112,42.304 C359.656,41.696 360.392,41.248 361.32,40.96 C362.248,40.672 363.48,40.528 365.016,40.528 C366.104,40.528 366.952,40.688 367.56,41.008 C368.168,41.328 368.664,42 369.048,43.024 L369.048,43.024 L369.912,32.944 C369.208,32.88 368.568,32.848 367.992,32.848 L367.992,32.848 L366.264,32.848 C362.488,32.848 359.544,33.312 357.432,34.24 C355.32,35.168 353.72,36.464 352.632,38.128 C351.544,39.792 350.872,41.776 350.616,44.08 C350.36,46.384 350.232,48.912 350.232,51.664 C350.232,56.08 350.44,60.656 350.856,65.392 C351.272,70.128 351.96,74.848 352.92,79.552 C353.88,84.256 355.128,88.864 356.664,93.376 C358.2,97.888 360.088,102.096 362.328,106 L362.328,106 L371.448,106 Z M383.312,106 C381.776,105.04 381.008,103.376 381.008,101.008 L381.008,101.008 L381.008,52.912 C382.544,52.336 384.144,52.048 385.808,52.048 C387.536,52.048 389.232,52.368 390.896,53.008 L390.896,53.008 L390.896,101.008 C390.896,103.312 390.128,104.976 388.592,106 L388.592,106 L400.688,106 C399.216,104.912 398.48,103.248 398.48,101.008 L398.48,101.008 L398.48,37.744 C398.48,36.336 399.152,34.768 400.496,33.04 L400.496,33.04 L388.88,33.04 C390.224,34.768 390.896,36.336 390.896,37.744 L390.896,37.744 L390.896,45.808 C389.36,45.36 387.728,45.136 386,45.136 C384.208,45.136 382.544,45.36 381.008,45.808 L381.008,45.808 L381.008,37.744 C381.008,36.272 381.648,34.704 382.928,33.04 L382.928,33.04 L371.408,33.04 C372.688,34.704 373.328,36.272 373.328,37.744 L373.328,37.744 L373.328,101.008 C373.328,103.376 372.592,105.04 371.12,106 L371.12,106 L383.312,106 Z M390.896,50.704 C390,50.384 389.152,50.176 388.352,50.08 C387.552,49.984 386.736,49.936 385.904,49.936 C384.176,49.936 382.544,50.16 381.008,50.608 L381.008,50.608 L381.008,48.112 C382.608,47.536 384.272,47.248 386,47.248 C387.6,47.248 389.232,47.536 390.896,48.112 L390.896,48.112 L390.896,50.704 Z M409.864,106 L409.864,88.912 C409.864,87.696 409.896,86.384 409.96,84.976 C410.024,83.568 410.056,82.064 410.056,80.464 C410.76,80.656 411.624,81.024 412.648,81.568 C413.672,82.112 414.712,82.736 415.768,83.44 C416.824,84.144 417.816,84.88 418.744,85.648 C419.672,86.416 420.424,87.184 421,87.952 L421,87.952 L421,106 L428.776,106 L428.776,88.912 C428.776,86.224 428.632,82.992 428.344,79.216 C428.056,75.44 427.624,71.456 427.048,67.264 C426.472,63.072 425.784,58.864 424.984,54.64 C424.184,50.416 423.272,46.576 422.248,43.12 C421.8,41.712 421.32,40.432 420.808,39.28 C420.296,38.128 420.04,37.2 420.04,36.496 C420.04,35.408 420.456,34.256 421.288,33.04 L421.288,33.04 L409.576,33.04 C410.408,34.32 410.824,35.504 410.824,36.592 C410.824,37.296 410.552,38.224 410.008,39.376 C409.464,40.528 409,41.776 408.616,43.12 C407.592,46.64 406.68,50.496 405.88,54.688 C405.08,58.88 404.392,63.072 403.816,67.264 C403.24,71.456 402.808,75.44 402.52,79.216 C402.232,82.992 402.088,86.224 402.088,88.912 L402.088,88.912 L402.088,106 L409.864,106 Z M420.616,78.832 C418.696,77.168 416.936,75.904 415.336,75.04 C413.736,74.176 412.232,73.456 410.824,72.88 C411.272,68.656 411.896,64.368 412.696,60.016 C413.496,55.664 414.44,51.472 415.528,47.44 C416.168,49.936 416.76,52.512 417.304,55.168 C417.848,57.824 418.344,60.512 418.792,63.232 C419.24,65.952 419.608,68.64 419.896,71.296 C420.184,73.952 420.424,76.464 420.616,78.832 Z M421,84.688 C418.696,82.768 416.664,81.312 414.904,80.32 C413.144,79.328 411.624,78.672 410.344,78.352 C410.408,77.84 410.456,77.328 410.488,76.816 C410.52,76.304 410.536,75.728 410.536,75.088 C412.968,76.112 414.968,77.2 416.536,78.352 C418.104,79.504 419.56,80.72 420.904,82 L420.904,82 L420.904,83.584 C420.904,84 420.936,84.368 421,84.688 Z M442.56,106 C441.024,105.04 440.256,103.376 440.256,101.008 L440.256,101.008 L440.256,37.744 C440.256,36.272 440.896,34.704 442.176,33.04 L442.176,33.04 L430.656,33.04 C431.936,34.704 432.576,36.272 432.576,37.744 L432.576,37.744 L432.576,101.008 C432.576,103.376 431.84,105.04 430.368,106 L430.368,106 L442.56,106 Z" id="Cardamonchai" fill="#5C9B72" fill-rule="nonzero"></path>
        <path d="M180.86,131 L180.86,122.06 L184.16,122.06 C184.664,122.06 185.136,122.0312 185.576,121.9736 L185.762,121.946 L191.33,131 L193.04,131 L187.273,121.546 L187.34,121.52 C188.104444,121.2 188.742469,120.785185 189.254074,120.275556 L189.44,120.08 C189.98,119.48 190.37,118.805 190.61,118.055 C190.85,117.305 190.97,116.53 190.97,115.73 C190.97,114.67 190.77,113.76 190.37,113 C189.97,112.24 189.445,111.615 188.795,111.125 C188.145,110.635 187.425,110.275 186.635,110.045 C185.845,109.815 185.05,109.7 184.25,109.7 L184.25,109.7 L179.39,109.7 L179.39,131 L180.86,131 Z M184.07,120.65 L180.86,120.65 L180.86,111.11 L184.46,111.11 C185.22,111.11 185.91,111.235 186.53,111.485 C187.15,111.735 187.68,112.075 188.12,112.505 C188.56,112.935 188.895,113.43 189.125,113.99 C189.355,114.55 189.47,115.15 189.47,115.79 C189.47,116.33 189.385,116.885 189.215,117.455 C189.045,118.025 188.76,118.55 188.36,119.03 C187.96,119.51 187.41,119.9 186.71,120.2 C186.01,120.5 185.13,120.65 184.07,120.65 L184.07,120.65 Z M201.36,131.24 C202.54,131.24 203.605,130.965 204.555,130.415 C205.505,129.865 206.25,129.12 206.79,128.18 C207.33,127.24 207.6,126.2 207.6,125.06 C207.6,123.92 207.33,122.88 206.79,121.94 C206.25,121 205.51,120.255 204.57,119.705 C203.63,119.155 202.56,118.88 201.36,118.88 C200.18,118.88 199.115,119.155 198.165,119.705 C197.215,120.255 196.465,121 195.915,121.94 C195.365,122.88 195.09,123.92 195.09,125.06 C195.09,126.26 195.365,127.325 195.915,128.255 C196.465,129.185 197.21,129.915 198.15,130.445 C199.09,130.975 200.16,131.24 201.36,131.24 Z M201.33,130.04 C200.43,130.04 199.615,129.82 198.885,129.38 C198.155,128.94 197.575,128.345 197.145,127.595 C196.715,126.845 196.5,126.01 196.5,125.09 C196.5,124.23 196.71,123.42 197.13,122.66 C197.55,121.9 198.125,121.285 198.855,120.815 C199.585,120.345 200.41,120.11 201.33,120.11 C202.23,120.11 203.045,120.335 203.775,120.785 C204.505,121.235 205.085,121.835 205.515,122.585 C205.945,123.335 206.16,124.17 206.16,125.09 C206.16,126.01 205.945,126.845 205.515,127.595 C205.085,128.345 204.505,128.94 203.775,129.38 C203.045,129.82 202.23,130.04 201.33,130.04 Z M215.65,131.24 C216.39,131.24 217.1,131.12 217.78,130.88 C218.46,130.64 219.07,130.3 219.61,129.86 L219.61,129.86 L218.83,128.99 C218.41,129.31 217.94,129.565 217.42,129.755 C216.9,129.945 216.34,130.04 215.74,130.04 C214.82,130.04 213.985,129.82 213.235,129.38 C212.485,128.94 211.895,128.345 211.465,127.595 C211.035,126.845 210.82,126.02 210.82,125.12 C210.82,124.2 211.035,123.365 211.465,122.615 C211.895,121.865 212.475,121.27 213.205,120.83 C213.935,120.39 214.74,120.17 215.62,120.17 C216.26,120.17 216.86,120.28 217.42,120.5 C217.98,120.72 218.47,121 218.89,121.34 L218.89,121.34 L219.64,120.38 C219.12,119.94 218.51,119.6 217.81,119.36 C217.11,119.12 216.35,119 215.53,119 C214.43,119 213.415,119.265 212.485,119.795 C211.555,120.325 210.81,121.05 210.25,121.97 C209.69,122.89 209.41,123.94 209.41,125.12 C209.41,126.3 209.68,127.35 210.22,128.27 C210.76,129.19 211.5,129.915 212.44,130.445 C213.38,130.975 214.45,131.24 215.65,131.24 Z M223.7,131 L223.699,126.319 L225.694,124.565 L230.21,131 L231.86,131 L226.649,123.727 L231.14,119.78 L230.27,119.03 L223.699,124.803 L223.7,108.2 L222.29,108.2 L222.29,131 L223.7,131 Z M234.06,113.93 C234.48,113.61 234.83,113.21 235.11,112.73 C235.39,112.25 235.59,111.735 235.71,111.185 C235.83,110.635 235.83,110.09 235.71,109.55 L235.71,109.55 L234.42,109.76 C234.56,110.46 234.525,111.13 234.315,111.77 C234.105,112.41 233.79,112.93 233.37,113.33 L233.37,113.33 L234.06,113.93 Z M239.92,131 L239.92,124.7 C239.92,123.8 240.125,123.01 240.535,122.33 C240.945,121.65 241.49,121.12 242.17,120.74 C242.85,120.36 243.58,120.17 244.36,120.17 C245.24,120.19 245.91,120.45 246.37,120.95 C246.83,121.45 247.07,122.08 247.09,122.84 L247.09,122.84 L247.09,131 L248.53,131 L248.53,122.45 C248.51,121.41 248.16,120.565 247.48,119.915 C246.8,119.265 245.91,118.94 244.81,118.94 C243.65,118.94 242.595,119.235 241.645,119.825 C240.853333,120.316667 240.273472,120.957639 239.905417,121.747917 L239.845,121.887 L239.74,119.27 L238.51,119.27 L238.51,131 L239.92,131 Z M252.11,113.93 C252.53,113.61 252.88,113.21 253.16,112.73 C253.44,112.25 253.64,111.735 253.76,111.185 C253.88,110.635 253.88,110.09 253.76,109.55 L253.76,109.55 L252.47,109.76 C252.61,110.46 252.575,111.13 252.365,111.77 C252.155,112.41 251.84,112.93 251.42,113.33 L251.42,113.33 L252.11,113.93 Z M258.75,131 L258.75,122.06 L262.05,122.06 C262.554,122.06 263.026,122.0312 263.466,121.9736 L263.652,121.946 L269.22,131 L270.93,131 L265.162,121.546 L265.23,121.52 C265.994444,121.2 266.632469,120.785185 267.144074,120.275556 L267.33,120.08 C267.87,119.48 268.26,118.805 268.5,118.055 C268.74,117.305 268.86,116.53 268.86,115.73 C268.86,114.67 268.66,113.76 268.26,113 C267.86,112.24 267.335,111.615 266.685,111.125 C266.035,110.635 265.315,110.275 264.525,110.045 C263.735,109.815 262.94,109.7 262.14,109.7 L262.14,109.7 L257.28,109.7 L257.28,131 L258.75,131 Z M261.96,120.65 L258.75,120.65 L258.75,111.11 L262.35,111.11 C263.11,111.11 263.8,111.235 264.42,111.485 C265.04,111.735 265.57,112.075 266.01,112.505 C266.45,112.935 266.785,113.43 267.015,113.99 C267.245,114.55 267.36,115.15 267.36,115.79 C267.36,116.33 267.275,116.885 267.105,117.455 C266.935,118.025 266.65,118.55 266.25,119.03 C265.85,119.51 265.3,119.9 264.6,120.2 C263.9,120.5 263.02,120.65 261.96,120.65 L261.96,120.65 Z M279.25,131.24 C280.43,131.24 281.495,130.965 282.445,130.415 C283.395,129.865 284.14,129.12 284.68,128.18 C285.22,127.24 285.49,126.2 285.49,125.06 C285.49,123.92 285.22,122.88 284.68,121.94 C284.14,121 283.4,120.255 282.46,119.705 C281.52,119.155 280.45,118.88 279.25,118.88 C278.07,118.88 277.005,119.155 276.055,119.705 C275.105,120.255 274.355,121 273.805,121.94 C273.255,122.88 272.98,123.92 272.98,125.06 C272.98,126.26 273.255,127.325 273.805,128.255 C274.355,129.185 275.1,129.915 276.04,130.445 C276.98,130.975 278.05,131.24 279.25,131.24 Z M279.22,130.04 C278.32,130.04 277.505,129.82 276.775,129.38 C276.045,128.94 275.465,128.345 275.035,127.595 C274.605,126.845 274.39,126.01 274.39,125.09 C274.39,124.23 274.6,123.42 275.02,122.66 C275.44,121.9 276.015,121.285 276.745,120.815 C277.475,120.345 278.3,120.11 279.22,120.11 C280.12,120.11 280.935,120.335 281.665,120.785 C282.395,121.235 282.975,121.835 283.405,122.585 C283.835,123.335 284.05,124.17 284.05,125.09 C284.05,126.01 283.835,126.845 283.405,127.595 C282.975,128.345 282.395,128.94 281.665,129.38 C280.935,129.82 280.12,130.04 279.22,130.04 Z M289.85,131 L289.85,108.2 L288.44,108.2 L288.44,131 L289.85,131 Z M295.35,131 L295.35,108.2 L293.94,108.2 L293.94,131 L295.35,131 Z M311.69,131.45 L317.51,119.27 L315.95,119.27 L311.66,128.941 L307.22,119.27 L305.57,119.27 L311.51,131.45 L311.69,131.45 Z M324.72,131.24 C325.48,131.24 326.225,131.1 326.955,130.82 C327.685,130.54 328.33,130.18 328.89,129.74 L328.89,129.74 L328.17,128.72 C327.71,129.1 327.185,129.41 326.595,129.65 C326.005,129.89 325.39,130.01 324.75,130.01 C323.79,130.01 322.94,129.78 322.2,129.32 C321.46,128.86 320.885,128.25 320.475,127.49 C320.429444,127.405556 320.38642,127.32037 320.345926,127.234444 L320.323,127.183 L330.33,123.32 C329.945,122.11 329.337326,121.110069 328.506979,120.320208 L328.275,120.11 C327.325,119.29 326.15,118.88 324.75,118.88 C323.59,118.88 322.535,119.16 321.585,119.72 C320.635,120.28 319.88,121.03 319.32,121.97 C318.76,122.91 318.48,123.95 318.48,125.09 C318.48,126.25 318.745,127.295 319.275,128.225 C319.805,129.155 320.54,129.89 321.48,130.43 C322.42,130.97 323.5,131.24 324.72,131.24 Z M319.974,126.133 L319.928333,125.89 C319.882778,125.61 319.86,125.323333 319.86,125.03 C319.86,124.09 320.075,123.25 320.505,122.51 C320.935,121.77 321.51,121.18 322.23,120.74 C322.95,120.3 323.76,120.08 324.66,120.08 C325.66,120.08 326.505,120.37 327.195,120.95 C327.885,121.53 328.4,122.22 328.74,123.02 L328.622,122.763 L319.974,126.133 Z M338.2,136.73 C339.72,136.73 340.945,136.47 341.875,135.95 C342.805,135.43 343.485,134.745 343.915,133.895 C344.345,133.045 344.56,132.14 344.56,131.18 L344.56,131.18 L344.56,119.27 L343.3,119.27 L343.191,121.704 L343.063719,121.486033 C342.673636,120.864545 342.143388,120.338264 341.472975,119.90719 L341.215,119.75 C340.245,119.19 339.22,118.91 338.14,118.91 C336.98,118.91 335.92,119.175 334.96,119.705 C334,120.235 333.24,120.96 332.68,121.88 C332.12,122.8 331.84,123.87 331.84,125.09 C331.84,126.23 332.11,127.265 332.65,128.195 C333.19,129.125 333.915,129.865 334.825,130.415 C335.735,130.965 336.74,131.24 337.84,131.24 C339.14,131.24 340.305,130.91 341.335,130.25 C342.1075,129.755 342.702812,129.153125 343.120937,128.444375 L343.142,128.406 L343.12,131.15 C343.1025,131.85 342.970156,132.492578 342.722969,133.077734 L342.61,133.325 C342.29,133.975 341.77,134.495 341.05,134.885 C340.33,135.275 339.36,135.47 338.14,135.47 C337.44,135.47 336.72,135.325 335.98,135.035 C335.24,134.745 334.44,134.19 333.58,133.37 L333.58,133.37 L332.74,134.33 C333.36,134.91 333.96,135.38 334.54,135.74 C335.12,136.1 335.71,136.355 336.31,136.505 C336.91,136.655 337.54,136.73 338.2,136.73 Z M338.2,130.04 C337.28,130.04 336.445,129.815 335.695,129.365 C334.945,128.915 334.35,128.315 333.91,127.565 C333.47,126.815 333.25,125.98 333.25,125.06 C333.25,124.08 333.47,123.22 333.91,122.48 C334.35,121.74 334.945,121.16 335.695,120.74 C336.445,120.32 337.28,120.11 338.2,120.11 C339.02,120.11 339.775,120.28 340.465,120.62 C341.155,120.96 341.735,121.42 342.205,122 C342.675,122.58 342.99,123.25 343.15,124.01 L343.15,124.01 L343.15,125.75 C343.09,126.51 342.83,127.22 342.37,127.88 C341.91,128.54 341.32,129.065 340.6,129.455 C339.88,129.845 339.08,130.04 338.2,130.04 Z M353.51,131.24 C354.17,131.24 354.795,131.145 355.385,130.955 C355.975,130.765 356.515,130.505 357.005,130.175 C357.495,129.845 357.91,129.485 358.25,129.095 C358.363333,128.965 358.465556,128.834444 358.556667,128.703333 L358.67,128.529 L358.67,131 L360.08,131 L360.08,119.27 L358.82,119.27 L358.682,121.829 L358.605537,121.68314 C358.244545,121.041818 357.743388,120.485124 357.102066,120.013058 L356.855,119.84 C355.925,119.22 354.94,118.91 353.9,118.91 C352.68,118.91 351.59,119.155 350.63,119.645 C349.67,120.135 348.91,120.845 348.35,121.775 C347.79,122.705 347.51,123.82 347.51,125.12 C347.51,126.34 347.775,127.41 348.305,128.33 C348.835,129.25 349.555,129.965 350.465,130.475 C351.375,130.985 352.39,131.24 353.51,131.24 Z M353.81,130.04 C352.93,130.04 352.115,129.815 351.365,129.365 C350.615,128.915 350.02,128.315 349.58,127.565 C349.14,126.815 348.92,125.98 348.92,125.06 C348.92,124.06 349.14,123.19 349.58,122.45 C350.02,121.71 350.61,121.135 351.35,120.725 C352.09,120.315 352.9,120.11 353.78,120.11 C354.58,120.11 355.32,120.28 356,120.62 C356.68,120.96 357.255,121.42 357.725,122 C358.195,122.58 358.51,123.24 358.67,123.98 L358.67,123.98 L358.67,125.66 C358.61,126.52 358.36,127.28 357.92,127.94 C357.48,128.6 356.905,129.115 356.195,129.485 C355.485,129.855 354.69,130.04 353.81,130.04 Z M365.58,131 L365.58,124.7 C365.58,123.8 365.785,123.01 366.195,122.33 C366.605,121.65 367.15,121.12 367.83,120.74 C368.51,120.36 369.24,120.17 370.02,120.17 C370.9,120.19 371.57,120.45 372.03,120.95 C372.49,121.45 372.73,122.08 372.75,122.84 L372.75,122.84 L372.75,131 L374.19,131 L374.19,122.45 C374.17,121.41 373.82,120.565 373.14,119.915 C372.46,119.265 371.57,118.94 370.47,118.94 C369.31,118.94 368.255,119.235 367.305,119.825 C366.513333,120.316667 365.933472,120.957639 365.565417,121.747917 L365.506,121.885 L365.4,119.27 L364.17,119.27 L364.17,131 L365.58,131 Z" id="Rock’n’Rollvegan" fill-opacity="0.5" fill="#FFFFFF" fill-rule="nonzero"></path>
        <path d="M206,25 L208.822,17.95 L218.225,17.95 L221,25 L222.65,25 L213.65,2.77 L213.53,2.77 L204.53,25 L206,25 Z M217.681,16.57 L209.374,16.57 L213.563,6.107 L217.681,16.57 Z M227.01,25 L227.01,18.7 C227.01,17.8 227.215,17.01 227.625,16.33 C228.035,15.65 228.58,15.12 229.26,14.74 C229.94,14.36 230.67,14.17 231.45,14.17 C232.33,14.19 233,14.45 233.46,14.95 C233.92,15.45 234.16,16.08 234.18,16.84 L234.18,16.84 L234.18,25 L235.62,25 L235.62,16.45 C235.6,15.41 235.25,14.565 234.57,13.915 C233.89,13.265 233,12.94 231.9,12.94 C230.74,12.94 229.685,13.235 228.735,13.825 C227.943333,14.3166667 227.363472,14.9576389 226.995417,15.7479167 L226.936,15.885 L226.83,13.27 L225.6,13.27 L225.6,25 L227.01,25 Z M241.12,25 L241.12,18.7 C241.12,17.8 241.325,17.01 241.735,16.33 C242.145,15.65 242.69,15.12 243.37,14.74 C244.05,14.36 244.78,14.17 245.56,14.17 C246.44,14.19 247.11,14.45 247.57,14.95 C248.03,15.45 248.27,16.08 248.29,16.84 L248.29,16.84 L248.29,25 L249.73,25 L249.73,16.45 C249.71,15.41 249.36,14.565 248.68,13.915 C248,13.265 247.11,12.94 246.01,12.94 C244.85,12.94 243.795,13.235 242.845,13.825 C242.053333,14.3166667 241.473472,14.9576389 241.105417,15.7479167 L241.046,15.886 L240.94,13.27 L239.71,13.27 L239.71,25 L241.12,25 Z M258.92,25.24 C259.68,25.24 260.425,25.1 261.155,24.82 C261.885,24.54 262.53,24.18 263.09,23.74 L263.09,23.74 L262.37,22.72 C261.91,23.1 261.385,23.41 260.795,23.65 C260.205,23.89 259.59,24.01 258.95,24.01 C257.99,24.01 257.14,23.78 256.4,23.32 C255.66,22.86 255.085,22.25 254.675,21.49 C254.629444,21.4055556 254.58642,21.3203704 254.545926,21.2344444 L254.522,21.183 L264.53,17.32 C264.145,16.11 263.537326,15.1100694 262.706979,14.3202083 L262.475,14.11 C261.525,13.29 260.35,12.88 258.95,12.88 C257.79,12.88 256.735,13.16 255.785,13.72 C254.835,14.28 254.08,15.03 253.52,15.97 C252.96,16.91 252.68,17.95 252.68,19.09 C252.68,20.25 252.945,21.295 253.475,22.225 C254.005,23.155 254.74,23.89 255.68,24.43 C256.62,24.97 257.7,25.24 258.92,25.24 Z M254.174,20.134 L254.128333,19.89 C254.082778,19.61 254.06,19.3233333 254.06,19.03 C254.06,18.09 254.275,17.25 254.705,16.51 C255.135,15.77 255.71,15.18 256.43,14.74 C257.15,14.3 257.96,14.08 258.86,14.08 C259.86,14.08 260.705,14.37 261.395,14.95 C262.085,15.53 262.6,16.22 262.94,17.02 L262.822,16.763 L254.174,20.134 Z M281.71,25.24 C282.81,25.24 283.82,25 284.74,24.52 C285.66,24.04 286.4,23.335 286.96,22.405 C287.52,21.475 287.8,20.35 287.8,19.03 C287.8,17.85 287.535,16.8 287.005,15.88 C286.475,14.96 285.76,14.235 284.86,13.705 C283.96,13.175 282.96,12.91 281.86,12.91 C280.66,12.91 279.56,13.185 278.56,13.735 C277.726667,14.1933333 277.080833,14.7801389 276.6225,15.4954167 L276.55,15.615 L276.55,2.2 L275.14,2.2 L275.14,25 L276.55,25 L276.55,22.501 L276.685496,22.7033884 C277.070207,23.2460331 277.562231,23.7238843 278.16157,24.1369421 L278.425,24.31 C279.415,24.93 280.51,25.24 281.71,25.24 Z M281.47,24.01 C280.59,24.01 279.79,23.815 279.07,23.425 C278.35,23.035 277.77,22.52 277.33,21.88 C276.89,21.24 276.63,20.55 276.55,19.81 L276.55,19.81 L276.55,17.98 C276.71,17.22 277.02,16.55 277.48,15.97 C277.94,15.39 278.515,14.93 279.205,14.59 C279.895,14.25 280.65,14.08 281.47,14.08 C282.45,14.08 283.305,14.305 284.035,14.755 C284.765,15.205 285.335,15.805 285.745,16.555 C286.155,17.305 286.36,18.13 286.36,19.03 C286.36,19.99 286.16,20.845 285.76,21.595 C285.36,22.345 284.795,22.935 284.065,23.365 C283.335,23.795 282.47,24.01 281.47,24.01 Z M292.16,25 L292.16,2.2 L290.75,2.2 L290.75,25 L292.16,25 Z M301.38,25.24 C302.56,25.24 303.625,24.965 304.575,24.415 C305.525,23.865 306.27,23.12 306.81,22.18 C307.35,21.24 307.62,20.2 307.62,19.06 C307.62,17.92 307.35,16.88 306.81,15.94 C306.27,15 305.53,14.255 304.59,13.705 C303.65,13.155 302.58,12.88 301.38,12.88 C300.2,12.88 299.135,13.155 298.185,13.705 C297.235,14.255 296.485,15 295.935,15.94 C295.385,16.88 295.11,17.92 295.11,19.06 C295.11,20.26 295.385,21.325 295.935,22.255 C296.485,23.185 297.23,23.915 298.17,24.445 C299.11,24.975 300.18,25.24 301.38,25.24 Z M301.35,24.04 C300.45,24.04 299.635,23.82 298.905,23.38 C298.175,22.94 297.595,22.345 297.165,21.595 C296.735,20.845 296.52,20.01 296.52,19.09 C296.52,18.23 296.73,17.42 297.15,16.66 C297.57,15.9 298.145,15.285 298.875,14.815 C299.605,14.345 300.43,14.11 301.35,14.11 C302.25,14.11 303.065,14.335 303.795,14.785 C304.525,15.235 305.105,15.835 305.535,16.585 C305.965,17.335 306.18,18.17 306.18,19.09 C306.18,20.01 305.965,20.845 305.535,21.595 C305.105,22.345 304.525,22.94 303.795,23.38 C303.065,23.82 302.25,24.04 301.35,24.04 Z M315.79,30.73 C317.31,30.73 318.535,30.47 319.465,29.95 C320.395,29.43 321.075,28.745 321.505,27.895 C321.935,27.045 322.15,26.14 322.15,25.18 L322.15,25.18 L322.15,13.27 L320.89,13.27 L320.781,15.704 L320.653719,15.4860331 C320.263636,14.8645455 319.733388,14.3382645 319.062975,13.9071901 L318.805,13.75 C317.835,13.19 316.81,12.91 315.73,12.91 C314.57,12.91 313.51,13.175 312.55,13.705 C311.59,14.235 310.83,14.96 310.27,15.88 C309.71,16.8 309.43,17.87 309.43,19.09 C309.43,20.23 309.7,21.265 310.24,22.195 C310.78,23.125 311.505,23.865 312.415,24.415 C313.325,24.965 314.33,25.24 315.43,25.24 C316.73,25.24 317.895,24.91 318.925,24.25 C319.6975,23.755 320.292813,23.153125 320.710938,22.444375 L320.732,22.406 L320.71,25.15 C320.6925,25.85 320.560156,26.4925781 320.312969,27.0777344 L320.2,27.325 C319.88,27.975 319.36,28.495 318.64,28.885 C317.92,29.275 316.95,29.47 315.73,29.47 C315.03,29.47 314.31,29.325 313.57,29.035 C312.83,28.745 312.03,28.19 311.17,27.37 L311.17,27.37 L310.33,28.33 C310.95,28.91 311.55,29.38 312.13,29.74 C312.71,30.1 313.3,30.355 313.9,30.505 C314.5,30.655 315.13,30.73 315.79,30.73 Z M315.79,24.04 C314.87,24.04 314.035,23.815 313.285,23.365 C312.535,22.915 311.94,22.315 311.5,21.565 C311.06,20.815 310.84,19.98 310.84,19.06 C310.84,18.08 311.06,17.22 311.5,16.48 C311.94,15.74 312.535,15.16 313.285,14.74 C314.035,14.32 314.87,14.11 315.79,14.11 C316.61,14.11 317.365,14.28 318.055,14.62 C318.745,14.96 319.325,15.42 319.795,16 C320.265,16.58 320.58,17.25 320.74,18.01 L320.74,18.01 L320.74,19.75 C320.68,20.51 320.42,21.22 319.96,21.88 C319.5,22.54 318.91,23.065 318.19,23.455 C317.47,23.845 316.67,24.04 315.79,24.04 Z M331.46,30.73 C332.98,30.73 334.205,30.47 335.135,29.95 C336.065,29.43 336.745,28.745 337.175,27.895 C337.605,27.045 337.82,26.14 337.82,25.18 L337.82,25.18 L337.82,13.27 L336.56,13.27 L336.451,15.704 L336.323719,15.4860331 C335.933636,14.8645455 335.403388,14.3382645 334.732975,13.9071901 L334.475,13.75 C333.505,13.19 332.48,12.91 331.4,12.91 C330.24,12.91 329.18,13.175 328.22,13.705 C327.26,14.235 326.5,14.96 325.94,15.88 C325.38,16.8 325.1,17.87 325.1,19.09 C325.1,20.23 325.37,21.265 325.91,22.195 C326.45,23.125 327.175,23.865 328.085,24.415 C328.995,24.965 330,25.24 331.1,25.24 C332.4,25.24 333.565,24.91 334.595,24.25 C335.3675,23.755 335.962812,23.153125 336.380937,22.444375 L336.402,22.406 L336.38,25.15 C336.3625,25.85 336.230156,26.4925781 335.982969,27.0777344 L335.87,27.325 C335.55,27.975 335.03,28.495 334.31,28.885 C333.59,29.275 332.62,29.47 331.4,29.47 C330.7,29.47 329.98,29.325 329.24,29.035 C328.5,28.745 327.7,28.19 326.84,27.37 L326.84,27.37 L326,28.33 C326.62,28.91 327.22,29.38 327.8,29.74 C328.38,30.1 328.97,30.355 329.57,30.505 C330.17,30.655 330.8,30.73 331.46,30.73 Z M331.46,24.04 C330.54,24.04 329.705,23.815 328.955,23.365 C328.205,22.915 327.61,22.315 327.17,21.565 C326.73,20.815 326.51,19.98 326.51,19.06 C326.51,18.08 326.73,17.22 327.17,16.48 C327.61,15.74 328.205,15.16 328.955,14.74 C329.705,14.32 330.54,14.11 331.46,14.11 C332.28,14.11 333.035,14.28 333.725,14.62 C334.415,14.96 334.995,15.42 335.465,16 C335.935,16.58 336.25,17.25 336.41,18.01 L336.41,18.01 L336.41,19.75 C336.35,20.51 336.09,21.22 335.63,21.88 C335.17,22.54 334.58,23.065 333.86,23.455 C333.14,23.845 332.34,24.04 331.46,24.04 Z M344.52,25 L344.52,14.56 L348.15,14.56 L348.15,13.42 L344.52,13.42 L344.52,8.11 L343.08,8.11 L343.08,13.42 L340.59,13.42 L340.59,14.56 L343.08,14.56 L343.08,25 L344.52,25 Z" id="Annebloggt" fill-opacity="0.5" fill="#FFFFFF" fill-rule="nonzero"></path>
        <path d="M519.314596,89.0411452 C517.261017,82.0667381 516.492438,68.0969891 519.582401,68.0102367 C519.607351,62.9520461 519.432044,58.5708056 519.357918,54.4559342 C515.080388,56.9228513 514.993899,70.9189773 514.927009,80.2979721 C512.748961,73.9204089 510.374633,55.2056151 519.357918,50.0017638 C519.486501,48.1431174 519.461601,47.1120624 519.523821,45.1900958 C514.077993,45.0258502 509.065179,45.1021651 505.109049,45.238798 C502.584603,55.1968659 504.925251,71.9367312 513.380924,81.3572856 C506.263546,72.3007295 499.258043,63.7336745 500.661282,45.287693 C494.971394,45.2585258 488.925577,45.1802443 482.998279,45.287693 C483.150606,53.7121013 498.485114,72.5861246 509.84896,81.7690823 C504.696287,77.8968493 485.222736,67.4182295 478.013821,45.287693 C475.66268,45.4586733 472.853509,44.9703511 469.663817,45.2209638 C469.437756,51.5707527 469.829765,53.8548051 469.870763,61.2855269 C477.698138,67.2947448 496.987024,77.0382296 508.420108,83.1117147 C498.605094,79.7723647 485.853654,75.4301966 470.152576,66.5595419 C469.154461,71.9073494 469.681187,80.1551611 470.152576,83.7489819 C478.392702,82.2572491 500.110624,80.2231092 507.866687,84.7476862 C501.461889,84.012542 484.4124,80.350281 472.458116,88.990422 C479.757085,89.0020752 494.358873,89.1921831 500.661282,89.46313 C505.252791,85.9459601 509.214141,86.7516793 519.314596,89.0411452 Z" id="Path" fill="#5C9B72" transform="translate(494.584811, 67.280031) rotate(135.000000) translate(-494.584811, -67.280031) "></path>
        <path d="M79.314596,89.0411452 C77.2610172,82.0667381 76.4924379,68.0969891 79.5824009,68.0102367 C79.6073505,62.9520461 79.4320442,58.5708056 79.3579184,54.4559342 C75.0803877,56.9228513 74.9938986,70.9189773 74.9270087,80.2979721 C72.748961,73.9204089 70.3746334,55.2056151 79.3579184,50.0017638 C79.4865014,48.1431174 79.4616009,47.1120624 79.5238206,45.1900958 C74.0779931,45.0258502 69.0651795,45.1021651 65.109049,45.238798 C62.5846031,55.1968659 64.9252508,71.9367312 73.3809241,81.3572856 C66.2635462,72.3007295 59.2580426,63.7336745 60.6612816,45.287693 C54.9713937,45.2585258 48.925577,45.1802443 42.9982792,45.287693 C43.1506057,53.7121013 58.4851141,72.5861246 69.8489599,81.7690823 C64.6962868,77.8968493 45.2227361,67.4182295 38.0138208,45.287693 C35.66268,45.4586733 32.8535086,44.9703511 29.6638173,45.2209638 C29.4377563,51.5707527 29.8297645,53.8548051 29.8707629,61.2855269 C37.6981383,67.2947448 56.9870235,77.0382296 68.4201083,83.1117147 C58.6050938,79.7723647 45.8536542,75.4301966 30.152576,66.5595419 C29.1544613,71.9073494 29.6811867,80.1551611 30.152576,83.7489819 C38.3927018,82.2572491 60.1106243,80.2231092 67.8666873,84.7476862 C61.4618889,84.012542 44.4124002,80.350281 32.4581157,88.990422 C39.7570851,89.0020752 54.3588734,89.1921831 60.6612816,89.46313 C65.2527908,85.9459601 69.2141407,86.7516793 79.314596,89.0411452 Z" id="Path-Copy" fill="#5C9B72" transform="translate(54.584811, 67.280031) scale(-1, 1) rotate(135.000000) translate(-54.584811, -67.280031) "></path>
    </g>
</svg>