<?xml version="1.0" encoding="UTF-8"?>
<svg width="549px" height="140px" viewBox="0 0 549 140" version="1.1" xmlns="http://www.w3.org/2000/svg" xmlns:xlink="http://www.w3.org/1999/xlink">
    <title>schriftzug</title>
    <g id="schriftzug" stroke="none" stroke-width="1" fill="none" fill-rule="evenodd">
        <path d="M129.944,106 C127.128,102.032 124.856,97.712 123.128,93.04 C121.4,88.368 120.056,83.536 119.096,78.544 C118.136,73.552 117.464,68.528 117.08,63.472 C116.696,58.416 116.44,53.488 116.312,48.688 C116.312,47.152 116.392,45.856 116.552,44.8 C116.712,43.744 117.064,42.912 117.608,42.304 C118.152,41.696 118.888,41.248 119.816,40.96 C120.744,40.672 121.976,40.528 123.512,40.528 C124.6,40.528 125.448,40.688 126.056,41.008 C126.664,41.328 127.16,42 127.544,43.024 L127.544,43.024 L128.408,32.944 C127.704,32.88 127.064,32.848 126.488,32.848 L126.488,32.848 L124.76,32.848 C120.984,32.848 118.04,33.312 115.928,34.24 C113.816,35.168 112.216,36.464 111.128,38.128 C110.04,39.792 109.368,41.776 109.112,44.08 C108.856,46.384 108.728,48.912 108.728,51.664 C108.728,56.08 108.936,60.656 109.352,65.392 C109.768,70.128 110.456,74.848 111.416,79.552 C112.376,84.256 113.624,88.864 115.16,93.376 C116.696,97.888 118.584,102.096 120.824,106 L120.824,106 L129.944,106 Z M139.12,106 L139.12,88.912 C139.12,87.696 139.152,86.384 139.216,84.976 C139.28,83.568 139.312,82.064 139.312,80.464 C140.016,80.656 140.88,81.024 141.904,81.568 C142.928,82.112 143.968,82.736 145.024,83.44 C146.08,84.144 147.072,84.88 148,85.648 C148.928,86.416 149.68,87.184 150.256,87.952 L150.256,87.952 L150.256,106 L158.032,106 L158.032,88.912 C158.032,86.224 157.888,82.992 157.6,79.216 C157.312,75.44 156.88,71.456 156.304,67.264 C155.728,63.072 155.04,58.864 154.24,54.64 C153.44,50.416 152.528,46.576 151.504,43.12 C151.056,41.712 150.576,40.432 150.064,39.28 C149.552,38.128 149.296,37.2 149.296,36.496 C149.296,35.408 149.712,34.256 150.544,33.04 L150.544,33.04 L138.832,33.04 C139.664,34.32 140.08,35.504 140.08,36.592 C140.08,37.296 139.808,38.224 139.264,39.376 C138.72,40.528 138.256,41.776 137.872,43.12 C136.848,46.64 135.936,50.496 135.136,54.688 C134.336,58.88 133.648,63.072 133.072,67.264 C132.496,71.456 132.064,75.44 131.776,79.216 C131.488,82.992 131.344,86.224 131.344,88.912 L131.344,88.912 L131.344,106 L139.12,106 Z M149.872,78.832 C147.952,77.168 146.192,75.904 144.592,75.04 C142.992,74.176 141.488,73.456 140.08,72.88 C140.528,68.656 141.152,64.368 141.952,60.016 C142.752,55.664 143.696,51.472 144.784,47.44 C145.424,49.936 146.016,52.512 146.56,55.168 C147.104,57.824 147.6,60.512 148.048,63.232 C148.496,65.952 148.864,68.64 149.152,71.296 C149.44,73.952 149.68,76.464 149.872,78.832 Z M150.256,84.688 C147.952,82.768 145.92,81.312 144.16,80.32 C142.4,79.328 140.88,78.672 139.6,78.352 C139.664,77.84 139.712,77.328 139.744,76.816 C139.776,76.304 139.792,75.728 139.792,75.088 C142.224,76.112 144.224,77.2 145.792,78.352 C147.36,79.504 148.816,80.72 150.16,82 L150.16,82 L150.16,83.584 C150.16,84 150.192,84.368 150.256,84.688 Z M171.72,106 C170.248,105.04 169.512,103.376 169.512,101.008 L169.512,101.008 L169.512,93.424 C169.512,91.12 169.8,89.072 170.376,87.28 C170.952,85.488 171.56,84.112 172.2,83.152 C172.904,82.256 173.56,81.28 174.168,80.224 C174.776,79.168 175.336,78 175.848,76.72 C176.36,79.984 176.664,83.248 176.76,86.512 C176.856,89.776 176.904,93.04 176.904,96.304 C176.904,96.88 176.888,97.712 176.856,98.8 C176.824,99.888 176.856,100.96 176.952,102.016 C177.048,103.072 177.208,104 177.432,104.8 C177.656,105.6 178.056,106 178.632,106 L178.632,106 L186.6,106 C186.024,105.808 185.608,105.44 185.352,104.896 C185.096,104.352 184.904,103.744 184.776,103.072 C184.648,102.4 184.584,101.76 184.584,101.152 L184.584,101.152 L184.584,96.4 C184.584,93.52 184.552,90.656 184.488,87.808 C184.424,84.96 184.248,82.128 183.96,79.312 C183.672,76.496 183.208,73.68 182.568,70.864 C181.928,68.048 181.032,65.2 179.88,62.32 C180.52,58.672 181.08,54.96 181.56,51.184 C182.04,47.408 182.28,44.048 182.28,41.104 C182.28,39.184 181.832,37.68 180.936,36.592 C180.04,35.504 178.904,34.704 177.528,34.192 C176.152,33.68 174.68,33.36 173.112,33.232 C171.544,33.104 170.088,33.04 168.744,33.04 L168.744,33.04 L159.432,33.04 C160.584,34.064 161.256,35.92 161.448,38.608 L161.448,38.608 L161.832,101.008 C161.832,103.376 161.064,105.04 159.528,106 L159.528,106 L171.72,106 Z M169.32,72.304 L169.128,40.72 C170.92,40.72 172.264,40.8 173.16,40.96 C174.056,41.12 174.504,41.456 174.504,41.968 C174.504,44.912 174.344,48 174.024,51.232 C173.704,54.464 173.288,57.52 172.776,60.4 C172.264,63.28 171.704,65.792 171.096,67.936 C170.488,70.08 169.896,71.536 169.32,72.304 L169.32,72.304 Z M195.104,106 C197.856,106 200.192,104.896 202.112,102.688 C204.032,100.48 205.648,97.68 206.96,94.288 C208.272,90.896 209.28,87.216 209.984,83.248 C210.688,79.28 211.168,75.504 211.424,71.92 C211.68,68.784 211.904,66.208 212.096,64.192 C212.288,62.176 212.448,60.336 212.576,58.672 C212.704,57.008 212.8,55.312 212.864,53.584 C212.928,51.856 212.96,49.712 212.96,47.152 C212.96,37.744 208.032,33.04 198.176,33.04 L198.176,33.04 L187.136,33.04 C188.416,34.704 189.056,36.272 189.056,37.744 L189.056,37.744 L189.056,101.008 C189.056,103.376 188.32,105.04 186.848,106 L186.848,106 L195.104,106 Z M196.736,98.032 L196.736,40.912 C198.848,40.976 200.48,41.136 201.632,41.392 C202.784,41.648 203.648,42.048 204.224,42.592 C204.8,43.136 205.136,43.872 205.232,44.8 C205.328,45.728 205.376,46.896 205.376,48.304 C205.376,51.056 205.28,53.44 205.088,55.456 C204.896,57.472 204.736,58.928 204.608,59.824 C204.416,61.296 204.24,63.168 204.08,65.44 C203.92,67.712 203.712,70.144 203.456,72.736 C203.2,75.328 202.896,77.968 202.544,80.656 C202.192,83.344 201.76,85.856 201.248,88.192 C200.736,90.528 200.112,92.576 199.376,94.336 C198.64,96.096 197.76,97.328 196.736,98.032 L196.736,98.032 Z M222.712,106 L222.712,88.912 C222.712,87.696 222.744,86.384 222.808,84.976 C222.872,83.568 222.904,82.064 222.904,80.464 C223.608,80.656 224.472,81.024 225.496,81.568 C226.52,82.112 227.56,82.736 228.616,83.44 C229.672,84.144 230.664,84.88 231.592,85.648 C232.52,86.416 233.272,87.184 233.848,87.952 L233.848,87.952 L233.848,106 L241.624,106 L241.624,88.912 C241.624,86.224 241.48,82.992 241.192,79.216 C240.904,75.44 240.472,71.456 239.896,67.264 C239.32,63.072 238.632,58.864 237.832,54.64 C237.032,50.416 236.12,46.576 235.096,43.12 C234.648,41.712 234.168,40.432 233.656,39.28 C233.144,38.128 232.888,37.2 232.888,36.496 C232.888,35.408 233.304,34.256 234.136,33.04 L234.136,33.04 L222.424,33.04 C223.256,34.32 223.672,35.504 223.672,36.592 C223.672,37.296 223.4,38.224 222.856,39.376 C222.312,40.528 221.848,41.776 221.464,43.12 C220.44,46.64 219.528,50.496 218.728,54.688 C217.928,58.88 217.24,63.072 216.664,67.264 C216.088,71.456 215.656,75.44 215.368,79.216 C215.08,82.992 214.936,86.224 214.936,88.912 L214.936,88.912 L214.936,106 L222.712,106 Z M233.464,78.832 C231.544,77.168 229.784,75.904 228.184,75.04 C226.584,74.176 225.08,73.456 223.672,72.88 C224.12,68.656 224.744,64.368 225.544,60.016 C226.344,55.664 227.288,51.472 228.376,47.44 C229.016,49.936 229.608,52.512 230.152,55.168 C230.696,57.824 231.192,60.512 231.64,63.232 C232.088,65.952 232.456,68.64 232.744,71.296 C233.032,73.952 233.272,76.464 233.464,78.832 Z M233.848,84.688 C231.544,82.768 229.512,81.312 227.752,80.32 C225.992,79.328 224.472,78.672 223.192,78.352 C223.256,77.84 223.304,77.328 223.336,76.816 C223.368,76.304 223.384,75.728 223.384,75.088 C225.816,76.112 227.816,77.2 229.384,78.352 C230.952,79.504 232.408,80.72 233.752,82 L233.752,82 L233.752,83.584 C233.752,84 233.784,84.368 233.848,84.688 Z M255.312,106 C253.776,105.04 253.008,103.376 253.008,101.008 L253.008,101.008 L253.008,45.52 C253.904,48.016 254.72,50.832 255.456,53.968 C256.192,57.104 256.8,60.208 257.28,63.28 C257.76,66.352 258.128,69.232 258.384,71.92 C258.64,74.608 258.768,76.752 258.768,78.352 L258.768,78.352 L266.448,78.352 C266.448,76.432 266.544,74.224 266.736,71.728 C266.928,69.232 267.248,66.56 267.696,63.712 C268.144,60.864 268.736,57.888 269.472,54.784 C270.208,51.68 271.12,48.56 272.208,45.424 L272.208,45.424 L272.208,101.008 C272.208,103.376 271.472,105.04 270,106 L270,106 L282.192,106 C280.656,105.04 279.888,103.376 279.888,101.008 L279.888,101.008 L279.888,37.744 C279.888,36.272 280.528,34.704 281.808,33.04 L281.808,33.04 L275.76,33.04 C274.16,33.04 272.688,33.504 271.344,34.432 C270,35.36 268.784,36.624 267.696,38.224 C266.608,39.824 265.632,41.664 264.768,43.744 C263.904,45.824 263.184,48.016 262.608,50.32 C262.288,49.04 261.792,47.424 261.12,45.472 C260.448,43.52 259.584,41.616 258.528,39.76 C257.472,37.904 256.192,36.32 254.688,35.008 C253.184,33.696 251.44,33.04 249.456,33.04 L249.456,33.04 L243.408,33.04 C244.688,34.704 245.328,36.272 245.328,37.744 L245.328,37.744 L245.328,101.008 C245.328,103.376 244.592,105.04 243.12,106 L243.12,106 L255.312,106 Z M299.816,90.064 C304.936,90.064 309.032,85.36 312.104,75.952 C312.488,74.736 312.904,73.264 313.352,71.536 C313.8,69.808 314.216,67.968 314.6,66.016 C314.984,64.064 315.304,62 315.56,59.824 C315.816,57.648 315.944,55.504 315.944,53.392 C315.944,50.128 315.592,47.056 314.888,44.176 C314.184,41.296 312.936,38.928 311.144,37.072 C308.584,34.32 304.808,32.944 299.816,32.944 C296.68,32.944 294.088,33.472 292.04,34.528 C289.992,35.584 288.344,37.024 287.096,38.848 C285.848,40.672 284.968,42.8 284.456,45.232 C283.944,47.664 283.688,50.224 283.688,52.912 C283.688,55.152 283.8,57.344 284.024,59.488 C284.248,61.632 284.552,63.696 284.936,65.68 C285.32,67.664 285.736,69.536 286.184,71.296 C286.632,73.056 287.08,74.608 287.528,75.952 C290.472,85.36 294.568,90.064 299.816,90.064 Z M299.816,82.384 C298.472,82.384 296.84,79.44 294.92,73.552 C294.664,72.784 294.328,71.616 293.912,70.048 C293.496,68.48 293.096,66.704 292.712,64.72 C292.328,62.736 291.992,60.64 291.704,58.432 C291.416,56.224 291.272,54.128 291.272,52.144 C291.272,50.416 291.384,48.848 291.608,47.44 C291.832,46.032 292.264,44.832 292.904,43.84 C293.544,42.848 294.424,42.08 295.544,41.536 C296.664,40.992 298.088,40.72 299.816,40.72 C302.568,40.72 304.488,41.296 305.576,42.448 C306.536,43.472 307.208,44.768 307.592,46.336 C307.976,47.904 308.168,49.904 308.168,52.336 C308.168,53.36 308.152,54.368 308.12,55.36 C308.088,56.352 308.008,57.36 307.88,58.384 C307.304,62.992 306.616,66.832 305.816,69.904 C305.016,72.976 304.232,75.44 303.464,77.296 C302.696,79.152 301.976,80.464 301.304,81.232 C300.632,82 300.136,82.384 299.816,82.384 Z M299.816,106 C303.464,106 305.288,104.24 305.288,100.72 C305.288,97.2 303.464,95.44 299.816,95.44 C296.232,95.44 294.44,97.2 294.44,100.72 C294.44,104.24 296.232,106 299.816,106 Z M329.536,106 C328,105.04 327.232,103.376 327.232,101.008 L327.232,101.008 L327.232,41.968 C329.216,43.504 330.96,45.792 332.464,48.832 C333.968,51.872 335.216,55.28 336.208,59.056 C337.2,62.832 337.936,66.752 338.416,70.816 C338.896,74.88 339.136,78.672 339.136,82.192 L339.136,82.192 L339.136,101.008 C339.136,103.312 338.336,104.976 336.736,106 L336.736,106 L349.024,106 C347.488,105.04 346.72,103.376 346.72,101.008 L346.72,101.008 L346.72,37.744 C346.72,36.464 347.36,34.896 348.64,33.04 L348.64,33.04 L337.12,33.04 C338.464,34.768 339.136,36.336 339.136,37.744 L339.136,37.744 L339.136,45.232 C337.664,42.48 336.24,40.288 334.864,38.656 C333.488,37.024 332.032,35.792 330.496,34.96 C328.96,34.128 327.296,33.6 325.504,33.376 C323.712,33.152 321.696,33.04 319.456,33.04 L319.456,33.04 L317.632,33.04 C318.912,34.704 319.552,36.272 319.552,37.744 L319.552,37.744 L319.552,101.008 C319.552,103.376 318.816,105.04 317.344,106 L317.344,106 L329.536,106 Z M371.448,106 C368.632,102.032 366.36,97.712 364.632,93.04 C362.904,88.368 361.56,83.536 360.6,78.544 C359.64,73.552 358.968,68.528 358.584,63.472 C358.2,58.416 357.944,53.488 357.816,48.688 C357.816,47.152 357.896,45.856 358.056,44.8 C358.216,43.744 358.568,42.912 359.112,42.304 C359.656,41.696 360.392,41.248 361.32,40.96 C362.248,40.672 363.48,40.528 365.016,40.528 C366.104,40.528 366.952,40.688 367.56,41.008 C368.168,41.328 368.664,42 369.048,43.024 L369.048,43.024 L369.912,32.944 C369.208,32.88 368.568,32.848 367.992,32.848 L367.992,32.848 L366.264,32.848 C362.488,32.848 359.544,33.312 357.432,34.24 C355.32,35.168 353.72,36.464 352.632,38.128 C351.544,39.792 350.872,41.776 350.616,44.08 C350.36,46.384 350.232,48.912 350.232,51.664 C350.232,56.08 350.44,60.656 350.856,65.392 C351.272,70.128 351.96,74.848 352.92,79.552 C353.88,84.256 355.128,88.864 356.664,93.376 C358.2,97.888 360.088,102.096 362.328,106 L362.328,106 L371.448,106 Z M383.312,106 C381.776,105.04 381.008,103.376 381.008,101.008 L381.008,101.008 L381.008,52.912 C382.544,52.336 384.144,52.048 385.808,52.048 C387.536,52.048 389.232,52.368 390.896,53.008 L390.896,53.008 L390.896,101.008 C390.896,103.312 390.128,104.976 388.592,106 L388.592,106 L400.688,106 C399.216,104.912 398.48,103.248 398.48,101.008 L398.48,101.008 L398.48,37.744 C398.48,36.336 399.152,34.768 400.496,33.04 L400.496,33.04 L388.88,33.04 C390.224,34.768 390.896,36.336 390.896,37.744 L390.896,37.744 L390.896,45.808 C389.36,45.36 387.728,45.136 386,45.136 C384.208,45.136 382.544,45.36 381.008,45.808 L381.008,45.808 L381.008,37.744 C381.008,36.272 381.648,34.704 382.928,33.04 L382.928,33.04 L371.408,33.04 C372.688,34.704 373.328,36.272 373.328,37.744 L373.328,37.744 L373.328,101.008 C373.328,103.376 372.592,105.04 371.12,106 L371.12,106 L383.312,106 Z M390.896,50.704 C390,50.384 389.152,50.176 388.352,50.08 C387.552,49.984 386.736,49.936 385.904,49.936 C384.176,49.936 382.544,50.16 381.008,50.608 L381.008,50.608 L381.008,48.112 C382.608,47.536 384.272,47.248 386,47.248 C387.6,47.248 389.232,47.536 390.896,48.112 L390.896,48.112 L390.896,50.704 Z M409.864,106 L409.864,88.912 C409.864,87.696 409.896,86.384 409.96,84.976 C410.024,83.568 410.056,82.064 410.056,80.464 C410.76,80.656 411.624,81.024 412.648,81.568 C413.672,82.112 414.712,82.736 415.768,83.44 C416.824,84.144 417.816,84.88 418.744,85.648 C419.672,86.416 420.424,87.184 421,87.952 L421,87.952 L421,106 L428.776,106 L428.776,88.912 C428.776,86.224 428.632,82.992 428.344,79.216 C428.056,75.44 427.624,71.456 427.048,67.264 C426.472,63.072 425.784,58.864 424.984,54.64 C424.184,50.416 423.272,46.576 422.248,43.12 C421.8,41.712 421.32,40.432 420.808,39.28 C420.296,38.128 420.04,37.2 420.04,36.496 C420.04,35.408 420.456,34.256 421.288,33.04 L421.288,33.04 L409.576,33.04 C410.408,34.32 410.824,35.504 410.824,36.592 C410.824,37.296 410.552,38.224 410.008,39.376 C409.464,40.528 409,41.776 408.616,43.12 C407.592,46.64 406.68,50.496 405.88,54.688 C405.08,58.88 404.392,63.072 403.816,67.264 C403.24,71.456 402.808,75.44 402.52,79.216 C402.232,82.992 402.088,86.224 402.088,88.912 L402.088,88.912 L402.088,106 L409.864,106 Z M420.616,78.832 C418.696,77.168 416.936,75.904 415.336,75.04 C413.736,74.176 412.232,73.456 410.824,72.88 C411.272,68.656 411.896,64.368 412.696,60.016 C413.496,55.664 414.44,51.472 415.528,47.44 C416.168,49.936 416.76,52.512 417.304,55.168 C417.848,57.824 418.344,60.512 418.792,63.232 C419.24,65.952 419.608,68.64 419.896,71.296 C420.184,73.952 420.424,76.464 420.616,78.832 Z M421,84.688 C418.696,82.768 416.664,81.312 414.904,80.32 C413.144,79.328 411.624,78.672 410.344,78.352 C410.408,77.84 410.456,77.328 410.488,76.816 C410.52,76.304 410.536,75.728 410.536,75.088 C412.968,76.112 414.968,77.2 416.536,78.352 C418.104,79.504 419.56,80.72 420.904,82 L420.904,82 L420.904,83.584 C420.904,84 420.936,84.368 421,84.688 Z M442.56,106 C441.024,105.04 440.256,103.376 440.256,101.008 L440.256,101.008 L440.256,37.744 C440.256,36.272 440.896,34.704 442.176,33.04 L442.176,33.04 L430.656,33.04 C431.936,34.704 432.576,36.272 432.576,37.744 L432.576,37.744 L432.576,101.008 C432.576,103.376 431.84,105.04 430.368,106 L430.368,106 L442.56,106 Z" id="Cardamonchai" fill="#5C9B72" fill-rule="nonzero"></path>
        <path d="M179.698,132 L179.698,123.358 L182.888,123.358 C183.3752,123.358 183.831467,123.33016 184.2568,123.27448 L184.437,123.248 L189.819,132 L191.472,132 L185.898,122.861 L185.962,122.836 C186.689417,122.5315 187.298417,122.138188 187.789,121.656062 L187.992,121.444 C188.514,120.864 188.891,120.2115 189.123,119.4865 C189.355,118.7615 189.471,118.012333 189.471,117.239 C189.471,116.214333 189.277667,115.334667 188.891,114.6 C188.504333,113.865333 187.996833,113.261167 187.3685,112.7875 C186.740167,112.313833 186.044167,111.965833 185.2805,111.7435 C184.516833,111.521167 183.748333,111.41 182.975,111.41 L182.975,111.41 L178.277,111.41 L178.277,132 L179.698,132 Z M182.801,121.995 L179.698,121.995 L179.698,112.773 L183.178,112.773 C183.912667,112.773 184.579667,112.893833 185.179,113.1355 C185.778333,113.377167 186.290667,113.705833 186.716,114.1215 C187.141333,114.537167 187.465167,115.015667 187.6875,115.557 C187.909833,116.098333 188.021,116.678333 188.021,117.297 C188.021,117.819 187.938833,118.3555 187.7745,118.9065 C187.610167,119.4575 187.334667,119.965 186.948,120.429 C186.561333,120.893 186.029667,121.27 185.353,121.56 C184.676333,121.85 183.825667,121.995 182.801,121.995 L182.801,121.995 Z M199.998122,132.232 C201.138789,132.232 202.168289,131.966167 203.086622,131.4345 C204.004955,130.902833 204.725122,130.182667 205.247122,129.274 C205.769122,128.365333 206.030122,127.36 206.030122,126.258 C206.030122,125.156 205.769122,124.150667 205.247122,123.242 C204.725122,122.333333 204.009789,121.613167 203.101122,121.0815 C202.192455,120.549833 201.158122,120.284 199.998122,120.284 C198.857455,120.284 197.827955,120.549833 196.909622,121.0815 C195.991289,121.613167 195.266289,122.333333 194.734622,123.242 C194.202955,124.150667 193.937122,125.156 193.937122,126.258 C193.937122,127.418 194.202955,128.4475 194.734622,129.3465 C195.266289,130.2455 195.986455,130.951167 196.895122,131.4635 C197.803789,131.975833 198.838122,132.232 199.998122,132.232 Z M199.969122,131.072 C199.099122,131.072 198.311289,130.859333 197.605622,130.434 C196.899955,130.008667 196.339289,129.4335 195.923622,128.7085 C195.507955,127.9835 195.300122,127.176333 195.300122,126.287 C195.300122,125.455667 195.503122,124.672667 195.909122,123.938 C196.315122,123.203333 196.870955,122.608833 197.576622,122.1545 C198.282289,121.700167 199.079789,121.473 199.969122,121.473 C200.839122,121.473 201.626955,121.6905 202.332622,122.1255 C203.038289,122.5605 203.598955,123.1405 204.014622,123.8655 C204.430289,124.5905 204.638122,125.397667 204.638122,126.287 C204.638122,127.176333 204.430289,127.9835 204.014622,128.7085 C203.598955,129.4335 203.038289,130.008667 202.332622,130.434 C201.626955,130.859333 200.839122,131.072 199.969122,131.072 Z M214.295242,132.232 C215.010575,132.232 215.696908,132.116 216.354242,131.884 C217.011575,131.652 217.601242,131.323333 218.123242,130.898 L218.123242,130.898 L217.369242,130.057 C216.963242,130.366333 216.508908,130.612833 216.006242,130.7965 C215.503575,130.980167 214.962242,131.072 214.382242,131.072 C213.492908,131.072 212.685742,130.859333 211.960742,130.434 C211.235742,130.008667 210.665408,129.4335 210.249742,128.7085 C209.834075,127.9835 209.626242,127.186 209.626242,126.316 C209.626242,125.426667 209.834075,124.6195 210.249742,123.8945 C210.665408,123.1695 211.226075,122.594333 211.931742,122.169 C212.637408,121.743667 213.415575,121.531 214.266242,121.531 C214.884908,121.531 215.464908,121.637333 216.006242,121.85 C216.547575,122.062667 217.021242,122.333333 217.427242,122.662 L217.427242,122.662 L218.152242,121.734 C217.649575,121.308667 217.059908,120.98 216.383242,120.748 C215.706575,120.516 214.971908,120.4 214.179242,120.4 C213.115908,120.4 212.134742,120.656167 211.235742,121.1685 C210.336742,121.680833 209.616575,122.381667 209.075242,123.271 C208.533908,124.160333 208.263242,125.175333 208.263242,126.316 C208.263242,127.456667 208.524242,128.471667 209.046242,129.361 C209.568242,130.250333 210.283575,130.951167 211.192242,131.4635 C212.100908,131.975833 213.135242,132.232 214.295242,132.232 Z M222.560347,132 L222.56,127.474 L224.488,125.78 L228.853347,132 L230.448347,132 L225.41,124.969 L229.752347,121.154 L228.911347,120.429 L222.56,126.009 L222.560347,109.96 L221.197347,109.96 L221.197347,132 L222.560347,132 Z M242.019608,118.254 C242.038941,117.036 242.058274,115.827667 242.077608,114.629 C242.096941,113.430333 242.116274,112.222 242.135608,111.004 L242.135608,111.004 L240.801608,111.004 L240.801608,118.254 L242.019608,118.254 Z M246.833656,132 L246.833656,125.91 C246.833656,125.04 247.031822,124.276333 247.428156,123.619 C247.824489,122.961667 248.351322,122.449333 249.008656,122.082 C249.665989,121.714667 250.371656,121.531 251.125656,121.531 C251.976322,121.550333 252.623989,121.801667 253.068656,122.285 C253.513322,122.768333 253.745322,123.377333 253.764656,124.112 L253.764656,124.112 L253.764656,132 L255.156656,132 L255.156656,123.735 C255.137322,122.729667 254.798989,121.912833 254.141656,121.2845 C253.484322,120.656167 252.623989,120.342 251.560656,120.342 C250.439322,120.342 249.419489,120.627167 248.501156,121.1975 C247.735878,121.672778 247.175346,122.292384 246.819559,123.056319 L246.762,123.189 L246.659656,120.661 L245.470656,120.661 L245.470656,132 L246.833656,132 Z M259.883845,118.254 C259.903178,117.036 259.922511,115.827667 259.941845,114.629 C259.961178,113.430333 259.980511,112.222 259.999845,111.004 L259.999845,111.004 L258.665845,111.004 L258.665845,118.254 L259.883845,118.254 Z M273.629934,132 L273.629934,123.358 L276.819934,123.358 C277.307134,123.358 277.763401,123.33016 278.188734,123.27448 L278.368,123.248 L283.750934,132 L285.403934,132 L279.829,122.861 L279.893934,122.836 C280.621351,122.5315 281.230351,122.138188 281.720934,121.656062 L281.923934,121.444 C282.445934,120.864 282.822934,120.2115 283.054934,119.4865 C283.286934,118.7615 283.402934,118.012333 283.402934,117.239 C283.402934,116.214333 283.209601,115.334667 282.822934,114.6 C282.436268,113.865333 281.928768,113.261167 281.300434,112.7875 C280.672101,112.313833 279.976101,111.965833 279.212434,111.7435 C278.448768,111.521167 277.680268,111.41 276.906934,111.41 L276.906934,111.41 L272.208934,111.41 L272.208934,132 L273.629934,132 Z M276.732934,121.995 L273.629934,121.995 L273.629934,112.773 L277.109934,112.773 C277.844601,112.773 278.511601,112.893833 279.110934,113.1355 C279.710268,113.377167 280.222601,113.705833 280.647934,114.1215 C281.073268,114.537167 281.397101,115.015667 281.619434,115.557 C281.841768,116.098333 281.952934,116.678333 281.952934,117.297 C281.952934,117.819 281.870768,118.3555 281.706434,118.9065 C281.542101,119.4575 281.266601,119.965 280.879934,120.429 C280.493268,120.893 279.961601,121.27 279.284934,121.56 C278.608268,121.85 277.757601,121.995 276.732934,121.995 L276.732934,121.995 Z M293.930056,132.232 C295.070723,132.232 296.100223,131.966167 297.018556,131.4345 C297.93689,130.902833 298.657056,130.182667 299.179056,129.274 C299.701056,128.365333 299.962056,127.36 299.962056,126.258 C299.962056,125.156 299.701056,124.150667 299.179056,123.242 C298.657056,122.333333 297.941723,121.613167 297.033056,121.0815 C296.12439,120.549833 295.090056,120.284 293.930056,120.284 C292.78939,120.284 291.75989,120.549833 290.841556,121.0815 C289.923223,121.613167 289.198223,122.333333 288.666556,123.242 C288.13489,124.150667 287.869056,125.156 287.869056,126.258 C287.869056,127.418 288.13489,128.4475 288.666556,129.3465 C289.198223,130.2455 289.91839,130.951167 290.827056,131.4635 C291.735723,131.975833 292.770056,132.232 293.930056,132.232 Z M293.901056,131.072 C293.031056,131.072 292.243223,130.859333 291.537556,130.434 C290.83189,130.008667 290.271223,129.4335 289.855556,128.7085 C289.43989,127.9835 289.232056,127.176333 289.232056,126.287 C289.232056,125.455667 289.435056,124.672667 289.841056,123.938 C290.247056,123.203333 290.80289,122.608833 291.508556,122.1545 C292.214223,121.700167 293.011723,121.473 293.901056,121.473 C294.771056,121.473 295.55889,121.6905 296.264556,122.1255 C296.970223,122.5605 297.53089,123.1405 297.946556,123.8655 C298.362223,124.5905 298.570056,125.397667 298.570056,126.287 C298.570056,127.176333 298.362223,127.9835 297.946556,128.7085 C297.53089,129.4335 296.970223,130.008667 296.264556,130.434 C295.55889,130.859333 294.771056,131.072 293.901056,131.072 Z M304.660176,132 L304.660176,109.96 L303.297176,109.96 L303.297176,132 L304.660176,132 Z M310.460312,132 L310.460312,109.96 L309.097312,109.96 L309.097312,132 L310.460312,132 Z M327.222489,132.435 L332.848489,120.661 L331.340489,120.661 L327.194,130.01 L322.901489,120.661 L321.306489,120.661 L327.048489,132.435 L327.222489,132.435 Z M340.301673,132.232 C341.03634,132.232 341.756506,132.096667 342.462173,131.826 C343.16784,131.555333 343.79134,131.207333 344.332673,130.782 L344.332673,130.782 L343.636673,129.796 C343.192006,130.163333 342.684506,130.463 342.114173,130.695 C341.54384,130.927 340.94934,131.043 340.330673,131.043 C339.402673,131.043 338.581006,130.820667 337.865673,130.376 C337.15034,129.931333 336.594506,129.341667 336.198173,128.607 C336.154136,128.52537 336.112545,128.443025 336.073401,128.359963 L336.051,128.309 L345.724673,124.576 C345.352506,123.406333 344.765088,122.439734 343.962419,121.676201 L343.738173,121.473 C342.81984,120.680333 341.684006,120.284 340.330673,120.284 C339.20934,120.284 338.189506,120.554667 337.271173,121.096 C336.35284,121.637333 335.623006,122.362333 335.081673,123.271 C334.54034,124.179667 334.269673,125.185 334.269673,126.287 C334.269673,127.408333 334.52584,128.4185 335.038173,129.3175 C335.550506,130.2165 336.261006,130.927 337.169673,131.449 C338.07834,131.971 339.12234,132.232 340.301673,132.232 Z M335.714,127.295 L335.669728,127.060333 C335.625691,126.789667 335.603673,126.512556 335.603673,126.229 C335.603673,125.320333 335.811506,124.508333 336.227173,123.793 C336.64284,123.077667 337.198673,122.507333 337.894673,122.082 C338.590673,121.656667 339.373673,121.444 340.243673,121.444 C341.21034,121.444 342.027173,121.724333 342.694173,122.285 C343.361173,122.845667 343.859006,123.512667 344.187673,124.286 L344.073,124.037 L335.714,127.295 Z M353.815825,137.539 C355.285158,137.539 356.469325,137.287667 357.368325,136.785 C358.267325,136.282333 358.924658,135.620167 359.340325,134.7985 C359.755991,133.976833 359.963825,133.102 359.963825,132.174 L359.963825,132.174 L359.963825,120.661 L358.745825,120.661 L358.64,123.013 L358.51742,122.803165 C358.14034,122.202394 357.627767,121.693656 356.979701,121.27695 L356.730325,121.125 C355.792658,120.583667 354.801825,120.313 353.757825,120.313 C352.636491,120.313 351.611825,120.569167 350.683825,121.0815 C349.755825,121.593833 349.021158,122.294667 348.479825,123.184 C347.938491,124.073333 347.667825,125.107667 347.667825,126.287 C347.667825,127.389 347.928825,128.3895 348.450825,129.2885 C348.972825,130.1875 349.673658,130.902833 350.553325,131.4345 C351.432991,131.966167 352.404491,132.232 353.467825,132.232 C354.724491,132.232 355.850658,131.913 356.846325,131.275 C357.593075,130.7965 358.168544,130.214687 358.572731,129.529562 L358.592,129.494 L358.571825,132.145 C358.554908,132.821667 358.426976,133.442826 358.188028,134.008477 L358.078825,134.2475 C357.769491,134.875833 357.266825,135.3785 356.570825,135.7555 C355.874825,136.1325 354.937158,136.321 353.757825,136.321 C353.081158,136.321 352.385158,136.180833 351.669825,135.9005 C350.954491,135.620167 350.181158,135.083667 349.349825,134.291 L349.349825,134.291 L348.537825,135.219 C349.137158,135.779667 349.717158,136.234 350.277825,136.582 C350.838491,136.93 351.408825,137.1765 351.988825,137.3215 C352.568825,137.4665 353.177825,137.539 353.815825,137.539 Z M353.815825,131.072 C352.926491,131.072 352.119325,130.8545 351.394325,130.4195 C350.669325,129.9845 350.094158,129.4045 349.668825,128.6795 C349.243491,127.9545 349.030825,127.147333 349.030825,126.258 C349.030825,125.310667 349.243491,124.479333 349.668825,123.764 C350.094158,123.048667 350.669325,122.488 351.394325,122.082 C352.119325,121.676 352.926491,121.473 353.815825,121.473 C354.608491,121.473 355.338325,121.637333 356.005325,121.966 C356.672325,122.294667 357.232991,122.739333 357.687325,123.3 C358.141658,123.860667 358.446158,124.508333 358.600825,125.243 L358.600825,125.243 L358.600825,126.925 C358.542825,127.659667 358.291491,128.346 357.846825,128.984 C357.402158,129.622 356.831825,130.1295 356.135825,130.5065 C355.439825,130.8835 354.666491,131.072 353.815825,131.072 Z M369.098984,132.232 C369.736984,132.232 370.34115,132.140167 370.911484,131.9565 C371.481817,131.772833 372.003817,131.5215 372.477484,131.2025 C372.95115,130.8835 373.352317,130.5355 373.680984,130.1585 C373.790539,130.032833 373.889354,129.90663 373.977428,129.779889 L374.086,129.613 L374.086984,132 L375.449984,132 L375.449984,120.661 L374.231984,120.661 L374.097,123.133 L374.02467,122.993702 C373.675711,122.373758 373.191259,121.83562 372.571314,121.379289 L372.332484,121.212 C371.433484,120.612667 370.481317,120.313 369.475984,120.313 C368.29665,120.313 367.242984,120.549833 366.314984,121.0235 C365.386984,121.497167 364.652317,122.1835 364.110984,123.0825 C363.56965,123.9815 363.298984,125.059333 363.298984,126.316 C363.298984,127.495333 363.55515,128.529667 364.067484,129.419 C364.579817,130.308333 365.275817,130.9995 366.155484,131.4925 C367.03515,131.9855 368.016317,132.232 369.098984,132.232 Z M369.388984,131.072 C368.538317,131.072 367.750484,130.8545 367.025484,130.4195 C366.300484,129.9845 365.725317,129.4045 365.299984,128.6795 C364.87465,127.9545 364.661984,127.147333 364.661984,126.258 C364.661984,125.291333 364.87465,124.450333 365.299984,123.735 C365.725317,123.019667 366.29565,122.463833 367.010984,122.0675 C367.726317,121.671167 368.509317,121.473 369.359984,121.473 C370.133317,121.473 370.84865,121.637333 371.505984,121.966 C372.163317,122.294667 372.71915,122.739333 373.173484,123.3 C373.627817,123.860667 373.932317,124.498667 374.086984,125.214 L374.086984,125.214 L374.086984,126.838 C374.028984,127.669333 373.787317,128.404 373.361984,129.042 C372.93665,129.68 372.380817,130.177833 371.694484,130.5355 C371.00815,130.893167 370.23965,131.072 369.388984,131.072 Z M381.25011,132 L381.25011,125.91 C381.25011,125.04 381.448277,124.276333 381.84461,123.619 C382.240943,122.961667 382.767777,122.449333 383.42511,122.082 C384.082443,121.714667 384.78811,121.531 385.54211,121.531 C386.392777,121.550333 387.040443,121.801667 387.48511,122.285 C387.929777,122.768333 388.161777,123.377333 388.18111,124.112 L388.18111,124.112 L388.18111,132 L389.57311,132 L389.57311,123.735 C389.553777,122.729667 389.215443,121.912833 388.55811,121.2845 C387.900777,120.656167 387.040443,120.342 385.97711,120.342 C384.855777,120.342 383.835943,120.627167 382.91761,121.1975 C382.152332,121.672778 381.5918,122.292384 381.236013,123.056319 L381.179,123.189 L381.07611,120.661 L379.88711,120.661 L379.88711,132 L381.25011,132 Z" id="Rock'n'Rollvegan" fill-opacity="0.99" fill="#FFFFFF" fill-rule="nonzero" opacity="0.5"></path>
        <path d="M206,25 L208.822,17.95 L218.225,17.95 L221,25 L222.65,25 L213.65,2.77 L213.53,2.77 L204.53,25 L206,25 Z M217.681,16.57 L209.374,16.57 L213.563,6.107 L217.681,16.57 Z M227.01,25 L227.01,18.7 C227.01,17.8 227.215,17.01 227.625,16.33 C228.035,15.65 228.58,15.12 229.26,14.74 C229.94,14.36 230.67,14.17 231.45,14.17 C232.33,14.19 233,14.45 233.46,14.95 C233.92,15.45 234.16,16.08 234.18,16.84 L234.18,16.84 L234.18,25 L235.62,25 L235.62,16.45 C235.6,15.41 235.25,14.565 234.57,13.915 C233.89,13.265 233,12.94 231.9,12.94 C230.74,12.94 229.685,13.235 228.735,13.825 C227.943333,14.3166667 227.363472,14.9576389 226.995417,15.7479167 L226.936,15.885 L226.83,13.27 L225.6,13.27 L225.6,25 L227.01,25 Z M241.12,25 L241.12,18.7 C241.12,17.8 241.325,17.01 241.735,16.33 C242.145,15.65 242.69,15.12 243.37,14.74 C244.05,14.36 244.78,14.17 245.56,14.17 C246.44,14.19 247.11,14.45 247.57,14.95 C248.03,15.45 248.27,16.08 248.29,16.84 L248.29,16.84 L248.29,25 L249.73,25 L249.73,16.45 C249.71,15.41 249.36,14.565 248.68,13.915 C248,13.265 247.11,12.94 246.01,12.94 C244.85,12.94 243.795,13.235 242.845,13.825 C242.053333,14.3166667 241.473472,14.9576389 241.105417,15.7479167 L241.046,15.886 L240.94,13.27 L239.71,13.27 L239.71,25 L241.12,25 Z M258.92,25.24 C259.68,25.24 260.425,25.1 261.155,24.82 C261.885,24.54 262.53,24.18 263.09,23.74 L263.09,23.74 L262.37,22.72 C261.91,23.1 261.385,23.41 260.795,23.65 C260.205,23.89 259.59,24.01 258.95,24.01 C257.99,24.01 257.14,23.78 256.4,23.32 C255.66,22.86 255.085,22.25 254.675,21.49 C254.629444,21.4055556 254.58642,21.3203704 254.545926,21.2344444 L254.522,21.183 L264.53,17.32 C264.145,16.11 263.537326,15.1100694 262.706979,14.3202083 L262.475,14.11 C261.525,13.29 260.35,12.88 258.95,12.88 C257.79,12.88 256.735,13.16 255.785,13.72 C254.835,14.28 254.08,15.03 253.52,15.97 C252.96,16.91 252.68,17.95 252.68,19.09 C252.68,20.25 252.945,21.295 253.475,22.225 C254.005,23.155 254.74,23.89 255.68,24.43 C256.62,24.97 257.7,25.24 258.92,25.24 Z M254.174,20.134 L254.128333,19.89 C254.082778,19.61 254.06,19.3233333 254.06,19.03 C254.06,18.09 254.275,17.25 254.705,16.51 C255.135,15.77 255.71,15.18 256.43,14.74 C257.15,14.3 257.96,14.08 258.86,14.08 C259.86,14.08 260.705,14.37 261.395,14.95 C262.085,15.53 262.6,16.22 262.94,17.02 L262.822,16.763 L254.174,20.134 Z M281.71,25.24 C282.81,25.24 283.82,25 284.74,24.52 C285.66,24.04 286.4,23.335 286.96,22.405 C287.52,21.475 287.8,20.35 287.8,19.03 C287.8,17.85 287.535,16.8 287.005,15.88 C286.475,14.96 285.76,14.235 284.86,13.705 C283.96,13.175 282.96,12.91 281.86,12.91 C280.66,12.91 279.56,13.185 278.56,13.735 C277.726667,14.1933333 277.080833,14.7801389 276.6225,15.4954167 L276.55,15.615 L276.55,2.2 L275.14,2.2 L275.14,25 L276.55,25 L276.55,22.501 L276.685496,22.7033884 C277.070207,23.2460331 277.562231,23.7238843 278.16157,24.1369421 L278.425,24.31 C279.415,24.93 280.51,25.24 281.71,25.24 Z M281.47,24.01 C280.59,24.01 279.79,23.815 279.07,23.425 C278.35,23.035 277.77,22.52 277.33,21.88 C276.89,21.24 276.63,20.55 276.55,19.81 L276.55,19.81 L276.55,17.98 C276.71,17.22 277.02,16.55 277.48,15.97 C277.94,15.39 278.515,14.93 279.205,14.59 C279.895,14.25 280.65,14.08 281.47,14.08 C282.45,14.08 283.305,14.305 284.035,14.755 C284.765,15.205 285.335,15.805 285.745,16.555 C286.155,17.305 286.36,18.13 286.36,19.03 C286.36,19.99 286.16,20.845 285.76,21.595 C285.36,22.345 284.795,22.935 284.065,23.365 C283.335,23.795 282.47,24.01 281.47,24.01 Z M292.16,25 L292.16,2.2 L290.75,2.2 L290.75,25 L292.16,25 Z M301.38,25.24 C302.56,25.24 303.625,24.965 304.575,24.415 C305.525,23.865 306.27,23.12 306.81,22.18 C307.35,21.24 307.62,20.2 307.62,19.06 C307.62,17.92 307.35,16.88 306.81,15.94 C306.27,15 305.53,14.255 304.59,13.705 C303.65,13.155 302.58,12.88 301.38,12.88 C300.2,12.88 299.135,13.155 298.185,13.705 C297.235,14.255 296.485,15 295.935,15.94 C295.385,16.88 295.11,17.92 295.11,19.06 C295.11,20.26 295.385,21.325 295.935,22.255 C296.485,23.185 297.23,23.915 298.17,24.445 C299.11,24.975 300.18,25.24 301.38,25.24 Z M301.35,24.04 C300.45,24.04 299.635,23.82 298.905,23.38 C298.175,22.94 297.595,22.345 297.165,21.595 C296.735,20.845 296.52,20.01 296.52,19.09 C296.52,18.23 296.73,17.42 297.15,16.66 C297.57,15.9 298.145,15.285 298.875,14.815 C299.605,14.345 300.43,14.11 301.35,14.11 C302.25,14.11 303.065,14.335 303.795,14.785 C304.525,15.235 305.105,15.835 305.535,16.585 C305.965,17.335 306.18,18.17 306.18,19.09 C306.18,20.01 305.965,20.845 305.535,21.595 C305.105,22.345 304.525,22.94 303.795,23.38 C303.065,23.82 302.25,24.04 301.35,24.04 Z M315.79,30.73 C317.31,30.73 318.535,30.47 319.465,29.95 C320.395,29.43 321.075,28.745 321.505,27.895 C321.935,27.045 322.15,26.14 322.15,25.18 L322.15,25.18 L322.15,13.27 L320.89,13.27 L320.781,15.704 L320.653719,15.4860331 C320.263636,14.8645455 319.733388,14.3382645 319.062975,13.9071901 L318.805,13.75 C317.835,13.19 316.81,12.91 315.73,12.91 C314.57,12.91 313.51,13.175 312.55,13.705 C311.59,14.235 310.83,14.96 310.27,15.88 C309.71,16.8 309.43,17.87 309.43,19.09 C309.43,20.23 309.7,21.265 310.24,22.195 C310.78,23.125 311.505,23.865 312.415,24.415 C313.325,24.965 314.33,25.24 315.43,25.24 C316.73,25.24 317.895,24.91 318.925,24.25 C319.6975,23.755 320.292813,23.153125 320.710938,22.444375 L320.732,22.406 L320.71,25.15 C320.6925,25.85 320.560156,26.4925781 320.312969,27.0777344 L320.2,27.325 C319.88,27.975 319.36,28.495 318.64,28.885 C317.92,29.275 316.95,29.47 315.73,29.47 C315.03,29.47 314.31,29.325 313.57,29.035 C312.83,28.745 312.03,28.19 311.17,27.37 L311.17,27.37 L310.33,28.33 C310.95,28.91 311.55,29.38 312.13,29.74 C312.71,30.1 313.3,30.355 313.9,30.505 C314.5,30.655 315.13,30.73 315.79,30.73 Z M315.79,24.04 C314.87,24.04 314.035,23.815 313.285,23.365 C312.535,22.915 311.94,22.315 311.5,21.565 C311.06,20.815 310.84,19.98 310.84,19.06 C310.84,18.08 311.06,17.22 311.5,16.48 C311.94,15.74 312.535,15.16 313.285,14.74 C314.035,14.32 314.87,14.11 315.79,14.11 C316.61,14.11 317.365,14.28 318.055,14.62 C318.745,14.96 319.325,15.42 319.795,16 C320.265,16.58 320.58,17.25 320.74,18.01 L320.74,18.01 L320.74,19.75 C320.68,20.51 320.42,21.22 319.96,21.88 C319.5,22.54 318.91,23.065 318.19,23.455 C317.47,23.845 316.67,24.04 315.79,24.04 Z M331.46,30.73 C332.98,30.73 334.205,30.47 335.135,29.95 C336.065,29.43 336.745,28.745 337.175,27.895 C337.605,27.045 337.82,26.14 337.82,25.18 L337.82,25.18 L337.82,13.27 L336.56,13.27 L336.451,15.704 L336.323719,15.4860331 C335.933636,14.8645455 335.403388,14.3382645 334.732975,13.9071901 L334.475,13.75 C333.505,13.19 332.48,12.91 331.4,12.91 C330.24,12.91 329.18,13.175 328.22,13.705 C327.26,14.235 326.5,14.96 325.94,15.88 C325.38,16.8 325.1,17.87 325.1,19.09 C325.1,20.23 325.37,21.265 325.91,22.195 C326.45,23.125 327.175,23.865 328.085,24.415 C328.995,24.965 330,25.24 331.1,25.24 C332.4,25.24 333.565,24.91 334.595,24.25 C335.3675,23.755 335.962812,23.153125 336.380937,22.444375 L336.402,22.406 L336.38,25.15 C336.3625,25.85 336.230156,26.4925781 335.982969,27.0777344 L335.87,27.325 C335.55,27.975 335.03,28.495 334.31,28.885 C333.59,29.275 332.62,29.47 331.4,29.47 C330.7,29.47 329.98,29.325 329.24,29.035 C328.5,28.745 327.7,28.19 326.84,27.37 L326.84,27.37 L326,28.33 C326.62,28.91 327.22,29.38 327.8,29.74 C328.38,30.1 328.97,30.355 329.57,30.505 C330.17,30.655 330.8,30.73 331.46,30.73 Z M331.46,24.04 C330.54,24.04 329.705,23.815 328.955,23.365 C328.205,22.915 327.61,22.315 327.17,21.565 C326.73,20.815 326.51,19.98 326.51,19.06 C326.51,18.08 326.73,17.22 327.17,16.48 C327.61,15.74 328.205,15.16 328.955,14.74 C329.705,14.32 330.54,14.11 331.46,14.11 C332.28,14.11 333.035,14.28 333.725,14.62 C334.415,14.96 334.995,15.42 335.465,16 C335.935,16.58 336.25,17.25 336.41,18.01 L336.41,18.01 L336.41,19.75 C336.35,20.51 336.09,21.22 335.63,21.88 C335.17,22.54 334.58,23.065 333.86,23.455 C333.14,23.845 332.34,24.04 331.46,24.04 Z M344.52,25 L344.52,14.56 L348.15,14.56 L348.15,13.42 L344.52,13.42 L344.52,8.11 L343.08,8.11 L343.08,13.42 L340.59,13.42 L340.59,14.56 L343.08,14.56 L343.08,25 L344.52,25 Z" id="Annebloggt" fill-opacity="0.5" fill="#FFFFFF" fill-rule="nonzero"></path>
        <path d="M509.314596,89.0411452 C507.261017,82.0667381 506.492438,68.0969891 509.582401,68.0102367 C509.607351,62.9520461 509.432044,58.5708056 509.357918,54.4559342 C505.080388,56.9228513 504.993899,70.9189773 504.927009,80.2979721 C502.748961,73.9204089 500.374633,55.2056151 509.357918,50.0017638 C509.486501,48.1431174 509.461601,47.1120624 509.523821,45.1900958 C504.077993,45.0258502 499.065179,45.1021651 495.109049,45.238798 C492.584603,55.1968659 494.925251,71.9367312 503.380924,81.3572856 C496.263546,72.3007295 489.258043,63.7336745 490.661282,45.287693 C484.971394,45.2585258 478.925577,45.1802443 472.998279,45.287693 C473.150606,53.7121013 488.485114,72.5861246 499.84896,81.7690823 C494.696287,77.8968493 475.222736,67.4182295 468.013821,45.287693 C465.66268,45.4586733 462.853509,44.9703511 459.663817,45.2209638 C459.437756,51.5707527 459.829765,53.8548051 459.870763,61.2855269 C467.698138,67.2947448 486.987024,77.0382296 498.420108,83.1117147 C488.605094,79.7723647 475.853654,75.4301966 460.152576,66.5595419 C459.154461,71.9073494 459.681187,80.1551611 460.152576,83.7489819 C468.392702,82.2572491 490.110624,80.2231092 497.866687,84.7476862 C491.461889,84.012542 474.4124,80.350281 462.458116,88.990422 C469.757085,89.0020752 484.358873,89.1921831 490.661282,89.46313 C495.252791,85.9459601 499.214141,86.7516793 509.314596,89.0411452 Z" id="Path" fill="#5C9B72" transform="translate(484.584811, 67.280031) rotate(135.000000) translate(-484.584811, -67.280031) "></path>
        <path d="M89.314596,89.0411452 C87.2610172,82.0667381 86.4924379,68.0969891 89.5824009,68.0102367 C89.6073505,62.9520461 89.4320442,58.5708056 89.3579184,54.4559342 C85.0803877,56.9228513 84.9938986,70.9189773 84.9270087,80.2979721 C82.748961,73.9204089 80.3746334,55.2056151 89.3579184,50.0017638 C89.4865014,48.1431174 89.4616009,47.1120624 89.5238206,45.1900958 C84.0779931,45.0258502 79.0651795,45.1021651 75.109049,45.238798 C72.5846031,55.1968659 74.9252508,71.9367312 83.3809241,81.3572856 C76.2635462,72.3007295 69.2580426,63.7336745 70.6612816,45.287693 C64.9713937,45.2585258 58.925577,45.1802443 52.9982792,45.287693 C53.1506057,53.7121013 68.4851141,72.5861246 79.8489599,81.7690823 C74.6962868,77.8968493 55.2227361,67.4182295 48.0138208,45.287693 C45.66268,45.4586733 42.8535086,44.9703511 39.6638173,45.2209638 C39.4377563,51.5707527 39.8297645,53.8548051 39.8707629,61.2855269 C47.6981383,67.2947448 66.9870235,77.0382296 78.4201083,83.1117147 C68.6050938,79.7723647 55.8536542,75.4301966 40.152576,66.5595419 C39.1544613,71.9073494 39.6811867,80.1551611 40.152576,83.7489819 C48.3927018,82.2572491 70.1106243,80.2231092 77.8666873,84.7476862 C71.4618889,84.012542 54.4124002,80.350281 42.4581157,88.990422 C49.7570851,89.0020752 64.3588734,89.1921831 70.6612816,89.46313 C75.2527908,85.9459601 79.2141407,86.7516793 89.314596,89.0411452 Z" id="Path-Copy" fill="#5C9B72" transform="translate(64.584811, 67.280031) scale(-1, 1) rotate(135.000000) translate(-64.584811, -67.280031) "></path>
    </g>
</svg>