<?xml version="1.0" standalone="no"?>
<!DOCTYPE svg PUBLIC "-//W3C//DTD SVG 20010904//EN"
 "http://www.w3.org/TR/2001/REC-SVG-20010904/DTD/svg10.dtd">
<svg version="1.0" xmlns="http://www.w3.org/2000/svg"
 width="1024.000000pt" height="1024.000000pt" viewBox="0 0 1024.000000 1024.000000"
 preserveAspectRatio="xMidYMid meet">
<metadata>
Created by potrace 1.11, written by Peter Selinger 2001-2013
</metadata>
<g transform="translate(0.000000,1024.000000) scale(0.100000,-0.100000)"
fill="#000000" stroke="none">
<path d="M6499 10171 c-212 -209 -270 -261 -301 -269 -42 -11 -66 -5 -79 20
-13 24 7 52 136 184 52 54 95 99 95 101 0 6 -53 -10 -90 -26 -43 -18 -40 -17
-67 -26 -13 -4 -23 -11 -23 -15 0 -4 -12 -12 -26 -19 -63 -28 -190 -144 -265
-241 -33 -41 -63 -80 -69 -87 -5 -7 -10 -16 -10 -22 0 -5 -3 -11 -7 -13 -12
-5 -40 -54 -90 -158 -24 -52 -49 -103 -54 -112 -5 -10 -9 -23 -9 -28 0 -6 -9
-29 -19 -50 -19 -41 -17 -46 20 -42 45 5 271 14 361 15 138 1 152 -5 144 -67
-2 -23 -7 -50 -10 -61 -2 -11 -5 -23 -5 -26 -1 -3 -9 -15 -19 -27 -18 -20 -27
-21 -287 -22 -148 0 -271 -2 -273 -4 -2 -2 -19 -57 -38 -122 -33 -112 -34
-119 -18 -131 10 -7 26 -10 37 -7 22 7 117 7 124 0 3 -3 16 -1 30 5 13 5 22 6
20 1 -3 -4 14 -6 36 -5 79 5 149 4 154 -1 3 -2 16 -1 30 5 16 6 22 5 18 -1 -3
-6 1 -7 10 -4 31 12 63 -5 75 -40 14 -43 10 -72 -15 -111 -45 -70 -36 -68
-335 -68 l-270 0 -9 -36 c-6 -20 -15 -58 -22 -86 -6 -27 -15 -57 -20 -66 -7
-14 19 -15 238 -15 193 1 247 -2 256 -12 14 -18 16 -139 3 -175 -6 -16 -21
-31 -36 -35 -24 -6 -316 -8 -453 -2 -37 2 -70 1 -72 -2 -8 -7 -45 -137 -50
-175 l-5 -33 62 -1 c35 -1 74 -2 88 -4 14 -1 68 -5 120 -9 165 -11 230 -22
230 -37 0 -25 -30 -66 -100 -136 -55 -55 -70 -61 -140 -58 -30 2 -110 6 -178
9 -67 3 -128 7 -134 9 -8 1 -22 -26 -35 -65 -36 -113 -37 -110 32 -124 33 -7
76 -15 95 -18 19 -3 53 -10 75 -16 22 -6 51 -13 63 -16 51 -11 97 -41 123 -79
30 -47 60 -130 53 -149 -6 -16 -102 -12 -219 8 -67 12 -151 24 -218 31 -26 3
-58 10 -72 15 -24 9 -25 7 -54 -88 -46 -154 -46 -151 -14 -158 16 -3 46 -11
68 -16 22 -6 47 -11 55 -13 8 -2 62 -14 120 -28 58 -14 116 -28 130 -31 14 -3
47 -11 73 -17 l49 -11 -7 -47 c-7 -49 -31 -107 -52 -129 -8 -8 -24 -11 -43 -8
-16 3 -45 8 -62 12 -18 3 -64 12 -103 20 -38 8 -104 21 -145 29 -41 8 -86 18
-100 21 -69 16 -71 15 -95 -66 -34 -116 -36 -127 -22 -127 6 0 100 -26 207
-58 107 -31 200 -58 205 -59 31 -7 61 -20 67 -30 12 -17 8 -117 -5 -156 -11
-32 -15 -35 -55 -36 -23 -1 -45 3 -48 7 -3 5 -14 9 -24 9 -14 0 -148 40 -320
96 -8 3 -16 5 -18 5 -1 -1 -18 5 -37 13 -35 15 -35 15 -50 -15 -9 -16 -14 -29
-11 -29 2 0 -5 -28 -15 -62 -11 -34 -16 -65 -12 -69 8 -8 76 -34 341 -130 90
-33 101 -40 107 -70 9 -39 -2 -143 -20 -185 -13 -31 -17 -34 -47 -30 -18 3
-62 16 -98 30 -36 13 -103 39 -150 56 -47 17 -98 37 -115 44 -62 27 -86 36
-94 36 -8 0 -27 -41 -36 -75 -2 -5 -11 -32 -20 -60 -34 -97 -43 -159 -40 -265
1 -58 4 -105 5 -105 1 0 4 -11 5 -25 2 -29 22 -102 40 -145 6 -16 18 -46 25
-65 8 -19 16 -37 19 -40 3 -3 15 -23 26 -45 29 -59 81 -139 100 -155 15 -12
15 -11 4 13 -7 15 -16 27 -21 27 -4 0 -8 4 -8 9 0 5 -22 45 -48 88 -87 141
-87 141 -89 307 -2 155 4 186 38 186 28 0 37 -33 31 -120 -15 -203 -13 -213
55 -350 65 -131 88 -173 113 -200 8 -9 29 -32 46 -51 17 -19 44 -45 60 -58
l29 -23 -30 17 -30 16 25 -21 c14 -12 34 -29 45 -39 11 -9 23 -16 27 -16 3 0
18 -10 32 -23 15 -12 31 -22 36 -22 6 0 10 -4 10 -10 0 -5 6 -10 13 -10 8 0
22 -9 32 -20 10 -11 22 -20 28 -20 5 0 21 -8 35 -19 73 -52 243 -139 299 -152
70 -18 78 -51 59 -261 -4 -35 -10 -90 -16 -122 -5 -32 -7 -63 -4 -67 3 -5 2
-9 -3 -9 -4 0 -9 -15 -10 -33 -2 -35 -11 -122 -13 -122 -1 0 -4 -13 -6 -30 -2
-16 -8 -57 -14 -90 -5 -33 -12 -73 -14 -90 -3 -16 -7 -41 -10 -55 -2 -14 -7
-47 -11 -75 -4 -27 -9 -61 -11 -75 -2 -14 -6 -43 -9 -65 -3 -22 -7 -51 -10
-65 -3 -14 -8 -41 -10 -60 -3 -19 -9 -51 -14 -70 -7 -26 -8 -15 -4 40 4 41 7
96 7 122 1 27 3 48 7 48 3 0 5 10 5 23 1 12 5 74 10 137 10 140 10 568 0 630
-4 25 -16 64 -26 88 -16 36 -29 48 -82 73 -105 51 -138 70 -138 80 0 5 -5 9
-11 9 -9 0 -142 104 -185 145 -6 5 -48 44 -94 85 -191 172 -324 314 -357 381
-63 128 -78 208 -77 419 1 182 9 256 45 405 11 44 22 89 24 100 11 48 176 585
192 625 3 8 7 20 9 25 1 6 26 83 56 171 55 166 55 170 20 213 -7 9 -70 97
-140 196 -113 160 -247 341 -262 355 -3 3 -18 23 -35 45 -16 22 -32 42 -35 45
-3 3 -31 37 -62 76 -31 39 -74 91 -95 116 -21 24 -58 68 -83 98 -25 29 -56 65
-70 80 -14 15 -63 70 -110 121 -125 137 -323 334 -415 413 -44 37 -91 78 -105
90 -14 11 -52 41 -85 66 -33 25 -62 47 -65 51 -10 11 -317 216 -340 226 -8 4
-50 29 -93 55 -43 26 -80 48 -83 48 -2 0 -22 11 -44 25 -22 14 -40 23 -40 20
0 -2 -23 9 -52 26 -86 51 -354 174 -371 171 -4 -1 -7 3 -7 8 0 6 -8 10 -18 10
-10 0 -22 4 -27 9 -34 31 -608 221 -749 248 -10 2 -53 12 -95 22 -42 11 -89
22 -106 25 -16 2 -70 12 -120 22 -91 16 -101 18 -190 28 -27 4 -64 8 -81 11
-17 3 -60 8 -95 10 -35 3 -93 8 -128 11 l-65 5 20 -22 c10 -12 34 -38 51 -58
18 -20 33 -39 33 -43 0 -4 6 -13 13 -20 15 -15 95 -138 123 -188 10 -19 22
-37 25 -40 7 -6 157 -308 186 -375 12 -27 34 -77 48 -110 15 -33 33 -73 40
-90 14 -34 89 -227 91 -235 0 -3 5 -16 11 -30 5 -14 22 -61 37 -105 15 -44 31
-89 36 -100 7 -18 34 -103 36 -115 0 -3 4 -12 7 -20 14 -32 105 -359 132 -470
2 -8 4 -15 5 -15 1 0 3 -9 5 -20 2 -11 8 -42 14 -70 15 -71 20 -95 28 -135 4
-19 8 -37 8 -40 2 -7 14 -67 20 -105 3 -16 8 -48 11 -70 2 -22 7 -47 10 -55 3
-8 7 -33 10 -55 2 -22 6 -51 9 -65 12 -61 15 -77 19 -110 3 -19 8 -46 11 -60
3 -14 7 -41 10 -60 2 -19 6 -45 9 -56 2 -12 7 -38 10 -58 3 -20 9 -52 12 -72
3 -20 8 -46 10 -58 2 -11 7 -37 10 -56 3 -19 7 -45 10 -57 6 -33 13 -74 19
-108 3 -16 8 -41 11 -55 3 -14 6 -40 8 -58 1 -17 6 -35 9 -39 4 -3 7 -20 7
-37 0 -17 4 -47 10 -66 5 -19 12 -51 14 -70 3 -19 10 -57 15 -85 23 -113 34
-167 36 -185 1 -8 5 -31 10 -50 5 -19 9 -42 10 -50 1 -8 7 -40 13 -70 7 -30
13 -64 15 -75 1 -11 5 -25 9 -30 4 -6 9 -32 12 -59 3 -26 8 -51 11 -56 3 -5 7
-21 9 -37 4 -26 7 -38 20 -98 3 -11 9 -34 15 -52 5 -17 7 -34 4 -37 -3 -3 -1
-11 4 -18 6 -7 13 -29 16 -48 3 -19 9 -45 12 -57 3 -13 7 -31 9 -40 3 -10 23
-88 45 -173 23 -85 43 -162 45 -171 16 -64 29 -107 37 -121 5 -10 9 -25 9 -33
0 -12 78 -265 97 -315 3 -8 7 -19 9 -25 2 -8 49 -136 71 -195 4 -8 7 -17 8
-20 3 -9 18 -44 62 -150 55 -130 141 -298 193 -379 22 -34 40 -66 40 -71 0 -6
4 -10 8 -10 4 0 15 -12 24 -27 9 -16 25 -38 35 -50 10 -11 34 -40 53 -64 61
-75 196 -204 277 -265 43 -32 80 -62 81 -66 2 -5 8 -8 13 -8 5 0 31 -16 58
-35 26 -19 53 -35 60 -35 6 0 11 -4 11 -10 0 -5 5 -10 10 -10 6 0 29 -12 53
-27 100 -63 354 -179 532 -242 50 -18 99 -36 110 -41 17 -7 301 -103 315 -106
3 0 12 -3 20 -7 24 -9 144 -49 160 -53 48 -11 251 -94 325 -132 67 -35 183
-120 235 -174 111 -114 215 -308 245 -458 2 -8 4 -15 5 -15 2 0 7 -21 24 -115
9 -47 18 -96 20 -110 3 -14 7 -43 10 -65 3 -22 8 -53 11 -70 4 -16 8 -52 10
-80 2 -27 4 -50 5 -50 1 0 3 -11 4 -25 4 -34 16 -148 21 -185 2 -16 6 -52 9
-80 7 -62 13 -111 25 -200 6 -38 10 -86 10 -105 -2 -118 -1 -125 32 -144 18
-10 99 -65 181 -122 82 -57 153 -104 159 -104 5 0 9 -4 9 -9 0 -6 11 -16 24
-23 41 -22 270 -181 278 -192 4 -6 8 -7 8 -3 0 4 10 -1 22 -13 27 -25 28 -25
58 2 96 85 189 168 214 189 16 13 43 38 60 54 17 17 47 43 66 59 19 16 68 58
109 95 97 86 109 97 177 156 31 28 65 57 74 65 9 8 45 40 80 70 34 30 80 72
103 92 l40 36 1 794 c2 717 3 797 18 831 9 20 14 37 11 37 -3 0 -1 6 5 13 6 6
11 15 11 19 2 13 8 31 27 83 10 28 19 55 20 60 9 38 19 65 64 185 28 74 54
142 57 150 3 8 7 20 9 25 4 20 142 341 183 430 76 164 182 369 240 463 31 51
61 101 66 111 12 22 68 104 75 111 3 3 18 25 35 50 16 25 34 50 39 55 6 6 30
36 54 67 57 75 58 75 140 98 67 19 184 75 190 92 2 4 9 8 15 8 24 0 134 130
174 206 23 44 58 124 78 178 37 105 36 118 -10 116 -3 0 -18 6 -34 14 -15 8
-39 17 -52 19 -13 2 -31 7 -39 10 -8 4 -125 43 -260 87 -135 44 -252 83 -260
86 -8 3 -17 5 -20 6 -3 0 -13 4 -23 10 -10 5 -26 11 -36 13 -10 2 -41 13 -69
25 -47 20 -60 36 -68 76 -3 18 45 65 83 81 42 17 80 12 181 -26 127 -48 196
-73 207 -75 6 -1 15 -5 21 -8 6 -4 23 -9 38 -12 15 -3 34 -10 42 -17 8 -6 14
-8 14 -4 0 4 7 2 15 -5 8 -7 15 -10 15 -6 0 3 17 0 38 -8 40 -15 64 -23 72
-24 3 0 19 -6 35 -12 43 -17 197 -61 200 -58 5 6 56 175 60 200 5 24 0 28 -67
52 -40 15 -82 28 -93 31 -11 2 -94 25 -185 51 -91 25 -169 47 -175 48 -20 4
-191 57 -210 65 -11 5 -34 14 -52 21 -43 16 -66 55 -66 108 0 95 64 110 233
57 63 -20 122 -38 130 -40 20 -5 169 -56 195 -66 11 -4 38 -13 60 -20 22 -6
47 -14 55 -17 8 -3 17 -6 20 -7 3 -1 12 -5 20 -8 36 -15 128 -33 164 -33 40 1
59 20 64 66 0 3 5 18 11 33 29 76 27 79 -57 114 -76 31 -155 58 -160 54 -1 0
-19 6 -40 15 -20 9 -75 29 -122 45 -102 36 -188 68 -215 81 -12 5 -27 10 -35
12 -8 1 -32 10 -54 19 -21 9 -42 17 -46 17 -17 0 -71 33 -79 49 -34 63 -3 154
53 159 14 1 65 -14 113 -34 49 -20 93 -37 98 -38 10 -3 17 -6 90 -33 22 -8 67
-24 100 -34 33 -11 67 -22 75 -26 8 -3 20 -7 25 -8 6 0 17 -4 25 -7 86 -35
188 -59 264 -61 l60 -2 24 79 25 80 -25 21 c-13 12 -81 40 -149 64 -68 24
-137 49 -154 56 -16 8 -68 28 -115 46 -47 18 -96 39 -110 48 -13 9 -26 14 -27
13 -2 -2 -47 14 -101 37 -53 22 -109 45 -124 50 -63 23 -82 141 -33 199 21 25
31 29 58 25 17 -3 37 -9 43 -14 12 -10 409 -208 421 -210 5 -1 25 -13 45 -25
21 -13 39 -24 42 -24 2 0 46 -20 99 -45 94 -44 154 -59 178 -44 7 4 21 36 31
71 33 112 33 115 -3 146 -29 25 -253 126 -306 139 -13 3 -23 9 -23 14 0 5 -6
9 -13 9 -11 0 -136 52 -277 117 -83 38 -104 46 -112 45 -5 -1 -8 3 -8 8 0 6
-9 10 -19 10 -29 0 -63 33 -68 66 -17 109 20 176 81 145 142 -71 502 -243 611
-292 108 -48 151 -63 189 -63 l50 -1 14 45 c7 25 15 52 17 60 2 8 9 31 14 50
10 31 9 37 -11 52 -21 16 -175 95 -583 300 -185 94 -218 114 -209 129 3 5 1 9
-3 9 -17 0 -5 92 15 119 25 34 45 31 152 -26 47 -25 132 -70 190 -101 58 -30
134 -71 170 -91 36 -20 92 -49 125 -66 33 -16 62 -33 63 -37 2 -4 9 -8 16 -8
7 0 27 -7 43 -15 17 -9 48 -16 69 -18 l39 -2 23 83 c13 46 22 84 20 86 -1 1
-50 29 -108 61 -182 102 -704 415 -722 433 -49 50 -8 158 63 164 23 2 127 -47
141 -67 4 -5 8 -7 8 -2 0 4 19 -5 42 -19 22 -14 47 -27 54 -28 6 -1 18 -6 25
-12 13 -9 68 -39 184 -99 56 -29 189 -116 193 -126 2 -5 7 -9 11 -9 5 0 42
-23 84 -50 42 -28 80 -50 85 -50 5 0 22 44 39 98 l30 97 -21 14 c-12 8 -34 26
-51 41 -63 58 -206 151 -330 215 -105 54 -162 85 -179 98 -6 4 -33 22 -61 39
-132 82 -191 130 -181 147 4 5 2 12 -3 15 -13 8 8 108 27 129 22 24 47 17 150
-44 46 -27 85 -49 87 -49 2 0 40 -22 85 -50 45 -27 84 -50 86 -50 3 0 17 -8
32 -19 15 -10 66 -44 115 -76 48 -31 90 -62 95 -69 4 -6 25 -24 47 -41 22 -16
45 -34 50 -40 24 -27 115 -96 116 -88 1 13 6 35 17 78 12 47 23 127 27 205 2
30 4 57 5 60 5 15 -8 233 -16 274 -2 12 -7 37 -10 56 -17 102 -82 229 -175
345 -75 94 -340 363 -444 452 -33 29 -71 61 -85 73 -14 12 -47 40 -74 63 -27
23 -55 48 -62 55 -7 6 -17 12 -22 12 -6 0 -12 3 -14 8 -5 12 -106 92 -116 92
-6 0 -12 3 -14 8 -1 4 -28 25 -58 47 -30 22 -59 43 -65 48 -26 20 -149 97
-156 97 -5 0 -9 3 -9 8 0 8 -48 32 -66 32 -7 0 -14 5 -16 11 -4 11 -70 14
-113 5 -18 -4 -101 -14 -185 -22 -19 -2 -61 -6 -93 -8 -62 -5 -95 -22 -172
-93 -77 -70 -194 -109 -239 -79 -27 17 -43 70 -32 104 11 34 127 132 157 132
5 0 9 3 9 8 0 14 112 56 180 66 51 7 89 25 55 25 -11 0 -31 2 -45 5 -14 3 -38
8 -55 11 -16 3 -52 10 -80 15 -68 14 -92 14 -145 0 -40 -10 -73 -18 -105 -24
-5 -1 -16 -5 -22 -9 -7 -5 -13 -6 -13 -2 0 16 -63 -31 -135 -100 -102 -98
-152 -134 -197 -141 -35 -6 -37 -5 -47 31 -5 20 -8 42 -6 48 2 7 6 25 10 41 8
37 107 135 175 173 27 15 49 32 47 37 -2 5 -30 10 -62 12 -33 2 -79 5 -101 8
l-42 5 -143 -140 c-79 -78 -173 -167 -207 -200 -61 -56 -100 -74 -103 -46 -5
44 -4 93 2 102 7 10 9 17 9 36 0 6 51 62 113 126 61 63 113 118 115 121 1 4
-30 8 -70 8 l-72 0 -67 -65z m101 -826 c42 -3 87 -7 100 -10 14 -3 52 -7 85
-11 68 -6 104 -11 155 -19 19 -3 51 -8 70 -10 55 -7 92 -13 130 -20 19 -4 44
-8 55 -10 11 -1 31 -5 45 -9 14 -3 36 -8 50 -10 66 -12 219 -77 445 -189 72
-36 134 -65 139 -65 5 0 12 -4 15 -9 3 -4 53 -32 111 -62 302 -155 354 -185
369 -219 17 -35 14 -118 -5 -136 -17 -18 -60 -21 -69 -6 -3 6 -12 10 -20 10
-8 0 -53 19 -102 42 -48 23 -90 42 -93 43 -3 0 -43 19 -90 42 -482 233 -604
286 -679 299 -14 3 -34 7 -43 10 -18 5 -39 10 -89 18 -19 3 -45 8 -59 11 -31
7 -101 20 -170 31 -14 2 -41 7 -60 10 -52 9 -118 19 -255 39 -43 7 -99 13
-180 20 -66 5 -95 37 -95 101 0 48 20 98 46 112 16 9 51 8 194 -3z m-4635
-437 c17 -15 41 -36 54 -48 30 -25 178 -159 200 -180 9 -8 30 -25 46 -38 46
-36 127 -108 295 -262 165 -151 312 -303 435 -451 52 -62 153 -204 200 -281
87 -143 235 -440 235 -473 0 -7 5 -17 10 -20 6 -3 10 -15 10 -26 0 -10 4 -19
8 -19 5 0 9 -6 9 -12 1 -7 13 -47 28 -88 31 -86 104 -323 111 -359 3 -14 7
-28 10 -33 3 -4 7 -18 9 -30 3 -13 11 -45 20 -73 21 -72 106 -368 109 -380 8
-32 39 -133 46 -150 5 -11 32 -94 60 -185 28 -91 57 -181 65 -201 8 -20 11
-39 8 -43 -4 -3 -1 -6 6 -6 7 0 10 -4 7 -8 -3 -5 1 -20 8 -34 8 -14 26 -63 41
-109 15 -46 31 -88 35 -94 5 -5 8 -12 8 -15 -1 -7 12 -51 22 -75 4 -11 22 -58
40 -105 48 -130 120 -310 140 -356 11 -22 28 -63 38 -90 11 -27 36 -83 55
-124 19 -41 49 -109 67 -150 18 -41 71 -154 118 -250 47 -96 85 -178 84 -182
-1 -5 3 -8 10 -8 6 0 9 -3 5 -6 -3 -3 5 -24 19 -45 13 -21 21 -39 18 -39 -4 0
-2 -6 4 -13 12 -14 430 -849 492 -982 109 -235 137 -298 174 -395 37 -99 69
-201 63 -206 -4 -4 -51 67 -48 73 0 2 -15 27 -34 57 -19 30 -35 57 -35 60 0 7
-216 360 -286 466 -27 41 -55 87 -63 102 -7 16 -17 28 -22 28 -5 0 -9 5 -9 10
0 11 -106 176 -128 198 -6 7 -12 19 -12 27 0 7 -3 15 -7 17 -11 5 -73 97 -73
108 0 6 -3 10 -7 10 -5 0 -24 27 -43 60 -19 33 -38 60 -42 60 -5 0 -8 4 -8 9
0 9 -118 194 -139 218 -6 7 -11 14 -11 17 0 3 -24 43 -53 88 -60 93 -221 362
-254 423 -11 22 -36 67 -54 100 -32 59 -132 255 -134 265 -4 16 -41 88 -54
103 -8 9 -11 17 -7 17 3 0 -10 33 -30 73 -54 105 -143 307 -137 307 3 0 1 6
-5 13 -18 22 -129 306 -123 316 2 2 -1 7 -6 10 -8 6 -112 311 -153 451 -12 41
-27 91 -33 110 -6 19 -12 40 -14 45 -1 6 -16 62 -33 125 -17 63 -33 128 -35
143 -3 16 -8 33 -11 38 -3 6 -8 25 -11 42 -3 18 -9 34 -14 35 -5 2 -7 7 -5 11
3 4 -4 38 -15 76 -11 39 -21 79 -23 90 -8 38 -35 130 -66 230 -18 55 -35 112
-37 128 -3 15 -9 27 -14 27 -5 0 -8 3 -7 8 3 10 -36 122 -72 207 -26 62 -40
95 -61 140 -13 28 -23 52 -24 55 -2 8 -110 220 -135 265 -104 185 -265 434
-387 600 -102 137 -115 155 -135 179 -9 12 -54 66 -99 121 -127 156 -152 186
-179 215 -29 32 -84 94 -114 130 -22 25 2 6 79 -62z m4575 -13 c40 -5 104 -15
126 -19 12 -2 45 -7 75 -11 30 -4 74 -11 99 -17 40 -8 87 -17 185 -34 63 -11
182 -46 222 -64 24 -11 45 -20 47 -20 4 0 79 -35 266 -122 36 -17 153 -74 260
-126 107 -53 197 -96 200 -97 3 0 58 -27 124 -60 122 -61 149 -84 141 -124 -8
-44 -69 -91 -116 -91 -26 0 -162 53 -301 119 -124 58 -209 97 -263 121 -22 10
-67 30 -100 46 -33 15 -62 29 -65 29 -3 1 -27 12 -55 24 -58 27 -87 38 -98 40
-4 0 -20 7 -37 16 -16 8 -39 17 -52 19 -13 3 -24 5 -25 7 -3 2 -7 3 -43 12
-25 6 -60 12 -135 23 -22 3 -67 10 -100 16 -33 5 -76 12 -95 14 -19 2 -46 6
-60 9 -14 3 -38 7 -55 10 -52 7 -109 16 -135 21 -22 4 -66 12 -110 18 -8 1
-42 6 -75 10 -34 5 -69 14 -79 22 -24 17 -35 79 -23 119 14 44 54 93 79 98 22
5 143 0 198 -8z m-127 -490 c20 -3 54 -7 75 -10 39 -6 104 -18 214 -41 37 -8
71 -14 75 -13 5 1 10 0 13 -1 3 -1 13 -3 23 -5 23 -4 93 -21 197 -46 47 -12
95 -23 108 -25 36 -7 138 -47 237 -94 50 -23 117 -55 150 -70 115 -54 240
-112 295 -138 30 -14 57 -27 60 -27 26 -6 229 -113 242 -128 21 -24 17 -97 -7
-134 -28 -42 -56 -48 -111 -23 -27 12 -53 23 -59 24 -16 5 -47 17 -94 38 -212
95 -448 199 -461 203 -3 1 -27 12 -55 24 -46 21 -149 58 -185 66 -8 2 -49 13
-90 24 -41 11 -86 22 -100 25 -14 2 -54 12 -90 21 -36 9 -76 19 -90 21 -31 4
-67 12 -88 18 -9 3 -33 8 -52 11 -19 3 -51 10 -70 15 -19 5 -51 11 -70 14 -19
3 -46 8 -60 11 -14 3 -45 8 -70 10 -88 9 -119 17 -139 34 -12 10 -21 23 -21
29 0 6 -5 12 -11 14 -17 6 -16 103 1 123 33 39 106 49 233 30z m-128 -451 c22
-2 56 -9 75 -14 19 -5 53 -11 75 -15 22 -3 108 -23 190 -46 83 -22 155 -41
160 -43 46 -12 257 -88 310 -111 17 -7 57 -23 90 -35 33 -12 79 -31 102 -41
24 -11 47 -19 53 -19 5 0 33 -11 62 -24 29 -13 85 -36 123 -50 39 -15 78 -31
87 -36 9 -5 41 -18 70 -28 108 -39 294 -126 311 -146 19 -23 20 -82 3 -105 -6
-8 -10 -17 -9 -20 7 -17 -11 -41 -41 -55 -44 -21 -54 -20 -112 5 -27 11 -58
24 -69 29 -11 4 -40 17 -65 28 -39 17 -175 70 -430 169 -36 14 -72 27 -80 29
-8 2 -67 22 -130 45 -63 23 -122 44 -130 47 -8 3 -24 7 -34 9 -11 2 -25 8 -33
14 -7 6 -13 9 -13 5 0 -3 -12 -1 -27 5 -24 9 -171 44 -228 54 -11 2 -51 11
-90 20 -38 10 -80 19 -92 20 -11 2 -29 6 -40 9 -23 7 -92 19 -115 20 -10 0
-18 4 -18 9 0 4 -4 5 -10 2 -5 -3 -22 1 -37 9 -115 59 -208 253 -130 270 24 5
156 -1 222 -10z m-65 -509 c14 -3 32 -8 40 -10 8 -2 15 -4 15 -5 0 -1 9 -3 20
-5 11 -3 63 -16 115 -30 52 -14 104 -28 115 -30 42 -8 151 -36 175 -44 14 -5
81 -24 150 -42 69 -17 131 -36 138 -42 6 -5 12 -7 12 -4 0 6 146 -42 205 -68
17 -7 50 -21 75 -30 25 -9 56 -22 70 -28 14 -5 30 -11 35 -13 9 -2 290 -115
365 -147 14 -5 31 -11 39 -13 25 -5 64 -39 67 -59 8 -48 -49 -136 -100 -154
-15 -6 -116 21 -201 53 -5 2 -14 5 -20 6 -5 1 -21 7 -35 12 -38 16 -353 128
-370 133 -8 2 -33 11 -55 19 -90 33 -271 98 -280 100 -5 2 -17 6 -25 9 -32 13
-138 46 -166 52 -39 8 -59 13 -59 15 0 1 -10 3 -22 6 -12 2 -80 17 -150 34
-70 17 -159 38 -198 47 -38 8 -119 29 -180 45 -60 16 -116 30 -123 32 -7 1
-17 7 -24 14 -31 31 119 125 247 155 23 5 88 1 125 -8z m-248 -441 c10 -3 30
-7 45 -10 16 -3 36 -7 45 -10 19 -6 57 -15 78 -19 8 -1 22 -5 30 -8 8 -4 26
-9 40 -11 14 -3 41 -10 60 -16 19 -6 42 -13 50 -15 8 -1 42 -10 75 -19 33 -9
68 -19 78 -21 9 -3 25 -7 35 -10 9 -2 94 -28 187 -56 94 -28 187 -55 209 -60
21 -5 51 -16 67 -25 16 -8 29 -12 29 -9 0 3 14 -2 32 -11 17 -9 43 -20 57 -24
14 -5 91 -34 171 -65 80 -31 153 -58 164 -60 10 -2 24 -9 30 -14 7 -6 21 -12
32 -14 10 -2 33 -10 49 -17 17 -6 59 -23 95 -36 75 -28 89 -42 84 -87 -10 -79
-50 -137 -96 -137 -15 0 -85 24 -193 66 -11 4 -22 8 -25 8 -8 2 -73 27 -95 37
-11 5 -29 11 -40 13 -11 2 -36 11 -55 19 -19 9 -75 30 -125 47 -49 18 -99 36
-110 40 -11 5 -47 18 -80 30 -33 11 -67 24 -75 27 -8 3 -17 7 -20 8 -3 0 -68
22 -145 47 -120 40 -259 79 -330 94 -11 2 -29 6 -40 9 -99 22 -221 48 -330 70
-71 15 -137 29 -145 33 -8 3 -22 6 -30 7 -56 5 -68 29 -49 95 26 94 128 138
241 104z m-231 -450 c34 -2 66 -7 71 -10 5 -3 23 -8 39 -11 16 -2 98 -22 182
-44 185 -48 175 -46 215 -58 17 -5 32 -7 32 -4 0 3 6 1 13 -4 6 -5 41 -18 77
-28 89 -25 232 -65 248 -70 7 -3 13 -4 15 -3 1 1 12 -4 25 -11 13 -7 33 -14
45 -16 12 -3 31 -9 42 -13 30 -14 147 -52 170 -57 19 -3 276 -87 320 -105 38
-14 183 -61 201 -65 11 -2 20 -4 22 -5 1 -2 5 -3 10 -4 66 -17 95 -33 109 -59
30 -58 -2 -164 -52 -174 -33 -7 -37 -6 -125 20 -47 13 -94 27 -105 30 -11 3
-54 15 -95 27 -41 12 -82 24 -90 26 -8 2 -46 13 -85 24 -71 21 -157 47 -185
54 -87 24 -265 83 -338 111 -84 32 -212 69 -287 81 -16 3 -48 10 -70 16 -22 6
-49 11 -60 13 -11 1 -33 5 -50 9 -16 3 -40 8 -53 11 -13 2 -31 6 -40 9 -9 3
-35 8 -57 11 -22 3 -67 12 -100 20 -33 9 -69 17 -80 19 -83 13 -110 31 -121
77 -11 44 -8 104 7 133 14 29 67 67 82 59 4 -2 35 -6 68 -9z m-159 -473 c13
-6 70 -24 128 -41 58 -18 130 -40 160 -50 55 -19 409 -125 465 -140 17 -4 42
-13 58 -19 15 -6 27 -8 27 -5 0 2 8 0 18 -5 11 -6 30 -12 43 -15 13 -3 40 -10
59 -15 44 -13 538 -139 565 -145 106 -23 319 -87 344 -103 7 -4 18 -82 12 -85
-3 -2 -15 -20 -25 -40 -18 -36 -26 -41 -71 -41 -20 0 -80 10 -80 13 0 1 -9 3
-20 5 -11 2 -49 11 -85 20 -36 9 -75 19 -87 21 -12 2 -33 8 -45 12 -13 5 -30
8 -38 7 -8 0 -17 2 -20 6 -3 4 -21 9 -40 12 -19 3 -73 15 -120 27 -47 12 -92
23 -100 25 -8 2 -44 11 -80 20 -36 9 -73 19 -83 20 -17 4 -146 41 -232 68 -22
6 -43 11 -47 9 -5 -1 -8 2 -8 6 0 5 -6 9 -13 9 -7 0 -37 7 -67 17 -30 9 -62
18 -70 20 -8 2 -22 5 -30 8 -8 3 -33 11 -55 17 -22 5 -78 22 -125 35 -193 56
-235 68 -238 67 -1 -1 -18 5 -37 13 -20 9 -39 15 -43 15 -29 0 -103 26 -116
40 -22 24 -43 90 -40 124 5 51 30 77 74 77 21 0 49 -4 62 -9z m-621 -400 c10
-18 16 -41 14 -51 -4 -21 -16 -163 -20 -230 -2 -51 14 -128 45 -215 12 -33 23
-68 25 -79 3 -10 11 -29 20 -42 8 -13 13 -24 10 -24 -6 0 17 -29 75 -94 39
-44 41 -48 15 -32 -56 34 -170 153 -196 204 -8 15 -16 29 -19 32 -7 6 -45 105
-59 150 -14 48 -23 97 -26 148 -1 23 -5 46 -9 49 -3 3 -1 12 5 20 7 8 7 13 2
13 -6 0 -9 15 -6 33 2 17 5 49 7 70 9 83 82 113 117 48z m304 -53 c25 -30 36
-79 35 -156 -7 -314 -3 -406 19 -467 34 -96 99 -182 211 -277 24 -21 50 -38
57 -38 7 0 13 -4 13 -9 0 -5 10 -11 22 -14 12 -4 19 -9 16 -13 -4 -3 -22 -1
-41 5 -19 7 -43 13 -54 15 -12 3 -29 9 -39 15 -11 6 -55 26 -98 46 -95 42
-140 86 -186 181 -33 68 -68 155 -75 184 -1 8 -9 35 -16 60 -13 48 -20 268 -8
276 4 2 5 13 2 23 -10 39 18 131 48 161 26 24 34 27 61 19 17 -4 32 -10 33
-11z m378 -136 c22 -23 22 -22 18 -322 -3 -194 14 -239 169 -430 60 -74 273
-286 308 -306 17 -10 32 -24 32 -31 0 -34 -75 -2 -215 90 -66 44 -122 83 -125
86 -3 4 -27 23 -55 43 -27 20 -58 45 -67 55 -9 10 -33 34 -53 53 -69 66 -136
186 -151 267 -3 15 -7 29 -9 33 -16 26 -24 279 -12 360 3 19 6 41 6 49 1 7 17
29 37 47 41 39 81 41 117 6z m424 -163 c34 -29 42 -66 47 -220 3 -85 9 -171
14 -191 5 -20 7 -39 4 -42 -3 -4 0 -6 6 -6 7 0 11 -3 10 -7 -4 -16 56 -113
135 -218 36 -47 173 -185 202 -202 11 -7 55 -31 98 -55 91 -49 116 -73 99 -90
-15 -15 -84 2 -157 38 -27 14 -52 26 -55 26 -3 1 -22 12 -42 24 -21 13 -40 24
-43 24 -4 0 -34 19 -68 42 -101 67 -241 215 -302 318 -6 10 -17 26 -25 35 -8
10 -14 20 -13 21 1 2 -7 25 -18 51 -38 87 -61 195 -65 301 -3 94 -2 104 19
128 43 51 108 60 154 23z"/>
</g>
</svg>
