<svg viewBox="0 0 475 475" xmlns="http://www.w3.org/2000/svg"><g fill="none" fill-rule="evenodd"><path d="M474.3 412.4c0 34.2-27.7 61.9-61.9 61.9H62.7C28.5 474.3.8 446.6.8 412.4V62.6C.8 28.4 28.5.7 62.7.7h349.7c34.2 0 61.9 27.7 61.9 61.9v349.8zm-137.2-239c0 .2 0 .7-.1 1.3-.3 4.5-1.7 8.7-4.1 12.6-3.6 5.7-8.7 9.7-14.4 13.2-1.5.9-3 1.8-4.4 2.9-6.8 5.5-6.1 15.8 1.3 20.1 3.4 2 7.1 1.9 10.8 1 5.8-1.5 10.6-4.8 15.1-8.7 8.8-7.5 14.7-16.9 19.2-27.4 3.3-7.6 5-15.6 5.5-23.8.5-7.7.1-15.2-2.2-22.6-1.9-6.3-5-11.9-10.2-16-7-5.6-14.9-7.3-23.5-5.3-16.8 3.8-26.4 20.3-18.7 37.7 3 6.9 8.9 10.9 15.9 13.1 3.1 1 6.4 1.3 9.8 1.9zM176.6 350.6c.2 0 .3 0 .5.1.4.4.7.7 1 1.1 3.6 3.9 7 7.9 10.8 11.6 5.9 5.8 12.6 10.5 20.4 13.6 13.8 5.5 28 6.7 42.6 4.3 13.1-2.2 24.7-7.7 34.8-16.3 9.7-8.3 16.6-18.7 21.7-30.3 6.7-15.5 9.4-31.8 9.7-48.5.2-9.8-.5-19.5-2.3-29.2-2.2-11.8-6-23-12.3-33.3-13.1-21.5-32.5-32.7-57.4-34.8-6.9-.6-13.8-.4-20.7.6-7 1-13.7 2.8-20 6-10.4 5.2-19.3 12.5-27.4 20.8-.3.3-.5.7-.8 1.1l-.3-.3v-1.3c0-23.9.1-47.8 0-71.7 0-3-.3-6.1-.9-9.1-1.2-5.8-3.8-10.9-8.9-14.3-4.2-2.8-8.9-3.6-13.8-3.5-7.9.2-14 3.7-17.7 10.8-2.9 5.4-3.7 11.3-3.7 17.3v209.1c0 3 .3 6 .7 9 .7 4.7 2.4 8.8 5.6 12.4 6.6 7.4 18.6 8.1 26.4 4 8-4.2 11.3-11.4 12-20 .2-3.1 0-6.1 0-9.2zm93.7-68.2c-.2 11.9-1 21.3-3.9 30.4-4.1 12.4-11.4 22.2-23 28.5-6.5 3.5-13.5 4.5-20.8 4-7.4-.6-14.3-2.5-20.6-6.6-9.5-6.1-15.5-14.9-19-25.5-3.5-10.5-4.2-21.4-3.7-32.3.3-8.4 1.6-16.5 4.5-24.4 2.6-7.2 6.2-13.7 11.5-19.3 6.8-7.2 15.1-11.6 25-12.9 9.5-1.2 18.4.2 26.6 5.3 7.1 4.4 12.1 10.7 15.8 18.1 3.6 7.2 5.7 14.9 6.6 22.9.5 4.7.8 9.4 1 11.8z" fill-rule="nonzero" fill="#666"/></g></svg>
